<svg width="40" height="103" viewBox="0 0 40 103" fill="none" xmlns="http://www.w3.org/2000/svg">
    <g filter="url(#filter0_d)">
        <path d="M19.7907 92.7071C20.1812 93.0976 20.8144 93.0976 21.2049 92.7071L27.5689 86.3431C27.9594 85.9526 27.9594 85.3195 27.5689 84.9289C27.1783 84.5384 26.5452 84.5384 26.1546 84.9289L20.4978 90.5858L14.8409 84.9289C14.4504 84.5384 13.8173 84.5384 13.4267 84.9289C13.0362 85.3195 13.0362 85.9526 13.4267 86.3431L19.7907 92.7071ZM20.4978 41.751L20.9775 42.6284L20.4978 41.751ZM27.5685 62.4418L27.8772 63.3929L27.5685 62.4418ZM3.00643 37.6867L4.00624 37.7059L3.00643 37.6867ZM19.4978 0C19.4978 1.45813 19.3714 2.84074 19.141 4.15887L21.1112 4.50317C21.3612 3.07258 21.4978 1.57477 21.4978 0H19.4978ZM17.6956 9.16917C16.6255 11.8178 15.1644 14.229 13.547 16.5293L15.1831 17.6796C16.8497 15.3093 18.402 12.7596 19.55 9.9184L17.6956 9.16917ZM10.3153 20.8402C8.47954 23.2032 6.63016 25.5509 5.15575 27.9794L6.86534 29.0173C8.26722 26.7083 10.0355 24.4603 11.8947 22.0672L10.3153 20.8402ZM2.76139 33.1122C2.30888 34.5611 2.03713 36.0725 2.00661 37.6676L4.00624 37.7059C4.0328 36.3177 4.2689 34.9941 4.67045 33.7084L2.76139 33.1122ZM2.00661 37.6676C1.97851 39.1366 2.04028 40.59 2.18726 42.015L4.17671 41.8098C4.03808 40.4658 3.97969 39.0937 4.00624 37.7059L2.00661 37.6676ZM3.17425 47.3705C3.96469 50.2954 5.14047 53.0121 6.65812 55.3795L8.34185 54.3001C6.94475 52.1208 5.84724 49.5953 5.10499 46.8488L3.17425 47.3705ZM10.1739 59.6412C12.3864 61.7114 15.0019 63.2151 17.9459 63.9277L18.4164 61.9838C15.8434 61.361 13.5292 60.0417 11.5404 58.1808L10.1739 59.6412ZM23.5282 64.3101C24.9384 64.1771 26.3904 63.8755 27.8772 63.3929L27.2598 61.4906C25.9043 61.9306 24.5963 62.2005 23.3405 62.3189L23.5282 64.3101ZM27.8772 63.3929C29.2961 62.9324 30.5522 62.3921 31.6548 61.784L30.6888 60.0327C29.7097 60.5728 28.5721 61.0647 27.2598 61.4906L27.8772 63.3929ZM35.7231 58.4923C37.7565 55.9991 38.3176 53.1075 37.8402 50.3641L35.8698 50.707C36.2567 52.9304 35.8085 55.2232 34.1732 57.2283L35.7231 58.4923ZM35.8279 45.4926C34.2692 43.1885 31.9813 41.2944 29.3554 40.2904L28.6411 42.1586C30.8575 43.0059 32.8264 44.6251 34.1714 46.6133L35.8279 45.4926ZM24.094 39.577C22.7268 39.726 21.3526 40.1439 20.0181 40.8736L20.9775 42.6284C22.083 42.024 23.2049 41.6857 24.3107 41.5653L24.094 39.577ZM20.0181 40.8736C18.6025 41.6475 17.4213 42.4856 16.4531 43.4002L17.8264 44.8541C18.6479 44.0782 19.6828 43.3363 20.9775 42.6284L20.0181 40.8736ZM13.4529 48.1246C12.6468 50.7103 12.7911 53.5961 13.3551 56.7607L15.3241 56.4098C14.7797 53.3549 14.6987 50.8481 15.3622 48.7199L13.4529 48.1246ZM14.4909 61.85C15.1177 64.33 15.8334 66.9299 16.5449 69.8306L18.4873 69.3542C17.78 66.4704 17.0369 63.7614 16.4299 61.3599L14.4909 61.85ZM17.6717 74.8089C18.1874 77.3303 18.6424 80.0083 18.9692 82.8566L20.9562 82.6286C20.6216 79.7123 20.1563 76.9759 19.6311 74.4082L17.6717 74.8089ZM19.3922 87.924C19.4607 89.2484 19.4978 90.6068 19.4978 92H21.4978C21.4978 90.5712 21.4598 89.1784 21.3895 87.8206L19.3922 87.924Z" fill="#5A6DED"/>
    </g>
    <defs>
        <filter id="filter0_d" x="0" y="0" width="39.9999" height="103" filterUnits="userSpaceOnUse" color-interpolation-filters="sRGB">
            <feFlood flood-opacity="0" result="BackgroundImageFix"/>
            <feColorMatrix in="SourceAlpha" type="matrix" values="0 0 0 0 0 0 0 0 0 0 0 0 0 0 0 0 0 0 127 0"/>
            <feOffset dy="8"/>
            <feGaussianBlur stdDeviation="1"/>
            <feColorMatrix type="matrix" values="0 0 0 0 0 0 0 0 0 0 0 0 0 0 0 0 0 0 0.15 0"/>
            <feBlend mode="normal" in2="BackgroundImageFix" result="effect1_dropShadow"/>
            <feBlend mode="normal" in="SourceGraphic" in2="effect1_dropShadow" result="shape"/>
        </filter>
    </defs>
</svg>
