<svg width="234" height="89" viewBox="0 0 234 89" fill="none" xmlns="http://www.w3.org/2000/svg">
    <g filter="url(#filter0_d)">
        <path d="M120.994 1.62006V0.620056H119.994V1.62006H120.994ZM230.93 2.62006C231.482 2.62006 231.93 2.17234 231.93 1.62006C231.93 1.06777 231.482 0.620056 230.93 0.620056V2.62006ZM120.994 77.8916V78.8916H121.994V77.8916H120.994ZM230.93 0.620056H226.702V2.62006H230.93V0.620056ZM221.416 0.620056H212.96V2.62006H221.416V0.620056ZM207.674 0.620056H199.218V2.62006H207.674V0.620056ZM193.932 0.620056H185.476V2.62006H193.932V0.620056ZM180.19 0.620056H171.734V2.62006H180.19V0.620056ZM166.448 0.620056H157.991V2.62006H166.448V0.620056ZM152.706 0.620056H144.249V2.62006H152.706V0.620056ZM138.964 0.620056H130.507V2.62006H138.964V0.620056ZM125.222 0.620056H120.994V2.62006H125.222V0.620056ZM119.994 1.62006V5.53142H121.994V1.62006H119.994ZM119.994 10.4206V18.2433H121.994V10.4206H119.994ZM119.994 23.1325V30.9553H121.994V23.1325H119.994ZM119.994 35.8445V43.6672H121.994V35.8445H119.994ZM119.994 48.5564V56.3791H121.994V48.5564H119.994ZM119.994 61.2683V69.091H121.994V61.2683H119.994ZM119.994 73.9802V77.8916H121.994V73.9802H119.994ZM120.994 76.8916H116.943V78.8916H120.994V76.8916ZM111.879 76.8916H103.777V78.8916H111.879V76.8916ZM98.7127 76.8916H90.6106V78.8916H98.7127V76.8916ZM85.5468 76.8916H77.4447V78.8916H85.5468V76.8916ZM72.3808 76.8916H64.2787V78.8916H72.3808V76.8916ZM59.2149 76.8916H51.1127V78.8916H59.2149V76.8916ZM46.0489 76.8916H37.9468V78.8916H46.0489V76.8916ZM32.883 76.8916H24.7808V78.8916H32.883V76.8916ZM19.717 76.8916H11.6149V78.8916H19.717V76.8916ZM6.55106 76.8916H2.5V78.8916H6.55106V76.8916Z" fill="#181D23"/>
    </g>
    <defs>
        <filter id="filter0_d" x="0.5" y="0.620117" width="233.43" height="88.2715" filterUnits="userSpaceOnUse" color-interpolation-filters="sRGB">
            <feFlood flood-opacity="0" result="BackgroundImageFix"/>
            <feColorMatrix in="SourceAlpha" type="matrix" values="0 0 0 0 0 0 0 0 0 0 0 0 0 0 0 0 0 0 127 0"/>
            <feOffset dy="8"/>
            <feGaussianBlur stdDeviation="1"/>
            <feColorMatrix type="matrix" values="0 0 0 0 0 0 0 0 0 0 0 0 0 0 0 0 0 0 0.15 0"/>
            <feBlend mode="normal" in2="BackgroundImageFix" result="effect1_dropShadow"/>
            <feBlend mode="normal" in="SourceGraphic" in2="effect1_dropShadow" result="shape"/>
        </filter>
    </defs>
</svg>
