<svg width="223" height="121" viewBox="0 0 223 121" fill="none" xmlns="http://www.w3.org/2000/svg">
    <g filter="url(#filter0_d)">
        <path d="M113.606 1.52252V0.522522H114.606V1.52252H113.606ZM3.66943 2.52252C3.11715 2.52252 2.66943 2.07481 2.66943 1.52252C2.66943 0.970238 3.11715 0.522522 3.66943 0.522522V2.52252ZM113.606 109.719V110.719H112.606V109.719H113.606ZM3.66943 0.522522H7.89776V2.52252H3.66943V0.522522ZM13.1832 0.522522H21.6398V2.52252H13.1832V0.522522ZM26.9253 0.522522H35.3819V2.52252H26.9253V0.522522ZM40.6673 0.522522H49.124V2.52252H40.6673V0.522522ZM54.4094 0.522522H62.8661V2.52252H54.4094V0.522522ZM68.1515 0.522522H76.6081V2.52252H68.1515V0.522522ZM81.8936 0.522522H90.3502V2.52252H81.8936V0.522522ZM95.6356 0.522522H104.092V2.52252H95.6356V0.522522ZM109.378 0.522522H113.606V2.52252H109.378V0.522522ZM114.606 1.52252V5.68394H112.606V1.52252H114.606ZM114.606 10.8857V19.2085H112.606V10.8857H114.606ZM114.606 24.4103V32.7331H112.606V24.4103H114.606ZM114.606 37.9349V46.2577H112.606V37.9349H114.606ZM114.606 51.4595V59.7823H112.606V51.4595H114.606ZM114.606 64.9841V73.3069H112.606V64.9841H114.606ZM114.606 78.5086V86.8315H112.606V78.5086H114.606ZM114.606 92.0332V100.356H112.606V92.0332H114.606ZM114.606 105.558V109.719H112.606V105.558H114.606ZM113.606 108.719H117.717V110.719H113.606V108.719ZM122.856 108.719H131.079V110.719H122.856V108.719ZM136.218 108.719H144.441V110.719H136.218V108.719ZM149.58 108.719H157.803V110.719H149.58V108.719ZM162.942 108.719H171.164V110.719H162.942V108.719ZM176.304 108.719H184.526V110.719H176.304V108.719ZM189.665 108.719H197.888V110.719H189.665V108.719ZM203.027 108.719H211.25V110.719H203.027V108.719ZM216.389 108.719H220.5V110.719H216.389V108.719Z" fill="#181D23"/>
    </g>
    <defs>
        <filter id="filter0_d" x="0.669434" y="0.522461" width="221.831" height="120.197" filterUnits="userSpaceOnUse" color-interpolation-filters="sRGB">
            <feFlood flood-opacity="0" result="BackgroundImageFix"/>
            <feColorMatrix in="SourceAlpha" type="matrix" values="0 0 0 0 0 0 0 0 0 0 0 0 0 0 0 0 0 0 127 0"/>
            <feOffset dy="8"/>
            <feGaussianBlur stdDeviation="1"/>
            <feColorMatrix type="matrix" values="0 0 0 0 0 0 0 0 0 0 0 0 0 0 0 0 0 0 0.15 0"/>
            <feBlend mode="normal" in2="BackgroundImageFix" result="effect1_dropShadow"/>
            <feBlend mode="normal" in="SourceGraphic" in2="effect1_dropShadow" result="shape"/>
        </filter>
    </defs>
</svg>
