<svg width="117" height="107" viewBox="0 0 117 107" fill="none" xmlns="http://www.w3.org/2000/svg">
    <g filter="url(#filter0_d)">
        <path d="M3.28214 1.95978V0.959778H2.28214V1.95978H3.28214ZM113.219 2.95978C113.771 2.95978 114.219 2.51206 114.219 1.95978C114.219 1.40749 113.771 0.959778 113.219 0.959778V2.95978ZM113.219 0.959778H108.99V2.95978H113.219V0.959778ZM103.705 0.959778H95.2483V2.95978H103.705V0.959778ZM89.9629 0.959778H81.5063V2.95978H89.9629V0.959778ZM76.2209 0.959778H67.7642V2.95978H76.2209V0.959778ZM62.4788 0.959778H54.0221V2.95978H62.4788V0.959778ZM48.7367 0.959778H40.28V2.95978H48.7367V0.959778ZM34.9946 0.959778H26.538V2.95978H34.9946V0.959778ZM21.2525 0.959778H12.7959V2.95978H21.2525V0.959778ZM7.51047 0.959778H3.28214V2.95978H7.51047V0.959778ZM2.28214 1.95978V6.1003H4.28214V1.95978H2.28214ZM2.28214 11.2759V19.557H4.28214V11.2759H2.28214ZM2.28214 24.7326V33.0136H4.28214V24.7326H2.28214ZM2.28214 38.1893V46.4703H4.28214V38.1893H2.28214ZM2.28214 51.646V59.927H4.28214V51.646H2.28214ZM2.28214 65.1026V73.3837H4.28214V65.1026H2.28214ZM2.28214 78.5593V86.8403H4.28214V78.5593H2.28214ZM2.28214 92.016V96.1565H4.28214V92.016H2.28214Z" fill="#181D23"/>
    </g>
    <defs>
        <filter id="filter0_d" x="0.282227" y="0.959717" width="115.937" height="105.197" filterUnits="userSpaceOnUse" color-interpolation-filters="sRGB">
            <feFlood flood-opacity="0" result="BackgroundImageFix"/>
            <feColorMatrix in="SourceAlpha" type="matrix" values="0 0 0 0 0 0 0 0 0 0 0 0 0 0 0 0 0 0 127 0"/>
            <feOffset dy="8"/>
            <feGaussianBlur stdDeviation="1"/>
            <feColorMatrix type="matrix" values="0 0 0 0 0 0 0 0 0 0 0 0 0 0 0 0 0 0 0.15 0"/>
            <feBlend mode="normal" in2="BackgroundImageFix" result="effect1_dropShadow"/>
            <feBlend mode="normal" in="SourceGraphic" in2="effect1_dropShadow" result="shape"/>
        </filter>
    </defs>
</svg>
