<svg width="187" height="13" viewBox="0 0 187 13" fill="none" xmlns="http://www.w3.org/2000/svg">
    <g filter="url(#filter0_d)">
        <path d="M183.931 2.15723C184.483 2.15723 184.931 1.70951 184.931 1.15723C184.931 0.604942 184.483 0.157227 183.931 0.157227V2.15723ZM183.931 0.157227H179.954V2.15723H183.931V0.157227ZM174.983 0.157227H167.03V2.15723H174.983V0.157227ZM162.059 0.157227H154.106V2.15723H162.059V0.157227ZM149.135 0.157227H141.182V2.15723H149.135V0.157227ZM136.211 0.157227H128.258V2.15723H136.211V0.157227ZM123.287 0.157227H115.334V2.15723H123.287V0.157227ZM110.363 0.157227H102.41V2.15723H110.363V0.157227ZM97.439 0.157227H89.4857V2.15723H97.439V0.157227ZM84.5149 0.157227H76.5617V2.15723H84.5149V0.157227ZM71.5909 0.157227H63.6376V2.15723H71.5909V0.157227ZM58.6668 0.157227H50.7136V2.15723H58.6668V0.157227ZM45.7428 0.157227H37.7896V2.15723H45.7428V0.157227ZM32.8188 0.157227H24.8655V2.15723H32.8188V0.157227ZM19.8947 0.157227H11.9415V2.15723H19.8947V0.157227ZM6.97069 0.157227H2.99405V2.15723H6.97069V0.157227Z" fill="#181D23"/>
    </g>
    <defs>
        <filter id="filter0_d" x="0.994141" y="0.157227" width="185.937" height="12" filterUnits="userSpaceOnUse" color-interpolation-filters="sRGB">
            <feFlood flood-opacity="0" result="BackgroundImageFix"/>
            <feColorMatrix in="SourceAlpha" type="matrix" values="0 0 0 0 0 0 0 0 0 0 0 0 0 0 0 0 0 0 127 0"/>
            <feOffset dy="8"/>
            <feGaussianBlur stdDeviation="1"/>
            <feColorMatrix type="matrix" values="0 0 0 0 0 0 0 0 0 0 0 0 0 0 0 0 0 0 0.15 0"/>
            <feBlend mode="normal" in2="BackgroundImageFix" result="effect1_dropShadow"/>
            <feBlend mode="normal" in="SourceGraphic" in2="effect1_dropShadow" result="shape"/>
        </filter>
    </defs>
</svg>
