<svg width="85" height="95" viewBox="0 0 85 95" fill="none" xmlns="http://www.w3.org/2000/svg">
    <g filter="url(#filter0_d)">
        <path d="M81.5005 83.4604H82.5005V84.4604H81.5005V83.4604ZM3.60742 84.4604C3.05514 84.4604 2.60742 84.0127 2.60742 83.4604C2.60742 82.9082 3.05514 82.4604 3.60742 82.4604V84.4604ZM3.60742 82.4604H7.60194V84.4604H3.60742V82.4604ZM12.5951 82.4604H20.5841V84.4604H12.5951V82.4604ZM25.5773 82.4604H33.5663V84.4604H25.5773V82.4604ZM38.5594 82.4604H46.5485V84.4604H38.5594V82.4604ZM51.5416 82.4604H59.5307V84.4604H51.5416V82.4604ZM64.5238 82.4604H72.5128V84.4604H64.5238V82.4604ZM77.506 82.4604H81.5005V84.4604H77.506V82.4604ZM80.5005 83.4604V79.1963H82.5005V83.4604H80.5005ZM80.5005 73.8661V65.3378H82.5005V73.8661H80.5005ZM80.5005 60.0076V51.4793H82.5005V60.0076H80.5005ZM80.5005 46.1491V37.6208H82.5005V46.1491H80.5005ZM80.5005 32.2906V23.7623H82.5005V32.2906H80.5005ZM80.5005 18.4322V9.90385H82.5005V18.4322H80.5005ZM80.5005 4.57367V0.309509H82.5005V4.57367H80.5005Z" fill="#181D23"/>
    </g>
    <defs>
        <filter id="filter0_d" x="0.607422" y="0.30957" width="83.8931" height="94.1509" filterUnits="userSpaceOnUse" color-interpolation-filters="sRGB">
            <feFlood flood-opacity="0" result="BackgroundImageFix"/>
            <feColorMatrix in="SourceAlpha" type="matrix" values="0 0 0 0 0 0 0 0 0 0 0 0 0 0 0 0 0 0 127 0"/>
            <feOffset dy="8"/>
            <feGaussianBlur stdDeviation="1"/>
            <feColorMatrix type="matrix" values="0 0 0 0 0 0 0 0 0 0 0 0 0 0 0 0 0 0 0.15 0"/>
            <feBlend mode="normal" in2="BackgroundImageFix" result="effect1_dropShadow"/>
            <feBlend mode="normal" in="SourceGraphic" in2="effect1_dropShadow" result="shape"/>
        </filter>
    </defs>
</svg>
