<svg width="117" height="120" viewBox="0 0 117 120" fill="none" xmlns="http://www.w3.org/2000/svg">
    <g filter="url(#filter0_d)">
        <path d="M113.219 1.95978V0.959778H114.219V1.95978H113.219ZM3.28223 2.95978C2.72994 2.95978 2.28223 2.51206 2.28223 1.95978C2.28223 1.40749 2.72994 0.959778 3.28223 0.959778V2.95978ZM3.28223 0.959778H7.51056V2.95978H3.28223V0.959778ZM12.796 0.959778H21.2526V2.95978H12.796V0.959778ZM26.538 0.959778H34.9947V2.95978H26.538V0.959778ZM40.2801 0.959778H48.7368V2.95978H40.2801V0.959778ZM54.0222 0.959778H62.4789V2.95978H54.0222V0.959778ZM67.7643 0.959778H76.2209V2.95978H67.7643V0.959778ZM81.5063 0.959778H89.963V2.95978H81.5063V0.959778ZM95.2484 0.959778H103.705V2.95978H95.2484V0.959778ZM108.991 0.959778H113.219V2.95978H108.991V0.959778ZM114.219 1.95978V6.08862H112.219V1.95978H114.219ZM114.219 11.2497V19.5073H112.219V11.2497H114.219ZM114.219 24.6684V32.9261H112.219V24.6684H114.219ZM114.219 38.0871V46.3448H112.219V38.0871H114.219ZM114.219 51.5058V59.7635H112.219V51.5058H114.219ZM114.219 64.9246V73.1822H112.219V64.9246H114.219ZM114.219 78.3433V86.601H112.219V78.3433H114.219ZM114.219 91.762V100.02H112.219V91.762H114.219ZM114.219 105.181V109.31H112.219V105.181H114.219Z" fill="#181D23"/>
    </g>
    <defs>
        <filter id="filter0_d" x="0.282227" y="0.959717" width="115.937" height="118.35" filterUnits="userSpaceOnUse" color-interpolation-filters="sRGB">
            <feFlood flood-opacity="0" result="BackgroundImageFix"/>
            <feColorMatrix in="SourceAlpha" type="matrix" values="0 0 0 0 0 0 0 0 0 0 0 0 0 0 0 0 0 0 127 0"/>
            <feOffset dy="8"/>
            <feGaussianBlur stdDeviation="1"/>
            <feColorMatrix type="matrix" values="0 0 0 0 0 0 0 0 0 0 0 0 0 0 0 0 0 0 0.15 0"/>
            <feBlend mode="normal" in2="BackgroundImageFix" result="effect1_dropShadow"/>
            <feBlend mode="normal" in="SourceGraphic" in2="effect1_dropShadow" result="shape"/>
        </filter>
    </defs>
</svg>
