<svg width="147" height="13" viewBox="0 0 147 13" fill="none" xmlns="http://www.w3.org/2000/svg">
    <g filter="url(#filter0_d)">
        <path d="M3.60742 2.46045C3.05514 2.46045 2.60742 2.01273 2.60742 1.46045C2.60742 0.908164 3.05514 0.460449 3.60742 0.460449V2.46045ZM3.60742 0.460449H7.54849V2.46045H3.60742V0.460449ZM12.4748 0.460449H20.3569V2.46045H12.4748V0.460449ZM25.2833 0.460449H33.1654V2.46045H25.2833V0.460449ZM38.0917 0.460449H45.9739V2.46045H38.0917V0.460449ZM50.9002 0.460449H58.7823V2.46045H50.9002V0.460449ZM63.7087 0.460449H71.5908V2.46045H63.7087V0.460449ZM76.5171 0.460449H84.3992V2.46045H76.5171V0.460449ZM89.3256 0.460449H97.2077V2.46045H89.3256V0.460449ZM102.134 0.460449H110.016V2.46045H102.134V0.460449ZM114.942 0.460449H122.825V2.46045H114.942V0.460449ZM127.751 0.460449H135.633V2.46045H127.751V0.460449ZM140.559 0.460449H144.5V2.46045H140.559V0.460449Z" fill="#181D23"/>
    </g>
    <defs>
        <filter id="filter0_d" x="0.607422" y="0.460449" width="145.893" height="12" filterUnits="userSpaceOnUse" color-interpolation-filters="sRGB">
            <feFlood flood-opacity="0" result="BackgroundImageFix"/>
            <feColorMatrix in="SourceAlpha" type="matrix" values="0 0 0 0 0 0 0 0 0 0 0 0 0 0 0 0 0 0 127 0"/>
            <feOffset dy="8"/>
            <feGaussianBlur stdDeviation="1"/>
            <feColorMatrix type="matrix" values="0 0 0 0 0 0 0 0 0 0 0 0 0 0 0 0 0 0 0.15 0"/>
            <feBlend mode="normal" in2="BackgroundImageFix" result="effect1_dropShadow"/>
            <feBlend mode="normal" in="SourceGraphic" in2="effect1_dropShadow" result="shape"/>
        </filter>
    </defs>
</svg>
