<svg xmlns="http://www.w3.org/2000/svg" width="20" height="57" fill="none"><g filter="url(#A)"><path d="M10.707.807a1 1 0 0 0-1.414 0L2.93 7.17a1 1 0 1 0 1.414 1.414L10 2.93l5.657 5.657a1 1 0 0 0 1.414-1.414L10.707.807zM10 46.514h1v-4.613H9v4.61c0 .004 0 .004 1 .004zm1-10.378v-9.23H9v9.23h2zm0-15.002V11.9H9v9.234h2zM11 6.13V1.533l-2-.018v4.598l2 .018z" fill="#5a6ded"/></g><defs><filter id="A" x=".636" y=".514" width="18.728" height="56" filterUnits="userSpaceOnUse" color-interpolation-filters="sRGB"><feFlood flood-opacity="0" result="A"/><feColorMatrix in="SourceAlpha" values="0 0 0 0 0 0 0 0 0 0 0 0 0 0 0 0 0 0 127 0"/><feOffset dy="8"/><feGaussianBlur stdDeviation="1"/><feColorMatrix values="0 0 0 0 0 0 0 0 0 0 0 0 0 0 0 0 0 0 0.15 0"/><feBlend in2="A"/><feBlend in="SourceGraphic"/></filter></defs></svg>