<svg width="150" height="105" viewBox="0 0 150 105" fill="none" xmlns="http://www.w3.org/2000/svg">
    <g filter="url(#filter0_d)">
        <path d="M147.259 88.7767C147.716 88.4657 147.834 87.8436 147.523 87.3872L142.455 79.9494C142.144 79.493 141.522 79.3751 141.066 79.6861C140.609 79.997 140.491 80.6191 140.802 81.0755L145.307 87.6869L138.695 92.1913C138.239 92.5023 138.121 93.1244 138.432 93.5808C138.743 94.0372 139.365 94.1551 139.822 93.8442L147.259 88.7767ZM2.978 2.42614C4.32496 2.72743 5.64478 3.04068 6.93845 3.36541L7.42538 1.4256C6.11473 1.09659 4.77812 0.779374 3.41458 0.474372L2.978 2.42614ZM11.7775 4.66735C14.4407 5.43362 16.987 6.25123 19.4262 7.1156L20.0942 5.23046C17.6162 4.35234 15.0315 3.52247 12.3305 2.74532L11.7775 4.66735ZM24.1114 8.88385C26.6726 9.91169 29.1099 10.9938 31.4368 12.1239L32.3105 10.3249C29.9411 9.17411 27.4609 8.07299 24.8563 7.02773L24.1114 8.88385ZM35.8921 14.4162C38.3004 15.727 40.5866 17.0914 42.7688 18.5014L43.8542 16.8215C41.6311 15.3851 39.3018 13.9949 36.8482 12.6595L35.8921 14.4162ZM46.9108 21.3159C49.131 22.9002 51.2441 24.5319 53.2731 26.2011L54.5437 24.6566C52.4824 22.9608 50.3329 21.3009 48.0725 19.6879L46.9108 21.3159ZM57.0847 29.4613C59.1116 31.2603 61.062 33.0935 62.9626 34.9498L64.3601 33.519C62.4412 31.6449 60.4673 29.7893 58.4123 27.9655L57.0847 29.4613ZM66.5251 38.5061C68.4175 40.4321 70.274 42.3731 72.1252 44.3187L73.5741 42.94C71.7213 40.9928 69.8558 39.0423 67.9516 37.1044L66.5251 38.5061ZM75.6096 47.9822C77.4687 49.9321 79.3403 51.8781 81.251 53.8049L82.6711 52.3966C80.7741 50.4836 78.9129 48.5485 77.057 46.6021L75.6096 47.9822ZM84.8648 57.371C86.8006 59.2354 88.7924 61.0742 90.8668 62.8739L92.1775 61.3632C90.1336 59.59 88.1676 57.7753 86.2522 55.9305L84.8648 57.371ZM94.7794 66.135C96.8654 67.8021 99.0418 69.4262 101.332 70.9959L102.463 69.3462C100.216 67.8062 98.0788 66.2116 96.028 64.5727L94.7794 66.135ZM105.61 73.7775C107.865 75.1656 110.228 76.5008 112.719 77.7746L113.63 75.9939C111.187 74.7447 108.869 73.4354 106.659 72.0744L105.61 73.7775ZM117.32 79.9876C119.718 81.071 122.229 82.0994 124.867 83.0664L125.556 81.1886C122.963 80.2381 120.497 79.2281 118.143 78.1649L117.32 79.9876ZM129.684 84.7166C132.186 85.516 134.796 86.263 137.523 86.9532L138.014 85.0143C135.325 84.3339 132.754 83.598 130.292 82.8114L129.684 84.7166ZM142.469 88.1129C143.79 88.3989 145.136 88.6724 146.51 88.9328L146.883 86.9678C145.525 86.7105 144.196 86.4405 142.892 86.1582L142.469 88.1129Z" fill="#5A6DED"/>
    </g>
    <defs>
        <filter id="filter0_d" x="0.978027" y="0.474365" width="148.718" height="103.543" filterUnits="userSpaceOnUse" color-interpolation-filters="sRGB">
            <feFlood flood-opacity="0" result="BackgroundImageFix"/>
            <feColorMatrix in="SourceAlpha" type="matrix" values="0 0 0 0 0 0 0 0 0 0 0 0 0 0 0 0 0 0 127 0"/>
            <feOffset dy="8"/>
            <feGaussianBlur stdDeviation="1"/>
            <feColorMatrix type="matrix" values="0 0 0 0 0 0 0 0 0 0 0 0 0 0 0 0 0 0 0.15 0"/>
            <feBlend mode="normal" in2="BackgroundImageFix" result="effect1_dropShadow"/>
            <feBlend mode="normal" in="SourceGraphic" in2="effect1_dropShadow" result="shape"/>
        </filter>
    </defs>
</svg>
