<svg xmlns="http://www.w3.org/2000/svg" width="85" height="153" fill="none"><g filter="url(#A)"><path d="M3.467 138.322a1 1 0 0 1-.381-1.363l4.417-7.84a1 1 0 1 1 1.743.981l-3.926 6.97 6.97 3.926a1 1 0 0 1 .381 1.362 1 1 0 0 1-1.362.38l-7.842-4.416zM82.11 2.936l-3.965.756-.446-1.95L81.805.96l.306 1.976zM73.39 5.032c-2.624.892-5 1.972-7.127 3.22l-1.01-1.727c2.26-1.32 4.748-2.453 7.492-3.386l.644 1.894zm-11.176 5.99a33.5 33.5 0 0 0-5.508 5.57l-1.575-1.233a35.5 35.5 0 0 1 5.836-5.901l1.247 1.564zm-8.274 9.634c-1.314 2.223-2.436 4.605-3.4 7.124l-1.868-.716c1-2.61 2.17-5.095 3.547-7.427l1.722 1.018zM48.953 32.5l-1.875 7.772-1.963-.384 1.92-7.953 1.92.565zM46.22 45.202l-1.032 7.966-1.988-.218 1.043-8.053 1.977.304zm-1.536 12.98l-.696 8.05-1.993-.165.698-8.07 1.99.186zm-1.117 13.086l-.752 8.07-1.99-.207.748-8.033 1.993.17zm-1.325 13.11l-1.197 8.05-1.97-.347 1.182-7.95 1.985.248zm-2.187 13.05l-2.114 7.883-1.904-.612 2.066-7.704 1.953.433zm-3.86 12.702c-1.043 2.566-2.244 5.035-3.637 7.383l-1.72-1.02c1.336-2.253 2.495-4.632 3.504-7.116l1.853.753zm-6.5 11.668c-1.64 2.177-3.485 4.216-5.57 6.096l-1.34-1.486a40.96 40.96 0 0 0 5.311-5.813l1.598 1.203zm-9.614 9.318c-2.16 1.518-4.524 2.9-7.118 4.1l-.846-1.812c2.49-1.162 4.754-2.476 6.814-3.924l1.15 1.636zm-11.876 6.044l-3.976 1.256-.538-1.926 3.846-1.215.67 1.885z" fill="#5a6ded"/></g><defs><filter id="A" x=".958" y=".96" width="83.153" height="151.907" filterUnits="userSpaceOnUse" color-interpolation-filters="sRGB"><feFlood flood-opacity="0" result="A"/><feColorMatrix in="SourceAlpha" values="0 0 0 0 0 0 0 0 0 0 0 0 0 0 0 0 0 0 127 0"/><feOffset dy="8"/><feGaussianBlur stdDeviation="1"/><feColorMatrix values="0 0 0 0 0 0 0 0 0 0 0 0 0 0 0 0 0 0 0.15 0"/><feBlend in2="A"/><feBlend in="SourceGraphic"/></filter></defs></svg>