<svg xmlns="http://www.w3.org/2000/svg" width="63" height="62" fill="none"><g clip-path="url(#C)" filter="url(#B)"><circle cx="31.608" cy="30.876" r="22.412" fill="#f4f4f4"/><mask id="A" mask-type="alpha" maskUnits="userSpaceOnUse" x="11" y="10" width="41" height="42"><path d="M12.232 30.876a19.38 19.38 0 0 1 19.376-19.375 19.38 19.38 0 0 1 19.376 19.375 19.38 19.38 0 0 1-19.375 19.376 19.38 19.38 0 0 1-19.376-19.375zM22.574 11.5a21.46 21.46 0 0 0-10.342 10.341V11.5h10.342zm28.41 10.34a21.46 21.46 0 0 0-10.342-10.341h10.342v10.34z" fill="#fff" stroke="#fff" stroke-width="1.997"/></mask><g mask="url(#A)"><path d="M1.543 63.576c1.87-.082 8.364-1.22 11.377-1.778.31-.29 1.367-1.14 3.128-2.232s4.406-2.848 5.51-3.6l6.848-11.45.012-.36-.335-.73.448-2.68c.246-.194.74-.64.748-.873.01-.292-.162-.544-.144-1.083s-.168-.365-.52-.556.012-.36.03-.897.054-1.615-.102-2.34.036-1.077.042-1.256-1.64.664-3.092 1.155c-1.163.393-3.5.782-4.522.928-.187.233-.707.73-1.286.856-.724.156-.365.167-.718-.024s-1.61-.233-1.926-1.5c-.254-1.015 1.37-1.57 2.213-1.723l10.823-12.15.014-.426.072-2.153-.174-.185c-.054-.18-.158-.652-.144-1.083.018-.538.036-1.077.6-2.135.46-.847 2.15-1.605 2.937-1.88l.86 1.107 1.256.042c.718.024.514.736 1.053.754l1.256.042c.49-.283 1.68-.842 2.542-.814s1.647.893 1.932 1.322l2.93-1.7a18.45 18.45 0 0 1 2.453 1.878c1.22 1.12 2.052 3.122 2.178 4.743.1 1.297-1.27 3.97-1.967 5.145a3.15 3.15 0 0 0-.514-.736c-.347-.37-1.214-1.298-1.55-2.027s-.096-2.518-.258-3.063-.323-1.09-.664-1.64c-.273-.44-.84.092-.915.51l.3 1.806c.12.723-.472 1.6-.783 1.95l-1.166 2.656-.072 2.153-.83 3.386-.92.688-.06 1.795c-.024.718-.344 3.162-.502 4.295l.353.19.51.915.072 3.236-1.095.503c-.002 1.856-.133 6.176-.645 8.602-.64 3.033-1.43 5.162-2.6 7.998s-8.3 11.94-9.413 12.98c-.9.833-5.706 5.92-8.003 8.357l-.52-.556-.377.526-.682-1.1-1.292 1.035L.82 79.9l-15.995.187-8.446.08c-.98.626-3.158 2.05-4.043 2.74-1.107.86-5.77 6.096-7.26 7.663-1.19 1.254-4.376 1.95-5.82 2.142-.114-.183-.445-.662-.862-1.106s-.138-1.262.054-1.615c-.114-.183-.408-.696-.676-1.28s-.076-1.32.054-1.615l.21-.89c-.36.048-1.226.14-1.8.12-.718-.024-2.5-.442-3.2-1.004s-.646-2.177-.258-3.063c.31-.708 1.218-.618 1.633-.485.126-.175.45-.596.748-.873s1.32-.076 1.794.06l.185-.173c.606-.22 2.107-.684 3.26-.8 1.442-.132 3.966-.407 6.31-.69 1.876-.225 5.603-1.012 7.232-1.377 1.03-.385 3.348-1.3 4.372-1.83s6.233-1.95 8.71-2.585l5.61-1.25c-1.18-.518-3.72-1.597-4.433-1.764-.89-.21-4.277-1.04-5.707-1.267-1.144-.182-1.545-.35-1.603-.412a18.68 18.68 0 0 0-2.183.826c-1.095.503-7.96 1.712-9.038 1.676s-2.5-.442-7.866-1.16-8.243-.633-11.132-.2-7.596 1.544-9.26 2.926c-1.33 1.106-5.642 2.208-7.632 2.62-1.312-.163-3.97-.563-4.103-.855s.458-1.182.77-1.59c.004-.12-.057-.433-.335-.73s-.33-.85-.323-1.09l.024-.718c.018-.538.568-.88 1.3-1.573s1.998-.652 3.786-.413 4.1.675 6.622.76c1.8.06 4.235-.53 5.55-.93a3.03 3.03 0 0 1-.49.019c-.718-.024-4.227-.76-5.695-1.626-3.876-2.284-4.36-3.917-4.51-4.82s.945-1.406 2.028-1.55 1.238.58 1.597.592c.287.01.586.38.7.562.18.006.61.056.89.21.353.19.712.203 1.58 1.13s2.98 2.255 5.48 2.697 2.89-.443 3.613-.6.538.018 1.61.233 7.513.968 9.667 1.04 7.758-1 8.117-.988 2.572-1.71 5.49-3.05c2.335-1.072 3.633-1.197 4-1.125.006-.18-.323-1.09-.305-1.627.038-1.135.508-4.474 1.124-6.79 1.072-4.028 2.94-5.59 4.54-6.856-.632.997-2.092 3.488-2.876 5.474-.98 2.482-.424 7.35.067 8.805.393 1.163.977 1.23 1.22 1.118l8.19 2.248c3.56 1.017 6.1.203 8.44.1z" fill="#bf8d5a"/><path d="M20.5 34.024c-.837-.746-1.294-.702-1.418-.586-.484.164-1.565.595-2 1.01-.556.52-.024.718.31 1.447s1.232.76 2.124.97 1.465-.85 2.028-1.55.012-.36-1.035-1.292z" fill="#4a4a4c"/><ellipse cx="19.767" cy="34.179" rx=".719" ry=".359" transform="rotate(1.902 19.767 34.179)" fill="#fff"/><path d="M32.467 41.248c1.153-.105 5.062-.97 6.873-1.39l.43-2.142c.178.066.635.344 1.047.933.514.736.138 1.262.12 1.8s.144 1.083-.048 1.436-3.278 1.328-4.73 1.82-5.958.88-7.214.838-.867-.927-.856-1.286l.048-1.436c.03-.897.227-1.43.957-1.765.584-.268.706.383.694.742l-.742.694 3.422-.246z" fill="#ffcd00"/><g fill="#fff"><path d="M36.8 18.936c.32-.995 1.824-.838 2.536-.634.532.197 1.932 1.322 2.088 2.046s-.247 1.72-1.328 2.112c-.91.33-1.62.126-2.865-.275s-.832-2.004-.43-3.248z"/><path d="M33.6 17.93c-.13-.436-1.35-.823-1.944-.963-.124.116-.372.383-.377.526-.006.18-.395 1.065-.233 1.61.13.436.867.927 1.22 1.118.367-.227 1.14-.753 1.292-1.035.19-.353.203-.712.042-1.256z"/></g><g fill="#4a4a4c"><path d="M39.983 20.48c-.533-.197-.347-.37-.335-.73.01-.287.495-.463.736-.515-.03.007-.108.123-.197.533s.322.182.54.018c.056.122.13.4-.018.54-.185.174-.19.353-.724.156z"/><path d="M32.517 18.075c-.13-.436.078-.537.197-.533l.712.203c-.062.058-.188.245-.197.533s.355.132.54.018c-.066.177-.275.7-.562.7-.36-.012-.527-.377-.688-.922z"/></g><g fill="#353535"><path d="M39.937 18.687c.102.027.166-.01.193-.104.052-.148-.054-.278-.162-.36-.423-.306-1.036-.38-1.542-.335a2.54 2.54 0 0 0-2.163 1.75c-.29.92.046 1.95.75 2.595.727.67 1.77.863 2.71.58 1.012-.305 2.172-1.284 1.872-2.47-.07-.263-.483-.166-.413.097.202.803-.53 1.496-1.18 1.814s-1.44.37-2.108.072c-.66-.298-1.152-.93-1.294-1.636-.142-.722.16-1.453.7-1.924.34-.296.78-.463 1.23-.503a2.32 2.32 0 0 1 .7.039c.102.02.21.046.313.08.125.044.295.136.42.132-.103.005-.13.145-.037.172z"/><path d="M37.35 18.23c.49 0 .962-.015 1.44.095.47.102.92.29 1.322.556.77.522 1.212 1.262 1.522 2.124.08.23.42.156.373-.1-.18-.944-.87-1.82-1.65-2.34-.833-.556-2.053-.872-3.02-.5-.087.02-.092.163.01.166z"/><path d="M40.63 19.16c-.448-.054-.88.105-1.06.548-.155.38-.02.804.345 1.005.317.176.745.127.96-.18s.167-.75-.15-.975c-.154-.108-.36.13-.214.26.4.368-.148.894-.53.52-.168-.163-.16-.423-.043-.61.158-.255.452-.3.715-.386.088-.037.077-.17-.026-.182z"/><path d="M37.283 18.568c-.282-.31-.58-.563-.54-1.035.038-.44.42-.806.856-.855.26-.023.234-.386-.035-.364-.585.06-1.098.53-1.165 1.128-.064.503.26 1.215.825 1.273.07.002.106-.1.06-.148z"/><path d="M36.633 16.086l1.688-.732c.552-.25 1.14-.61 1.75-.66.593-.05 1.046.32 1.45.7l1.33 1.3c.184.164.46-.087.285-.267l-1.5-1.437c-.406-.36-.87-.675-1.43-.662-.623.01-1.194.347-1.74.62l-1.925.985c-.12.043-.03.188.082.153z"/><path d="M43.158 17.596c.07.262.26.497.378.738a4.8 4.8 0 0 1 .332.926 4.45 4.45 0 0 1 .047 1.91c-.133.666-.445 1.278-.717 1.892l-.953 2.097c-.102.233.28.348.383.115l.988-2.2c.298-.668.604-1.336.715-2.066.092-.636.043-1.3-.133-1.92-.085-.302-.2-.598-.34-.88-.134-.25-.304-.57-.552-.72-.07-.034-.158.026-.145.106z"/><path d="M42.214 22.997c-.427.743-.362 1.644-.28 2.467l.103 1.4c-.001.497-.08.983-.183 1.468l-.315 1.4c-.1.438-.127.99-.477 1.31l-.943.852a7.18 7.18 0 0 0-.784 1.038c-.142.232.22.465.363.225.242-.394.514-.764.84-1.1.302-.305.688-.545.96-.867.263-.315.308-.74.392-1.122l.316-1.456c.188-.9.24-1.766.144-2.684-.102-.965-.23-1.884.078-2.828.052-.132-.15-.226-.217-.102z"/><path d="M40.634 31.39c-.347.47-.332 1.22-.4 1.777l-.27 2.167c-.214 1.46-.514 2.9-.9 4.33-.072.258.326.38.398.124a37.88 37.88 0 0 0 .856-4.166l.236-2.113.066-1.03c.027-.346.125-.666.183-1.003.027-.1-.104-.185-.18-.085z"/><path d="M28.474 34.305c.17 1.086.174 2.127-.035 3.208-.067.345-.105.785.235 1 .247.166.58.138.745-.117l-.367-.115c-.017.275-.104.51-.253.733-.042.07-.046.188.023.245.414.353.65.826.68 1.37.015.253.4.273.402.013a2.16 2.16 0 0 0-.789-1.658l.023.245a1.92 1.92 0 0 0 .315-.936c.015-.205-.267-.277-.367-.115-.108.17-.29-.096-.3-.19-.033-.2.03-.4.06-.59.06-.353.095-.706.114-1.06.023-.71-.04-1.42-.214-2.104-.05-.167-.296-.105-.27.07z"/><path d="M33.838 17.846c-.298-.294-.74-.466-1.114-.644-.388-.194-.782-.42-1.188-.56-.203-.07-.34.225-.153.342.386.24.83.414 1.242.6.357.17.744.387 1.145.432.08.003.13-.114.07-.17z"/><path d="M31.093 17.645c.11-.186.075-.352.002-.544-.043-.12-.118-.24-.106-.374.014-.18.175-.278.32-.352.642-.34 1.337-.594 1.994-.92.216-.103.038-.425-.178-.33l-1.17.537c-.328.155-.687.285-.978.496-.2.15-.36.367-.32.628.038.277.322.515.273.797-.02.102.122.138.164.06z"/><path d="M33.62 15.127c.457-.213.853-.53 1.39-.498.433.022.84.304.906.748.032.222.38.147.342-.083-.085-.523-.546-.878-1.056-.958-.588-.09-1.292.217-1.685.646-.073.07.01.2.105.145z"/><path d="M35.157 16.108a2.94 2.94 0 0 1 2.535-.586c.21.046.316-.258.105-.328-.952-.308-2.12.001-2.785.76-.098.1.032.238.145.155z"/><path d="M31.637 17.174c-.588.367-.886 1.28-.742 1.94.137.635.655 1.157 1.316 1.21.244.016.256-.362.013-.378-.543-.034-.944-.528-1.006-1.05-.037-.293.027-.6.13-.863.112-.272.285-.495.412-.76.026-.07-.066-.136-.123-.1z"/><path d="M31.932 20.62c1.035-.29 1.838-1.2 2.077-2.233.055-.227-.29-.333-.343-.106-.246.985-.91 1.72-1.806 2.163-.096.044-.03.204.073.176z"/><path d="M31.772 17.155c.324.216.698.354 1.055.516.35.154.964.403.853.896-.055.235.312.342.36.115.087-.47-.177-.858-.587-1.076-.224-.126-.482-.213-.723-.308-.288-.112-.576-.24-.88-.305-.094-.027-.17.105-.076.163z"/><path d="M32.727 17.833c.03-.165-.183-.187-.295-.128-.185.104-.18.404-.13.587a1.04 1.04 0 0 0 1.125.779c.222-.024.147-.38-.083-.35s-.447-.086-.583-.264a.65.65 0 0 1-.141-.273c-.014-.056-.027-.127-.026-.182l.002-.055c.04-.054.026-.086-.052-.096.012.12.163.084.182-.018z"/><path d="M32.666 17.523c-.292.022-.446.38-.29.62.098.153.315.003.202-.15-.083-.105.024-.252.128-.295.08-.037.053-.187-.042-.175z"/><path d="M42.186 16c.588-.138 1.16-.474 1.69-.756.522-.282 1.154-.56 1.578-.98.122-.122-.022-.285-.166-.226-.272.11-.514.3-.772.44l-.812.47c-.522.3-1.106.54-1.59.886-.073.053-.038.188.073.168z"/><path d="M44.99 14.4c.325.192.708.292 1.04.468s.65.384.94.623c.614.5 1.122 1.125 1.54 1.794.457.733.87 1.566.992 2.43.14.982-.097 1.976-.373 2.913a22.26 22.26 0 0 1-1.176 3.123c-.11.24.245.473.355.225.44-.947.82-1.92 1.13-2.92.3-.99.58-2.04.497-3.082-.07-.94-.46-1.83-.93-2.633-.425-.732-.954-1.42-1.6-1.977-.337-.295-.7-.552-1.094-.762-.38-.202-.854-.415-1.288-.4-.08.03-.13.146-.046.188z"/><path d="M43.847 18.936c.214-.032.368-.16.538-.282.12-.083.465-.237.496.017.018.182.295.136.31-.03.018-.29-.27-.443-.53-.428-.37.027-.565.39-.893.522-.128.043-.04.22.08.2z"/><path d="M44.548 18.478c1.118 1.007.934 2.507 1.054 3.875.064.68.207 1.363.614 1.928.415.574 1.04.965 1.4 1.592.134.233.495.04.37-.2-.35-.627-.96-1.018-1.4-1.584-.484-.63-.567-1.454-.612-2.22-.07-1.2-.07-2.888-1.302-3.544-.084-.066-.215.064-.123.154z"/><path d="M47.477 25.98c.02.143.182.21.3.183.135-.035.258-.173.208-.324-.03-.08-.106-.138-.194-.1s-.114.122-.078.2c0-.008-.007-.032-.008-.008-.006-.047-.008 0 .001-.024.001-.032-.008.015 0-.016s0 .016.008-.008c-.024.015 0-.008 0-.008-.04.007.008 0-.008.008-.008 0-.024.007-.032.007-.016.007-.024-.001.008 0l-.03-.001c-.024.007.03.01.03.01.023.024 0-.008.007.016-.043-.135-.234-.087-.215.056z"/><path d="M43.897 16.974c.284-.26.508-.582.868-.736.328-.14.776-.1.954.245.104.2.417.03.305-.163-.215-.4-.69-.56-1.128-.463-.5.1-.918.57-1.153 1.002-.043.093.072.2.154.116z"/><path d="M30.74 17.144c-.45.498-.647 1.2-.763 1.85-.117.682-.126 1.423.04 2.1.063.246.42.156.38-.1-.105-.642-.147-1.274-.055-1.918s.356-1.226.527-1.85c.026-.086-.073-.16-.13-.09z"/><path d="M34.392 14.466a7.27 7.27 0 0 1-.889-1.015c-.136-.194-.464-.03-.33.178.262.41.628.794 1.054 1.036.124.067.27-.094.164-.2z"/><path d="M33.512 13.42c-.497-.237-1.01.06-1.408.363-.542.4-1.06.84-1.542 1.313-.4.39-.713.812-.794 1.37-.1.65.066 1.32-.057 1.96-.048.25.335.374.383.115.096-.517.042-1.03.044-1.552-.004-.59.16-1.06.578-1.487.376-.4.8-.754 1.21-1.095.454-.38.917-.8 1.54-.8.08-.005.147-.145.046-.188z"/><path d="M30.324 20.868l-8.49 9.416-2.463 2.686c-.18.19.102.492.282.3l8.556-9.525 2.29-2.74c.074-.1-.087-.232-.177-.14z"/><path d="M20.143 34.194c.037-.393-.3-.72-.65-.834-.468-.157-.994.014-1.426.205-.792.352-1.536 1.132-1.15 2.06.197.472.604.8 1.062 1.013a4.1 4.1 0 0 0 .678.243c.258.08.538.183.815.153.253-.023.455-.174.657-.31l.8-.5c.37-.248.744-.567.72-1.056-.022-.53-.463-1-.864-1.298-.44-.322-.962-.48-1.508-.405-.246.04-.156.413.1.382.475-.063.942.126 1.303.43.33.28.785.8.487 1.238-.14.2-.374.334-.575.462l-.628.405c-.274.18-.468.308-.804.226a6.88 6.88 0 0 1-.687-.204c-.46-.157-.917-.4-1.155-.85-.222-.433-.105-.887.23-1.222.562-.55 2.082-1.208 2.457-.13.036.104.146.1.158.005z"/><path d="M20.66 35.97c1.42.016 2.864-.283 4.23-.632 1.392-.356 2.748-.83 4.06-1.41 2.65-1.174 5.107-2.78 7.238-4.743a25.7 25.7 0 0 0 3.25-3.622c.157-.216-.2-.44-.355-.225-3.385 4.58-8.314 7.924-13.782 9.485-1.536.438-3.105.654-4.668.95-.11.02-.086.202.025.198z"/><path d="M37.983 25.506c.277-.046.59-.004.856.09.1.035.768.38.574.516-.178.128.058.38.236.252.38-.287-.062-.735-.333-.894a1.6 1.6 0 0 0-1.376-.133c-.11.036-.07.187.042.167z"/><path d="M29.175 40.258c-.35-.106-.822.067-.906.46-.102.454.33.79.728.868.62.107 1.324.012 1.948-.03l1.954-.195 3.933-.666c1.12-.223 2.37-.394 3.31-1.104.388-.295.777-.834.477-1.317-.2-.338-.724-.52-1.02-.184-.164.192.08.468.274.293.114-.107.26-.04.353.06.137.154.075.365-.033.52-.233.355-.697.576-1.08.73-.83.343-1.758.478-2.64.654-1.905.378-3.832.71-5.776.833-.498.03-1.036.1-1.53.052-.22-.023-.71-.205-.526-.53.1-.17.4-.2.562-.305.04-.03.035-.117-.027-.135z"/><path d="M39.657 37.807c.874.03 1.02.846 1.036 1.556l.034 1.113c.012.355.078.752.026 1.105-.05.36-.496.465-.792.58l-1.1.428-2.072.664c-1.433.402-2.893.692-4.365.864l-2.22.17c-.505.023-1.065.02-1.53-.224-.744-.403-.26-1.176-.216-1.813.022-.417-.082-.862.026-1.27.08-.313.37-.682.73-.583.25.07.365-.303.123-.4-.663-.22-1.197.425-1.288 1.03-.07.455.04.916-.03 1.38-.06.392-.238.757-.18 1.16.204 1.458 2.453 1.154 3.442 1.076 1.794-.137 3.57-.433 5.313-.904l2.566-.822 1.255-.502c.32-.14.64-.286.73-.654.11-.446.01-.985-.007-1.443l-.07-1.43c-.05-.396-.186-.803-.493-1.065-.27-.222-.612-.343-.925-.157-.064.03-.044.125.02.127z"/><path d="M40.294 39.5c-.644.39-1.218.843-1.914 1.143-.712.315-1.484.51-2.25.58-.222.024-.233.363-.012.347.815-.075 1.594-.27 2.338-.593.704-.308 1.483-.73 1.96-1.346.058-.07-.05-.175-.122-.13z"/><path d="M29.118 44.364c-.127.264-.122.572-.14.855l-.05 1.04c-.014.67.026 1.34.13 2 .112.666.352 1.28.543 1.926.178.59.256 1.3-.217 1.783-.18.175.087.468.267.285 1.027-1 .183-2.422-.103-3.536-.18-.716-.25-1.45-.267-2.185l-.01-1.09c.003-.34.064-.73-.044-1.05-.014-.048-.084-.082-.1-.027z"/><path d="M39.713 42.516c-.132.634-.1 1.305-.128 1.95l-.113 1.975-.455 3.96c-.424 2.572-1.132 5.127-2.236 7.495-.628 1.35-1.39 2.643-2.265 3.852-.165.23.205.464.37.233 3.164-4.342 4.555-9.65 4.944-14.95.057-.755.1-1.51.1-2.268.01-.733.074-1.527-.083-2.242-.014-.063-.116-.075-.134-.004z"/><path d="M28.553 44.518l-.62.84-.55.88L26.3 48.03l-2.036 3.378-4.36 6.636-2.775 3.55c-.18.207.117.524.297.317 3.455-4.08 6.272-8.662 8.972-13.264l1.18-2.027.595-1.045c.184-.333.33-.66.475-1.01.026-.062-.06-.09-.093-.05z"/><path d="M26.367 56.927c-.357.296-.63.728-.92 1.09l-.923 1.2c-.14.2.17.376.31.192l.884-1.216c.273-.377.6-.753.772-1.18.05-.077-.067-.128-.123-.083z"/><path d="M26.3 59.125c-.25-.757-1.47.125-1.808.318l-2.98 1.644c-1.687.937-3.584 1.79-4.856 3.292-.156.184.103.47.26.277 1.14-1.318 2.743-2.1 4.237-2.934l2.53-1.422 1.262-.715c.177-.104.978-.71 1.172-.38.052.088.22.04.184-.08z"/><path d="M26.117 58.74c.055.002.058-.085.003-.087-.055.006-.058.085-.003.087z"/><path d="M26.327 58.37c-.164.184-.267.433-.392.64l-.472.686c-.107.146.115.335.246.205.082-.084.17-.16.276-.227.13-.082.264-.102.178.116-.07.18-.305.384-.428.53l-.888 1.1c-.14.17.106.358.267.285.304-.14.652.07.817.335.195.306.213.7.225 1.056.03.766.043 1.547-.218 2.28-.095.265.318.397.414.132.182-.507.24-1.04.242-1.577.008-.473.008-.962-.07-1.43-.125-.738-.793-1.532-1.602-1.14l.266.285.8-1.022c.198-.254.547-.565.598-.903.03-.204-.08-.428-.29-.483-.297-.073-.623.247-.795.447l.245.205c.166-.247.316-.494.45-.758.11-.21.25-.44.283-.677-.005-.087-.106-.13-.147-.076z"/><path d="M15.606 64.69c-.664.285-1.077.863-1.467 1.45l-1.432 2.27c-.916 1.46-1.8 2.88-2.1 4.598-.048.26.35.4.398.124.137-.808.392-1.588.755-2.325.37-.737.82-1.44 1.254-2.142l1.342-2.187c.367-.61.76-1.236 1.348-1.666.072-.045-.018-.158-.098-.12z"/><path d="M34.552 62.12c-.704.544-8.39 10.957-9.01 11.6l-3.754 3.8-2.75 2.763.3.01-.454-.567c-.098-.122-.32-.066-.357.083-.072.258-.244.473-.5.56.085.05.17.108.255.158l-.312-1.06c-.043-.135-.183-.203-.31-.136-.68.34-1.39.766-1.913 1.332-.13.138.033.427.21.29.622-.444 1.213-.906 1.902-1.246l-.31-.136.312 1.06c.028.103.143.194.255.158.4-.137.7-.434.81-.848l-.358.083.454.567c.068.09.226.086.3.01 2.545-2.55 5.12-5.09 7.558-7.744.262-.283 7.604-10.29 7.812-10.614.075-.108-.056-.2-.138-.13z"/><path d="M35.335 60.387c-.31.06-.507.56-.658.806-.125.21-.395.507-.396.76.003.142.142.233.27.167.225-.12.363-.493.488-.7.15-.247.503-.654.418-.964-.022-.048-.068-.08-.124-.067z"/><path d="M-23.654 80.42c5.163-.183 10.33-.303 15.496-.313 5.173-.01 10.342.075 15.51.2l4.364.113c1.457.04 2.913.12 4.365.098.237 0 .256-.354.012-.37-1.306-.09-2.615-.095-3.922-.13l-3.86-.097-7.73-.154c-5.17-.077-10.342-.09-15.5.03a190.02 190.02 0 0 0-8.734.404c-.127.012-.142.232.008.22z"/><path d="M25.704 65.24c-.146.12-.255.315-.355.47l-.325.517c-.125.2.2.4.31.192l.295-.566c.085-.17.193-.356.223-.552.002-.07-.1-.098-.148-.06z"/><path d="M21.763 70.675c-2.318-.242-4.666.43-6.893.993l-7.095 1.633c-4.78.984-9.597 1.684-14.442 2.272-4.568.55-9.193 1.153-13.535 2.752-1.932.71-3.8 1.61-5.508 2.758-1.67 1.12-3.1 2.483-4.437 3.984-1.262 1.433-2.455 2.938-3.847 4.248-1.498 1.417-3.205 2.472-5.216 2.98-.55.14-1.112.24-1.666.323-.277.038-.173.46.104.42 2.092-.31 4.038-.993 5.737-2.27 1.52-1.14 2.775-2.59 4.005-4.022 1.255-1.464 2.518-2.936 4.018-4.164 1.613-1.326 3.438-2.377 5.35-3.213 4.177-1.832 8.712-2.58 13.21-3.157l7.198-.92c2.385-.34 4.763-.74 7.136-1.198 2.388-.457 4.763-.977 7.124-1.545 2.305-.554 4.592-1.275 6.958-1.527.6-.06 1.2-.094 1.81-.113.15.013.157-.216-.008-.237z"/><path d="M-40.683 92.698c-.322-.523-.745-1.066-.795-1.698-.057-.664.353-1.368.7-1.908.722-1.088 1.908-1.884 3.252-1.776.252.016.265-.377.013-.394-1.502-.113-2.833.78-3.623 2-.382.587-.786 1.338-.73 2.065.063.712.508 1.334.98 1.838.1.098.27-.015.194-.128z"/><path d="M-41.322 90.57c-.342-.634-.658-1.323-.832-2.022-.196-.756.07-1.362.676-1.83 1.14-.885 2.703-1.132 4.04-1.56.24-.08.157-.444-.1-.38l-2.493.76c-.686.245-1.39.56-1.936 1.063-.52.495-.763 1.126-.62 1.84.163.802.587 1.565 1.045 2.235.083.12.275.025.208-.103z"/><path d="M-41.96 86.537c.22-2.374 2.82-3.273 4.756-3.855 2.238-.667 4.403-1.533 6.54-2.48l6.475-2.907c2.215-.944 4.49-1.743 6.798-2.423 4.602-1.353 9.317-2.293 13.982-3.4l3.49-.877c1.114-.302 2.243-.596 3.32-1.01 1.038-.4 1.986-.927 2.83-1.648.884-.743 1.685-1.584 2.538-2.36a72.86 72.86 0 0 1 11.119-8.343l1.496-.89c.225-.134.032-.496-.193-.36-4.052 2.34-7.872 5.07-11.404 8.137a83.06 83.06 0 0 0-2.61 2.389c-.863.823-1.718 1.63-2.777 2.194-1.043.55-2.174.882-3.304 1.2a102.04 102.04 0 0 1-3.484.909c-4.714 1.16-9.492 2.1-14.164 3.41-2.3.65-4.564 1.394-6.778 2.298-2.23.904-4.4 1.943-6.586 2.927-2.2 1-4.433 1.95-6.743 2.67-1.928.598-4.288 1.143-5.27 3.137a3.3 3.3 0 0 0-.342 1.282c-.006.19.293.2.307.002z"/><path d="M5.316 68.253c-.725.686-1.258 1.543-1.68 2.436-.102.225.208.37.31.144.385-.894.94-1.68 1.54-2.44.082-.092-.08-.223-.17-.14z"/><path d="M-26.123 77.593l-6.94 1.457-3.627.47-3.242.263c-1.13.12-2.267.374-3.242.988-.225.142-.033.51.2.37 1.804-1.146 4.126-1.006 6.167-1.207 2.318-.23 4.624-.588 6.896-1.104 1.295-.296 2.576-.64 3.83-1.087.08-.037.053-.172-.042-.15z"/><path d="M-42.267 86.038c-1.145.057-2.265.067-3.382-.254-.47-.134-.966-.347-1.228-.782-.284-.475-.302-1.13-.276-1.673.017-.26-.001-.694.188-.9.13-.153.4-.223.593-.28.406-.12.833-.146 1.25-.093a3.13 3.13 0 0 1 2.143 1.254c.128.178.45-.048.315-.226-.92-1.292-2.715-1.817-4.187-1.188-.424.183-.6.438-.66.885a5 5 0 0 0 .002 1.609c.072.444.23.875.568 1.178.314.286.718.458 1.124.573 1.125.32 2.422.435 3.56.118.135-.035.126-.225-.008-.22z"/><path d="M-45.373 81.968c-.19-.472.288-.85.7-.915.475-.07.982.096 1.435.237.897.282 1.75.705 2.463 1.328.176.156.453-.095.27-.25-.927-.803-2.077-1.33-3.275-1.59-.5-.11-1.082-.17-1.504.18-.325.273-.49.725-.28 1.1.074.13.244.024.192-.096z"/><path d="M12.87 61.604L3.713 63.13c-3.003.452-6.043.81-9.07.33-5.483-.86-11.192-3.928-16.766-1.8-2.5.95-4.494 2.83-6.963 3.837-2.6 1.057-5.415 1.38-8.177 1.668-2.754.287-5.75.558-8.328-.663-.512-.246-1-.585-1.577-.478-.627.113-1.224.535-1.8.8a24.35 24.35 0 0 1-3.918 1.392c-2.68.707-5.473.97-8.24.76-1.274-.097-2.512-.344-3.775-.527-1.09-.155-2.263-.25-3.316.126-.463.166-.873.42-1.232.763-.203.2.094.508.297.317 1.775-1.69 4.69-.625 6.8-.366 2.67.333 5.394.226 8.036-.293a24.95 24.95 0 0 0 3.852-1.086c.623-.232 1.23-.487 1.84-.76.608-.28 1.36-.87 2.056-.65.312.097.613.304.916.44.31.144.622.265.942.37.6.193 1.22.324 1.84.408 1.35.18 2.732.138 4.09.033 2.704-.218 5.472-.49 8.084-1.238a16.58 16.58 0 0 0 3.678-1.541c1.15-.664 2.224-1.44 3.373-2.096 1.213-.685 2.49-1.17 3.877-1.37 1.38-.2 2.788-.144 4.162.044 2.928.39 5.717 1.404 8.6 2.036 1.417.307 2.86.513 4.31.545 1.474.025 2.936-.1 4.393-.288 3.025-.38 6.038-.91 9.038-1.5l2.207-.455c.175-.057.113-.32-.06-.286z"/><path d="M-11.468 67.956c-1.72-.436-3.547-.283-5.27.07-1.818.365-3.58.97-5.35 1.533-1.777.564-3.577 1.095-5.43 1.318-2.026.24-4.087.085-6.104-.187l-6.1-.983c-2.064-.297-4.133-.437-6.21-.293-2.095.15-4.172.508-6.242.865l-2.955.66c-.892.27-1.748.652-2.583 1.08-1.7.9-3.322 1.98-5.163 2.572-1.873.6-3.888.746-5.825.406a12.23 12.23 0 0 1-1.408-.338c-.265-.08-.398.334-.132.413a12.71 12.71 0 0 0 5.649.377c1.9-.307 3.617-1.118 5.288-2.064l2.52-1.35c.913-.427 1.862-.742 2.84-.97l3-.555 3.162-.478c2.114-.26 4.213-.317 6.335-.105 2.05.2 4.08.6 6.12.936 2.016.327 4.057.6 6.1.55 1.91-.04 3.767-.42 5.598-.95 3.51-1.02 7.024-2.574 10.763-2.37.45.023.904.07 1.352.132.157.02.197-.23.056-.266z"/><path d="M-69.912 75.122c-.294-1.12.35-2.267 1.286-2.883 1.072-.706 2.424-.818 3.665-.92.253-.023.266-.417.013-.394-1.384.12-2.886.25-4.027 1.112-.93.702-1.603 1.973-1.17 3.14.05.144.273.096.23-.055z"/><path d="M-69.613 73.263c-.232-.623-.597-1.266-.36-1.944.227-.678 1.135-.948 1.757-1.14a6.69 6.69 0 0 1 2.02-.288c.71.008 1.375.148 2.063.33.235.063.332-.273.114-.35-1.456-.56-3.242-.447-4.687.09-.647.24-1.4.537-1.603 1.256-.22.726.09 1.525.473 2.137.067.113.274.05.224-.087z"/><path d="M-70.002 70.963c-.045-.538.168-1.035.6-1.368.162-.13-.06-.365-.22-.236a1.79 1.79 0 0 0-.63 1.635c.02.143.28.12.26-.03z"/><path d="M-19.487 68.903c.695.425 1.63.543 2.422.672l2.707.397c1.678.292 3.316.804 4.862 1.5.9.408 1.736.917 2.595 1.403.2.117.376-.17.19-.3-1.37-.992-3.026-1.7-4.633-2.235-1.66-.552-3.364-.806-5.09-1.028l-1.56-.25-1.447-.34c-.087.005-.115.13-.045.172z"/><path d="M-15 67.972c1.194.142 2.36-.095 3.398-.7.177-.105.03-.393-.156-.28a5.49 5.49 0 0 1-3.234.76c-.142-.005-.15.208-.007.22z"/><path d="M-14.21 61.28c.07.002.075-.116.004-.118-.07.006-.075.116-.004.118z"/><path d="M-14.695 61.13c-1.398.072-1.77-1.54-1.87-2.617a22.04 22.04 0 0 1-.072-3.306c.112-2.172.555-4.365 1.488-6.345a12.42 12.42 0 0 1 2.05-3.094c.147-.16-.025-.442-.234-.323-1.936 1.07-3.3 2.903-4.168 4.892-.512 1.166-.876 2.392-1.17 3.628l-.695 3.604c-.155 1.35-.098 2.717.396 3.995.094.248.464.047.37-.2-.857-2.213-.278-4.693.238-6.915.516-2.23 1.22-4.47 2.607-6.324.7-.94 1.58-1.753 2.608-2.326l-.234-.323c-3.225 3.55-4.098 8.726-3.535 13.366.08.673.238 1.388.693 1.923.395.463.946.725 1.556.643.158-.018.128-.288-.03-.277z"/><path d="M-14.367 52.2c.235-.89.56-1.7 1.168-2.406a5.33 5.33 0 0 1 2.187-1.52c.208-.08.14-.42-.083-.35-1.777.564-3.365 2.332-3.492 4.244-.004.126.192.156.22.03z"/><path d="M-18.146 47.746c.625-1.24 1.55-2.25 2.762-2.928.177-.097.028-.377-.156-.28-1.253.676-2.283 1.793-2.8 3.124-.043.11.143.194.194.085z"/><path d="M-21.175 51.832c-.253-1.877-.026-3.73.7-5.48.086-.202-.242-.3-.328-.105-.768 1.75-1.008 3.767-.637 5.64.034.167.28.104.254-.055z"/><path d="M-27.946 65.067l-3.313.52-3.393.33a43.79 43.79 0 0 1-6.588-.108l-3.376-.443-1.622-.314c-.517-.112-1.048-.263-1.578-.202-.475.063-.916.277-1.377.388a6.08 6.08 0 0 1-1.197.181c-.814.044-1.638-.054-2.42-.285-1.765-.524-3.334-1.695-4.22-3.318-.126-.233-.487-.04-.36.193 1.583 2.89 5.23 4.447 8.412 3.59.51-.133.99-.393 1.526-.367.598.028 1.2.22 1.78.335l3.365.522c2.254.256 4.53.34 6.804.242l3.812-.34c1.283-.17 2.567-.38 3.802-.757.096-.028.053-.187-.058-.167z"/><path d="M-52.057 67.9c-2.922.613-5.764-.72-8.214-2.19-1.013-.61-2.085-1.315-2.69-2.36-.275-.5-.514-1.152-.345-1.715.106-.35.427-.506.732-.67.297-.164.602-.303.934-.355.39-.066.756.017.998.35.242.323.394.73.57 1.09l1.22 2.46c.11.225.448.04.337-.186l-1.233-2.517c-.3-.633-.576-1.423-1.36-1.56-.658-.117-1.356.23-1.91.56-.61.366-.802.88-.7 1.577.2 1.347 1.262 2.344 2.318 3.08a20.23 20.23 0 0 0 4.114 2.195c1.673.655 3.515.984 5.275.475.144-.058.096-.273-.047-.238z"/><path d="M-60.253 61.124c.658.116 1.048.72 1.394 1.237l1.123 1.796c.12.193.424.038.313-.17-.378-.73-.844-1.424-1.326-2.094-.362-.5-.802-1.012-1.454-1.08-.173-.014-.222.284-.05.314z"/><path d="M-58.994 61.67c.785.097 1.51.38 1.968 1.06.143.2.433.007.283-.203-.505-.703-1.395-1.205-2.274-1.085-.135.02-.094.218.024.23z"/><path d="M-16.23 61.032c.058-.085.13-.146.204-.214.106-.1-.047-.254-.152-.163a.75.75 0 0 0-.198.277c-.05.11.08.2.147.1z"/><path d="M-16.407 60.908c.16-.074.282-.18.38-.326.083-.123-.103-.232-.193-.125a1.15 1.15 0 0 1-.285.267c-.113.075-.024.236.096.184z"/><path d="M-16.735 60.826c.2-.127.427-.27.567-.47.09-.13-.094-.255-.2-.164-.09.068-.163.152-.244.228s-.17.144-.26.212c-.113.083.023.27.136.194z"/><path d="M-16.912 60.686c.216-.095.434-.254.56-.455.075-.124-.093-.28-.2-.164a1.75 1.75 0 0 1-.486.378c-.168.065-.034.314.126.24z"/><path d="M-17.078 60.46c.113-.067.21-.166.308-.25l.3-.282c.114-.114-.046-.27-.168-.18-.113.083-.21.174-.317.273-.098.09-.203.175-.285.274-.066.092.064.223.16.163z"/><path d="M-17.185 60.117c.233-.134.5-.276.67-.475.1-.092-.014-.276-.143-.194l-.653.444c-.145.082-.026.307.127.225z"/><path d="M-17.337 59.734c.208-.096.386-.232.526-.408.082-.108-.094-.255-.184-.156-.13.145-.285.267-.46.347-.144.058-.025.283.12.217z"/><path d="M-17.315 59.3c.232-.095.434-.26.56-.486.083-.14-.117-.264-.21-.133-.116.177-.278.306-.47.386-.152.074-.033.298.12.233z"/><path d="M-17.453 58.95a3.53 3.53 0 0 0 .662-.459c.098-.09-.023-.27-.143-.194l-.645.428c-.145.082-.026.314.127.225z"/><path d="M-17.52 58.592c.27-.086.538-.305.742-.504.122-.122-.052-.317-.183-.195-.106.1-.21.2-.332.273l-.338.217c-.1.084.008.245.11.21z"/><path d="M-17.603 58.22l.727-.528c.12-.1-.03-.3-.158-.218l-.76.542c-.146.106.045.3.2.203z"/><path d="M-17.674 57.767c.265-.14.53-.314.743-.535.122-.122-.046-.293-.183-.195l-.694.482c-.16.09-.027.33.134.25z"/><path d="M-17.628 57.312l.64-.49c.113-.09-.03-.3-.15-.2l-.687.498c-.137.106.053.317.198.204z"/><path d="M-17.54 56.85l.632-.507c.106-.1-.022-.292-.15-.2-.242.15-.453.332-.68.506-.146.113.052.325.198.212z"/><path d="M-17.566 56.407a3.15 3.15 0 0 0 .689-.561c.107-.123-.053-.317-.183-.195-.196.19-.406.365-.64.507-.153.097-.02.346.134.25z"/><path d="M-17.52 55.975c.24-.15.476-.33.626-.578.075-.116-.094-.263-.192-.156-.18.183-.35.35-.568.478-.16.097-.02.354.134.257z"/><path d="M-17.37 55.238c.19-.057.36-.17.46-.34.075-.116-.1-.28-.192-.164-.1.107-.203.2-.33.233-.175.04-.113.32.062.27z"/><path d="M-17.5 54.903c.265-.14.508-.33.758-.495.137-.1.01-.315-.12-.225l-.767.534c-.105.083.015.245.128.186z"/><path d="M-17.15 54.308a1.57 1.57 0 0 0 .471-.41c.09-.123-.1-.28-.207-.172a2.07 2.07 0 0 1-.398.342c-.137.1-.02.33.134.24z"/><path d="M-17.26 53.854a3.63 3.63 0 0 0 .742-.504c.13-.114-.046-.293-.175-.187-.22.174-.445.332-.686.458-.16.074-.034.306.12.233z"/><path d="M-17.223 53.438c.294-.077.586-.304.782-.526.115-.13-.053-.317-.183-.195-.098.1-.203.2-.317.273s-.25.15-.363.232c-.105.075-.056.25.08.215z"/><path d="M-17.065 52.97c.264-.102.482-.268.655-.49.09-.123-.1-.28-.207-.172-.155.168-.334.312-.55.392-.192.072-.098.344.1.27z"/><path d="M-17.025 52.467c.255-.07.472-.213.63-.43.09-.123-.1-.287-.207-.172a1 1 0 0 1-.492.323c-.175.04-.105.328.07.278z"/><path d="M-16.85 51.913c.184-.08.36-.185.515-.322.138-.122-.053-.31-.2-.203-.145.106-.29.203-.458.27-.072.03-.09.13-.062.195.045.072.123.09.195.062z"/><path d="M-16.597 50.967a.6.6 0 0 0 .562-.289c.067-.116-.094-.27-.192-.156-.1.107-.21.174-.36.162-.19-.014-.198.27-.01.284z"/><path d="M-16.524 50.685a1.17 1.17 0 0 0 .532-.353c.09-.115-.087-.24-.192-.156-.122.1-.25.197-.403.255-.064.03-.113.083-.1.162.014.063.09.12.163.092z"/><path d="M-16.698 51.413a1.05 1.05 0 0 0 .314-.21c.04-.046.06-.116.014-.173-.038-.05-.116-.075-.164-.037-.097.068-.186.128-.297.17-.072.03-.09.13-.054.195.03.072.116.083.187.054z"/><path d="M-16.246 50.127l.482-.268c.145-.1.026-.314-.126-.233l-.482.276c-.145.082-.026.307.127.225z"/><path d="M-16.17 49.727a2.9 2.9 0 0 0 .603-.358c.12-.09-.03-.3-.158-.218l-.586.328c-.152.074-.02.323.142.25z"/><path d="M-15.968 49.348c.215-.08.432-.19.595-.36.1-.1-.014-.284-.143-.202-.17.105-.33.2-.522.282-.175.057-.106.343.07.278z"/><path d="M-15.633 48.775c.143-.02.28-.085.377-.192.122-.122-.053-.3-.183-.195-.08.06-.16.097-.264.1-.08.013-.122.106-.108.17.02.08.1.114.178.108z"/><path d="M-15.597 48.398a1.2 1.2 0 0 0 .506-.291c.114-.114-.046-.27-.168-.18-.13.098-.282.18-.434.246-.12.05-.04.267.095.224z"/><path d="M-14.977 47.764c.03.001.063-.006.095-.005.07-.006.144-.058.146-.137.003-.087-.06-.136-.137-.147-.03-.001-.063-.01-.094-.01-.08-.01-.16.073-.155.145-.002.07.066.16.145.155z"/><path d="M1.64 74.714c.025-.03.04-.062.066-.093.033-.054.012-.134-.042-.167-.062-.04-.126-.012-.167.042l-.074.092c-.04.054-.013.142.04.175.062.026.134.012.175-.05z"/><path d="M1.25 74.56c-.024.007-.04.014-.064.03-.072.03-.09.13-.054.195s.123.09.195.054c.024-.007.04-.022.064-.03.064-.03.09-.123.054-.187-.045-.08-.123-.1-.195-.062z"/><path d="M-23.298 79.902c-.107.138-.184.317-.166.5.01.134.217.118.244.008l.046-.21a1.54 1.54 0 0 1 .07-.203c.025-.054-.012-.11-.06-.136-.047-.017-.095.005-.135.043z"/><path d="M-22.89 79.71c.025.2-.036.37-.166.5-.114.107.053.286.168.18.188-.19.275-.456.213-.726-.035-.143-.234-.087-.214.048z"/><path d="M-22.273 79.432l-.32.81c-.06.164.19.235.258.08l.32-.81c.053-.164-.197-.235-.258-.08z"/><path d="M-21.918 79.2a10.81 10.81 0 0 1-.429 1.05c-.06.132.166.234.225.102.177-.35.308-.715.422-1.082.052-.148-.174-.21-.218-.07z"/><path d="M-21.53 79.165L-22 80.3c-.044.133.158.234.225.102.186-.38.333-.777.496-1.166.052-.148-.182-.21-.242-.07z"/><path d="M-20.937 78.61c-.215.3-.416.648-.515 1.016-.044.148.166.2.226.07.145-.334.3-.653.48-.962.083-.123-.1-.24-.193-.125z"/><path d="M-20.664 78.697c-.025.267-.118.477-.252.7-.067.116.094.263.184.156.205-.23.302-.542.312-.85.005-.165-.23-.165-.244-.008z"/><path d="M-20.303 78.504c-.03.228-.116.422-.226.63-.06.116.094.27.192.156.18-.223.27-.496.302-.778.02-.173-.246-.182-.268-.01z"/><path d="M-19.827 78.433c.01.134-.047.243-.106.35-.067.116.07.223.176.148.146-.12.21-.34.19-.522-.017-.2-.278-.167-.26.023z"/><path d="M-19.277 78.246a.61.61 0 0 1-.072.266c-.067.132.103.232.193.117a.6.6 0 0 0 .123-.382c-.003-.142-.24-.158-.244 0z"/><path d="M-18.77 77.987c-.027.11-.07.218-.144.31-.066.092.072.2.154.123a.65.65 0 0 0 .21-.395c.02-.126-.192-.156-.22-.04z"/><path d="M-18.214 77.816l-.135.27c-.05.117.128.186.186.085l.142-.24c.033-.054.02-.126-.034-.16-.054-.026-.134-.012-.16.042z"/><path d="M-17.704 77.652c-.043.093-.078.194-.112.288-.043.117.143.2.202.093.05-.1.094-.2.137-.31.026-.062-.02-.127-.074-.144-.07-.026-.127.012-.152.074z"/><path d="M-17.408 77.527a.38.38 0 0 1-.061.187c-.066.1.08.23.17.14.082-.092.133-.193.13-.32.005-.15-.223-.157-.236-.008z"/><path d="M-16.796 77.4l-.07.2c-.018.055.012.12.066.144.047.025.126.012.15-.042l.095-.233c.026-.062-.02-.143-.08-.16-.07-.018-.135.02-.16.08z"/><path d="M-16.413 77.237l-.015.204a.13.13 0 0 0 .122.13.13.13 0 0 0 .13-.122l-.001-.205c.002-.063-.05-.12-.114-.122-.063-.01-.12.043-.122.114z"/><path d="M-42.372 88.96v.008l.05-.11c.016 0 .04-.007.056-.006l.075.105c-.017.03-.008.015.033-.038.025-.04.042-.078.067-.108l.117-.193.235-.426c.084-.163-.155-.313-.24-.15-.11.186-.202.38-.295.574-.05.11-.175.27-.108.4.022.048.07.057.117.05.04-.006.064-.03.08-.06.025-.04.02-.086-.012-.127l-.008-.008c-.07-.065-.205-.007-.17.09z"/><path d="M-41.995 89.232l.627-1.32c.068-.148-.188-.266-.264-.12l-.612 1.328c-.06.14.18.25.25.11z"/><path d="M-41.813 89.45l.97-1.624c.1-.17-.162-.337-.263-.166l-.938 1.64c-.092.163.14.304.232.15z"/><path d="M-41.52 89.642l1.128-1.926c.092-.17-.162-.337-.263-.166l-1.1 1.95c-.076.147.14.28.224.14z"/><path d="M-41.287 89.997l1.23-2.16c.092-.162-.147-.312-.24-.15l-1.223 2.16c-.092.163.147.312.232.15z"/><path d="M-40.392 88.67l.9-1.216c.108-.154-.132-.296-.24-.15l-.884 1.224c-.1.146.117.272.224.14z"/><path d="M-39.634 87.946l.52-.653c.098-.115-.1-.27-.2-.164-.204.206-.377.437-.55.676-.1.147.133.28.232.142z"/><path d="M-38.963 87.448c.088-.052.162-.12.22-.206.04-.062.02-.165-.05-.2-.07-.042-.157-.02-.2.05l-.025.046c-.008.008-.008.016-.017.023-.016.015-.024.023-.033.038-.008 0-.048.03-.024.015-.056.037-.1.123-.053.187.03.048.115.083.18.045z"/><path d="M-42.05 86.376a5.35 5.35 0 0 0 .65-.814c.1-.154-.124-.288-.232-.15l-.602.808c-.083.115.086.255.184.156z"/><path d="M-42.018 86.85l1.153-1.483c.116-.154-.132-.304-.247-.158l-1.146 1.492c-.115.138.125.288.24.15z"/><path d="M-41.595 86.675c.474-.513.902-1.05 1.338-1.603.124-.162-.154-.344-.27-.174-.38.547-.824 1.06-1.274 1.55-.13.145.074.373.205.228z"/><path d="M-40.83 86.188a14.97 14.97 0 0 0 1.106-1.241c.107-.13-.123-.32-.23-.19l-1.073 1.218c-.13.138.06.35.198.212z"/><path d="M-40.127 85.935c.358-.327.693-.68.982-1.07.1-.13-.116-.31-.223-.18l-.957 1.04c-.138.122.06.333.198.212z"/><path d="M-39.486 85.625l.787-.896c.123-.146-.075-.365-.206-.22l-.787.89c-.14.145.074.373.205.228z"/><path d="M-38.968 85.46a3.08 3.08 0 0 0 .618-.579c.1-.123-.108-.295-.215-.18-.164.184-.343.35-.545.494-.065.045-.1.123-.062.203.03.072.138.115.203.062z"/><path d="M-38.46 85.32l.383-.366c.13-.13-.052-.333-.198-.212l-.4.358c-.146.13.06.35.205.22z"/><path d="M-37.84 85.16l.17-.152c.065-.06.07-.17.008-.236s-.17-.077-.236-.008l-.163.16c-.057.06-.07.17-.008.228.06.065.163.07.228.008z"/><path d="M-40.235 92.752c.124-.185.21-.41.304-.62.06-.14-.18-.25-.24-.11-.093.202-.203.42-.266.638-.05.124.127.21.202.094z"/><path d="M-39.956 92.65c.204-.198.332-.502.42-.767.053-.172-.197-.243-.265-.08-.095.25-.236.457-.346.7-.05.117.086.255.192.156z"/><path d="M-39.585 92.632c.32-.376.55-.857.76-1.3.085-.178-.178-.353-.27-.167l-.7 1.333c-.043.117.127.225.21.133z"/><path d="M-38.946 92.4l.945-1.624c.1-.178-.162-.337-.263-.166l-.945 1.624c-.116.178.154.344.263.166z"/><path d="M-38.224 92.243l1.034-1.685c.084-.17-.14-.312-.255-.158-.388.53-.707 1.12-1.05 1.676-.1.17.162.337.27.167z"/><path d="M-37.368 91.87c.422-.593.82-1.226 1.12-1.895.068-.155-.196-.275-.272-.127l-1.118 1.855c-.124.162.147.328.27.167z"/><path d="M-36.637 91.492c.462-.623.902-1.27 1.28-1.952.1-.186-.17-.353-.278-.175l-1.27 1.96c-.124.162.147.328.27.167z"/><path d="M-35.986 91.332l1.352-2.013c.11-.186-.17-.36-.278-.175l-1.344 2.013c-.132.17.146.344.27.174z"/><path d="M-35.38 90.918c.555-.565 1.006-1.315 1.39-1.996.11-.186-.17-.36-.278-.175l-.633 1.02-.68.987c-.075.124.093.27.2.164z"/><path d="M-34.43 90.067a10.39 10.39 0 0 0 1.07-1.36c.116-.177-.154-.344-.27-.174l-1.006 1.315c-.123.146.074.373.206.22z"/><path d="M-33.614 89.234c.284-.243.522-.535.675-.87.076-.163-.147-.32-.247-.158-.183.293-.39.563-.642.8-.147.137.06.357.213.228z"/><path d="M-32.82 88.41l.164-.184c.025-.03.05-.06.05-.11.001-.04-.013-.087-.044-.112-.06-.057-.163-.07-.22-.007l-.17.176c-.057.06-.076.163-.008.228.06.057.17.077.228.008z"/><path d="M-47.173 84.66c.033-.038.074-.084.1-.13.075-.108-.086-.247-.177-.148-.04.038-.074.084-.106.123-.033.046-.02.118.026.15.038.04.117.05.157.005z"/><path d="M-47.008 84.895c.172-.183.328-.383.47-.6.108-.162-.155-.328-.255-.158-.125.21-.258.402-.414.593-.09.115.1.27.2.164z"/><path d="M-46.978 85.203a7.38 7.38 0 0 0 .816-.832c.13-.153-.082-.38-.213-.228a9 9 0 0 1-.816.832c-.147.137.067.357.213.228z"/><path d="M-46.518 85.337c.316-.265.602-.57.858-.902.124-.162-.14-.32-.263-.166-.247.307-.508.6-.785.857-.14.137.052.333.2.21z"/><path d="M-46.187 85.584c.397-.326.764-.7 1.062-1.124.124-.17-.146-.336-.27-.175-.297.392-.624.744-1.005 1.063-.162.136.06.365.213.236z"/><path d="M-45.957 85.773l1.06-1.06c.14-.153-.074-.38-.22-.236l-1.06 1.07c-.14.137.075.357.22.228z"/><path d="M-45.48 85.923c.453-.332.86-.72 1.198-1.174.132-.17-.146-.344-.278-.175-.337.415-.712.788-1.133 1.12-.162.13.05.35.213.228z"/><path d="M-44.983 85.908a9.2 9.2 0 0 0 1.142-1.145c.123-.154-.082-.38-.213-.228-.345.414-.72.804-1.127 1.16-.138.122.06.333.198.212z"/><path d="M-44.562 86.032c.436-.317.813-.722 1.164-1.113.14-.16-.09-.405-.228-.244-.36.406-.76.763-1.142 1.145-.13.13.06.317.206.212z"/><path d="M-44.078 86.2c.47-.34.9-.727 1.277-1.164.14-.16-.08-.405-.228-.244a8.58 8.58 0 0 1-1.277 1.172c-.17.12.06.357.23.236z"/><path d="M-43.53 86.272l1.3-1.2c.147-.145-.066-.373-.22-.236l-1.3 1.2c-.155.145.066.38.22.236z"/><path d="M-42.896 86.214c.35-.32.66-.68.934-1.065.124-.177-.162-.352-.278-.175-.25.37-.544.707-.87 1.012a.16.16 0 0 0 .213.228z"/><path d="M-42.665 86.38c.144-.066.266-.172.38-.287.057-.06.068-.155.007-.22-.053-.057-.163-.07-.22-.007-.098.107-.21.2-.333.28-.057.045-.06.14-.014.19.037.064.115.083.18.045z"/><path d="M-45.258 82.06c.16-.058.306-.195.413-.317.106-.115-.053-.293-.167-.18-.122.114-.26.204-.373.31-.04.038-.05.11-.013.15.03.048.085.058.14.036z"/><path d="M-44.852 82.175l.565-.383c.113-.09-.023-.26-.143-.202a4.89 4.89 0 0 0-.555.328c-.16.097-.028.354.133.257z"/><path d="M-44.308 82.2l.382-.334c.057-.053.06-.148.007-.205-.06-.065-.148-.052-.205-.007l-.397.318c-.162.13.06.365.213.228z"/><path d="M-43.976 82.393c.177-.097.338-.217.477-.363.123-.13-.052-.325-.2-.204-.13.122-.268.228-.428.317-.153.1-.02.346.142.25z"/><path d="M-43.506 82.51c.208-.096.402-.223.572-.375.114-.107-.03-.324-.166-.226l-.533.37c-.145.1-.034.306.126.233z"/><path d="M-43.192 82.782c.265-.157.51-.377.714-.607.123-.138-.052-.325-.198-.212l-.682.592c-.098.115.03.308.166.226z"/><path d="M-42.898 82.942l.56-.478c.138-.13-.052-.325-.198-.212l-.568.47c-.146.13.06.34.206.22z"/><path d="M-42.85 83.377l.17-.12c.073-.053.07-.18.008-.244-.07-.065-.17-.07-.244-.008l-.162.13c-.065.053-.07.17-.008.236.07.065.164.06.236.008z"/><path d="M-42.067 81.652l.325-.28c.122-.106-.03-.324-.166-.234-.145.098-.26.212-.366.343-.04.054-.02.133.026.174.054.05.125.044.18-.002z"/><path d="M-41.8 81.914c.257-.15.516-.338.69-.576.1-.14-.1-.287-.223-.18-.203.167-.4.35-.616.492-.17.105-.028.37.15.265z"/><path d="M-41.368 81.99l.723-.63c.106-.107-.03-.324-.166-.234-.274.188-.526.408-.777.62-.17.144.058.38.22.244z"/><path d="M-40.95 82.194l.56-.502c.14-.137-.052-.333-.206-.22l-.584.477c-.154.137.066.38.23.244z"/><path d="M-40.713 82.44c.234-.15.438-.364.634-.562.13-.138-.052-.325-.198-.212-.21.166-.446.364-.618.58-.082.108.07.27.183.195z"/><path d="M-40.538 82.626l.47-.355c.073-.053.06-.18.008-.236-.07-.073-.163-.07-.236-.008l-.454.363c-.065.053-.06.164-.008.228.053.073.148.06.22.007z"/><path d="M-69.813 75.007c-.008.015-.01.03-.017.047.008-.015.017-.03.017-.047-.008 0 .001-.032 0 0 .016-.015-.008 0-.008 0 .056-.014.097-.076.083-.13-.014-.064-.076-.09-.13-.083-.127.02-.204.206-.088.29l-.03-.032c.007.016.015.032.03.04.045.073.173.006.145-.082z"/><path d="M-69.505 75.23c.12-.067.243-.18.27-.322.028-.117-.135-.2-.202-.093-.05.085-.1.154-.188.19-.144.074-.026.3.12.225z"/><path d="M-68.928 75.178l.328-.39c.082-.108-.094-.248-.176-.148l-.33.4c-.082.1.087.24.177.14z"/><path d="M-68.53 75.294a3.86 3.86 0 0 0 .362-.445c.083-.123-.093-.27-.2-.164-.13.138-.262.283-.37.445-.09.123.1.28.207.165z"/><path d="M-68.187 75.408c.26-.26.49-.55.675-.868.092-.163-.14-.312-.247-.158-.19.285-.39.555-.634.8-.146.137.067.365.205.228z"/><path d="M-67.585 75.35c.275-.212.512-.464.703-.75.108-.154-.14-.312-.247-.158-.2.262-.4.483-.67.68-.162.12.05.35.213.228z"/><path d="M-67.03 75.454c.32-.344.647-.72.88-1.13.092-.163-.125-.28-.232-.15l-.863 1.044c-.147.153.074.39.213.236z"/><path d="M-66.38 75.412c.38-.263.7-.655.91-1.066.084-.163-.14-.312-.24-.15-.24.378-.51.677-.83 1-.122.098.013.324.158.226z"/><path d="M-65.72 75.45c.335-.36.633-.767.937-1.16.1-.13-.115-.32-.222-.19l-.922 1.168c-.09.13.1.295.207.18z"/><path d="M-65.085 75.337c.413-.317.752-.795 1.01-1.244.092-.162-.147-.32-.247-.158-.275.448-.603.816-.947 1.207-.107.13.045.3.183.195z"/><path d="M-64.455 75.35l.968-1.12c.123-.138-.068-.34-.198-.212-.35.36-.695.742-.984 1.15-.09.13.108.303.215.18z"/><path d="M-63.624 75.015c.4-.334.742-.724.993-1.18.084-.155-.132-.288-.232-.142-.282.41-.586.777-.967 1.103-.154.12.06.35.206.22z"/><path d="M-62.943 74.943c.28-.377.6-.73.92-1.073.123-.138-.06-.34-.198-.212-.358.343-.67.735-.976 1.127-.115.154.14.304.255.158z"/><path d="M-62.16 74.598c.376-.397.714-.836 1.005-1.3.1-.154-.147-.312-.247-.15-.275.448-.604.855-.964 1.237-.13.13.075.35.206.212z"/><path d="M-61.152 74.167l.912-1.113c.123-.146-.067-.357-.206-.22l-.984 1.15c-.124.177.154.352.278.183z"/><path d="M-60.545 73.95l1.158-1.404a.15.15 0 0 0-.223-.181l-1.15 1.357c-.13.153.082.38.213.228z"/><path d="M-59.44 73.238c.296-.353.622-.673.94-1.002.13-.138-.052-.333-.198-.212-.365.295-.684.655-.988 1.016-.14.17.098.374.246.197z"/><path d="M-58.7 72.97a7.95 7.95 0 0 1 .98-1.26c.13-.138-.067-.35-.198-.212-.4.397-.738.843-1.037 1.314-.108.162.147.32.255.158z"/><path d="M-57.884 72.4l.71-.915c.115-.146-.125-.288-.24-.15l-.716.907c-.123.146.132.304.247.158z"/><path d="M-57.403 72.162c.233-.37.504-.693.814-1.006.13-.138-.06-.34-.198-.212-.334.312-.622.673-.87 1.06-.108.162.147.328.255.158z"/><path d="M-56.73 71.838c.303-.337.583-.706.77-1.118.068-.155-.18-.266-.264-.127-.217.355-.433.703-.72 1.01-.14.153.074.39.213.236z"/><path d="M-56.36 71.67a8.54 8.54 0 0 1 .59-.911c.107-.138-.125-.288-.232-.142-.215.292-.398.602-.56.928-.067.132.125.264.2.125z"/><path d="M-69.96 72.55a1.06 1.06 0 0 1 .398-.578c.13-.1.026-.315-.12-.225a1.02 1.02 0 0 0-.498.764c-.02.126.192.156.22.04z"/><path d="M-69.895 72.962c.19-.293.397-.562.62-.83.1-.107-.102-.264-.192-.156-.238.268-.437.56-.628.862-.083.13.118.256.2.125z"/><path d="M-69.718 73.102l1.055-1.376c.1-.14-.117-.264-.216-.14l-1.055 1.368c-.107.146.11.28.216.15z"/><path d="M-68.936 72.576l.708-.907c.083-.116-.1-.272-.192-.156l-.748.92c-.107.138.125.28.232.142z"/><path d="M-68.127 71.956a2.57 2.57 0 0 0 .575-.698c.076-.14-.102-.24-.2-.125l-.565.62c-.13.122.052.325.2.204z"/><path d="M-67.366 71.58c.17-.12.317-.29.456-.434.114-.114-.046-.285-.175-.187-.162.13-.332.265-.464.426-.115.13.037.3.183.195z"/><path d="M-66.572 71.424l.353-.414c.09-.115-.094-.255-.192-.164-.13.114-.244.236-.367.358-.14.137.075.365.206.22z"/><path d="M-65.84 71.196a1.18 1.18 0 0 0 .136-.074c.064-.037.1-.123.054-.195-.037-.064-.13-.1-.195-.054-.05.038-.105.068-.153.105s-.052.125-.014.173c.037.064.108.075.172.045z"/><path d="M-70.068 70.803c.203-.175.39-.373.587-.564.106-.107-.054-.286-.16-.17l-.556.59c-.1.1.032.23.13.146z"/><path d="M-69.653 70.896l.865-.87c.114-.122-.053-.31-.183-.195l-.88.862c-.13.122.068.333.198.204z"/><path d="M-68.81 70.396l.612-.618c.114-.115-.053-.294-.175-.187l-.62.6c-.122.114.06.31.183.195z"/><path d="M-68.012 70.154a4.18 4.18 0 0 0 .735-.756c.107-.146-.125-.28-.232-.15a4.81 4.81 0 0 1-.701.686c-.146.12.052.333.198.22z"/><path d="M-67.256 69.943c.243-.19.517-.36.72-.59.082-.092-.015-.253-.136-.186-.28.156-.525.385-.768.582-.13.114.045.3.183.195z"/><path d="M-66.6 69.91c.225-.127.42-.3.545-.518.06-.11-.086-.247-.176-.148a1.74 1.74 0 0 1-.503.425c-.153.082-.02.33.134.24z"/><path d="M-65.75 69.97a.82.82 0 0 0 .135-.027c.064-.014.12-.09.1-.162-.022-.064-.09-.12-.162-.1-.056.014-.104.036-.16.058s-.074.1-.052.148c.014.064.076.09.14.084z"/><path d="M28.565 41.286l1.016-.905c.138-.13-.06-.34-.206-.22l-1.016.905c-.146.13.06.35.206.22z"/><path d="M28.37 41.01c.306-.195.605-.42.85-.69.123-.13-.06-.325-.2-.204a5.33 5.33 0 0 1-.787.668c-.122.098-.01.315.127.225z"/><path d="M28.806 41.39c.31-.297.657-.546.997-.8.13-.098-.03-.316-.166-.226-.37.224-.704.536-1.014.842-.122.122.06.317.183.195z"/><path d="M29.177 41.4c.263-.094.5-.283.694-.474.138-.13-.083-.342-.2-.203-.164.2-.365.32-.575.462-.105.075-.056.266.072.215z"/><path d="M28.16 41.4c.39.636 1.176.686 1.854.67a19.61 19.61 0 0 0 2.967-.312c.214-.04.138-.366-.076-.334-.864.153-1.727.258-2.604.292-.68.033-1.445.047-1.99-.42-.077-.066-.213.01-.153.105z"/><path d="M39.718 38.33c-.054.195-.177.35-.316.494-.114.115.046.27.168.18.2-.15.305-.4.32-.644.01-.102-.146-.13-.172-.03z"/><path d="M40.018 38.315c-.1.178-.21.356-.333.517l-.38.484c-.083.116.086.247.192.156.3-.274.527-.684.728-1.032.06-.132-.133-.257-.21-.125z"/><path d="M40.1 38.657c.042.16-.184.333-.283.44l-.343.367c-.098.107.046.27.16.17.195-.175.367-.382.532-.6.107-.13.2-.262.14-.437-.035-.135-.24-.087-.207.048z"/><path d="M40.18 38.912l-.085.186c-.026.062.02.135.074.16s.142.012.167-.05l.085-.186c.034-.07.02-.157-.057-.19-.077-.042-.15.003-.184.08z"/><path d="M28.393 44.568a1.11 1.11 0 0 1-.061.171c-.025.054-.067.108-.076.163-.02.086.072.192.16.132.13-.083.183-.294.172-.436-.005-.103-.16-.147-.196-.03z"/><path d="M28.832 33.97H28.8c-.063-.002-.066.1-.003.102l.03.001c.063.002.067-.108.003-.102z"/><path d="M28.78 33.913c-.008-.008-.007-.016-.015-.032 0 .016-.01.04-.01.055.016-.007.016-.015.024-.023.09-.14-.148-.29-.224-.14-.042.077-.045.164-.064.25s-.07.163-.087.25c-.044.148.156.297.27.167.13-.153.23-.473.117-.66l-.085.194c.008 0 .016.001.024-.007-.023-.01-.047-.017-.07-.018l.023.024c.03.04.118.004.097-.06z"/><path d="M44.04 16.5c-.2.166-.378.46-.364.745.01.158.245.22.3.05.035-.117.047-.243.083-.368l.122-.343c.034-.086-.075-.13-.13-.083z"/><path d="M44.3 16.262c.01.213-.133.445-.21.64-.078.2-.172.42-.218.64-.037.156.195.3.272.127.12-.248.198-.506.278-.763.07-.218.156-.428.07-.652-.036-.104-.2-.11-.2.01z"/><path d="M44.876 15.966a6.54 6.54 0 0 0-.385.91c-.097.304-.22.655-.206.97.002.166.23.205.282.05.105-.296.14-.626.22-.93l.314-.904c.05-.124-.158-.226-.226-.094z"/><path d="M45.326 15.965c-.373.54-.686 1.2-.74 1.86-.014.173.26.222.306.05.17-.625.332-1.203.666-1.768.076-.147-.14-.28-.232-.142z"/><path d="M45.462 16.363c-.303.337-.538.755-.576 1.21-.014.173.253.213.298.05.108-.398.238-.757.5-1.08.1-.123-.116-.296-.223-.18z"/><path d="M45.888 16.378c-.297.408-.62.855-.786 1.338-.053.156.173.258.256.12l.77-1.307c.1-.146-.14-.288-.24-.15z"/><path d="M45.67 17.206c-.113.312-.294.542-.515.78-.123.138.053.317.198.212.29-.22.484-.567.606-.902.06-.18-.22-.267-.29-.088z"/><path d="M45.788 17.7c-.134.24-.29.448-.44.68-.075.124.094.263.192.156.204-.198.353-.438.48-.686.092-.155-.14-.304-.23-.15z"/><path d="M45.766 18.148c-.123.146-.215.3-.276.48s.228.268.28.088a1.03 1.03 0 0 1 .21-.387c.1-.123-.116-.303-.215-.18z"/><path d="M40.215 31.904c-.222.284-.363.705-.4 1.067-.013.15.23.19.26.04l.12-.524.182-.506c.035-.11-.105-.16-.17-.077z"/><path d="M40.213 31.96a7.54 7.54 0 0 0-.173 1.185c-.004.134.207.18.243.04a6.68 6.68 0 0 0 .15-1.186c.004-.126-.192-.164-.22-.04z"/><path d="M39.622 32.672a7.44 7.44 0 0 0-.191 1.003c-.02.133.215.18.243.04a8.72 8.72 0 0 0 .144-1.012c.003-.102-.17-.132-.196-.03z"/><path d="M39.28 33.04l-.26 1.143c-.02.126.184.156.22.04.107-.36.182-.743.242-1.12.028-.125-.16-.194-.203-.062z"/><path d="M39.836 32.64c-.146.366-.192.798-.268 1.182-.03.157.213.236.242.08.076-.4.193-.83.183-1.232.003-.095-.122-.114-.157-.03z"/><path d="M40 32.93l-.093.896c-.02.125.2.164.22.04.058-.313.1-.635.063-.952-.004-.126-.178-.085-.2.017z"/><path d="M42.28 23.354l.472-.67c.1-.107-.054-.27-.152-.163-.188.215-.387.484-.45.766-.026.086.074.137.132.067z"/><path d="M42.007 24.023l.928-1.357c.083-.13-.1-.248-.2-.125l-.936 1.35c-.083.13.126.256.21.133z"/><path d="M41.934 24.305l.98-1.3c.075-.116-.095-.216-.178-.108l-.974 1.308c-.074.1.096.2.17.1z"/><path d="M42.116 24.53l1.016-1.393c.074-.092-.08-.223-.16-.132-.4.42-.74.914-1.056 1.4-.083.13.118.256.2.125z"/><path d="M42.307 24.483l.587-.832c.074-.092-.08-.223-.16-.132-.23.268-.453.568-.6.895-.042.093.106.138.163.07z"/><path d="M42.28 25.018a.65.65 0 0 1 .239-.323c.056-.038.052-.132.006-.173-.053-.057-.125-.044-.173-.006a.89.89 0 0 0-.306.431c-.053.156.2.227.234.07z"/><path d="M42.192 24.857c.127-.256.284-.487.496-.685.098-.09-.04-.238-.137-.146-.228.205-.417.46-.514.756-.027.094.113.16.155.076z"/><path d="M42.103 25.406a5.47 5.47 0 0 0 .359-.374c.098-.107-.054-.27-.16-.17l-.352.375c-.1.115.046.27.152.17z"/><path d="M31.144 17.063c-.024-.001-.047.006-.07.013l.04.001c-.117-.028-.21.12-.244.213-.018.055.02.12.074.137s.12-.02.137-.074c.01-.03.026-.062.043-.093.025-.046.05-.077.044-.133l-.001.04c.008-.015.017-.03.025-.054.008-.015-.014-.048-.046-.05z"/><path d="M31.344 16.975c-.204.2-.385.437-.52.677-.067.116.103.224.178.108.15-.232.315-.455.488-.678.058-.077-.073-.176-.146-.107z"/><path d="M31.382 17l-1.097 1.462c-.1.107.062.27.152.163.402-.475.797-.975 1.1-1.525.06-.108-.088-.2-.154-.1z"/><path d="M30.83 17.975c-.114.35-.3.66-.513.953-.074.092.08.223.16.13.254-.3.44-.648.554-1.022.036-.133-.16-.195-.203-.062z"/><path d="M30.85 18.52l-.5.874c-.067.124.11.232.185.117l.495-.9c.043-.11-.104-.21-.17-.1z"/><path d="M30.816 19.1c-.1.233-.212.458-.268.71-.027.1.12.154.164.053l.266-.653c.06-.116-.103-.224-.162-.108z"/><path d="M31.008 19.487l-.226.64c-.035.11.13.154.172.053l.25-.63c.044-.125-.144-.186-.195-.062z"/><path d="M31.292 19.962l-.187.42c-.052.125.15.186.203.062l.187-.42c.05-.124-.152-.186-.203-.062z"/><path d="M31.693 20.22l-.14.208c-.067.108.095.216.17.108l.133-.208c.067-.116-.095-.216-.162-.108z"/><path d="M31.99 20.355c-.017.03-.033.054-.042.085-.025.046-.01.094.027.127.04.025.102.01.127-.027l.05-.085c.025-.047.01-.094-.027-.127-.047-.025-.1-.02-.135.027z"/><path d="M33.803 14.392l-.23.552c-.05.124.144.178.195.062l.23-.552c.044-.125-.144-.178-.195-.062z"/><path d="M33.413 14.252c-.098.336-.227.655-.356.982-.043.11.128.186.18.085.16-.318.282-.66.364-1.005.028-.125-.15-.186-.187-.06z"/><path d="M33.285 13.854c-.182.49-.418.94-.7 1.372-.075.116.103.224.178.116.298-.44.535-.92.725-1.42.044-.133-.16-.194-.203-.07z"/><path d="M32.876 13.817c-.26.504-.46 1.057-.652 1.587-.052.132.16.195.203.062l.612-1.58c.026-.086-.12-.154-.163-.07z"/><path d="M32.373 13.997c-.17.64-.427 1.224-.754 1.796-.067.124.11.232.185.117.358-.564.608-1.202.78-1.85.036-.14-.175-.203-.21-.062z"/><path d="M32.118 14.075a8.62 8.62 0 0 1-.804 1.881c-.067.116.103.224.178.108a7.67 7.67 0 0 0 .821-1.928c.036-.125-.16-.187-.195-.062z"/><path d="M31.36 14.563a5.35 5.35 0 0 1-.576 1.676c-.067.132.126.25.193.125a5.65 5.65 0 0 0 .602-1.73c.03-.15-.2-.22-.218-.07z"/><path d="M31.02 14.843c-.128.776-.427 1.452-.79 2.142-.06.116.103.224.178.108.448-.655.695-1.475.824-2.25.028-.133-.192-.14-.213.001z"/><path d="M30.34 15.585a6.06 6.06 0 0 1-.511 1.844c-.05.116.15.2.202.093a5.71 5.71 0 0 0 .521-1.93c.02-.14-.2-.14-.213-.007z"/><path d="M30.35 16.99c-.113.327-.18.68-.255 1.017-.027.1.144.162.164.053l.216-1.05c.01-.08-.1-.1-.125-.02z"/><path d="M30.666 16.732a.52.52 0 0 0-.125.437c.02.127.2.078.2-.05-.013-.087.014-.173.063-.242.033-.038.043-.1.005-.142s-.11-.05-.142-.005z"/><path d="M21.368 34.597c-.154.12-.208.332-.135.516.05.12.227.04.208-.08s-.001-.22.073-.313-.065-.184-.146-.123z"/><path d="M21.682 34.64a4.57 4.57 0 0 0-.312.849.12.12 0 0 0 .226.071c.104-.28.185-.577.226-.876.01-.07-.107-.106-.14-.044z"/><path d="M22.16 34.458c-.24.544-.54 1.047-.848 1.557-.075.124.1.24.193.117a9.07 9.07 0 0 0 .866-1.611c.06-.132-.15-.194-.21-.062z"/><path d="M22.588 34.41c-.116.406-.286.78-.472 1.16-.068.14.125.272.21.133.225-.37.39-.8.506-1.213.045-.156-.197-.235-.242-.08z"/><path d="M23.236 34.375l-.672 1.247c-.076.14.125.264.21.133a12.66 12.66 0 0 0 .672-1.247c.076-.147-.133-.28-.21-.133z"/><path d="M23.79 34.04l-.604 1.336c-.06.148.174.22.234.07l.57-1.3c.05-.124-.142-.25-.2-.117z"/><path d="M24.107 34.255c-.1.375-.26.71-.468 1.04-.075.124.103.232.193.117.247-.315.4-.696.51-1.087.044-.148-.2-.227-.234-.07z"/><path d="M24.688 34.116c-.2.356-.386.713-.54 1.086-.05.117.143.202.202.093l.54-1.054c.067-.132-.126-.257-.2-.125z"/><path d="M25.07 34.255c-.134.24-.253.488-.317.754-.028.133.15.186.203.062l.307-.692c.075-.132-.118-.256-.193-.125z"/><path d="M25.7 34.07l-.508 1.04c-.05.11.136.194.186.085l.5-1.016c.067-.116-.11-.232-.178-.108z"/><path d="M26.063 34.25c-.132.177-.24.37-.31.58-.044.133.144.178.195.062.085-.186.178-.365.3-.526.083-.116-.103-.232-.185-.117z"/><path d="M26.57 34.17l-.172.428c-.035.11.12.185.178.085.084-.14.144-.295.204-.443.025-.054-.02-.127-.074-.144-.054-.025-.11.012-.137.074z"/><path d="M27.196 33.86l-.227.418c-.06.124.1.24.185.117l.227-.418c.06-.124-.118-.233-.185-.117z"/><path d="M27.64 33.978v.04c-.002.063.05.128.114.122.063.002.12-.05.122-.114l.001-.04c.002-.063-.05-.128-.114-.122-.063-.002-.12.043-.122.114z"/><path d="M28.482 44.997l.575-.462c.122-.1-.03-.316-.166-.226a3 3 0 0 0-.569.525c-.082.108.047.254.16.163z"/><path d="M28.55 45.283c.224-.103.436-.3.623-.468.122-.106-.053-.294-.175-.187l-.276.25c-.097.084-.202.15-.284.243-.082.084.01.213.113.16z"/><path d="M28.666 45.6a2.23 2.23 0 0 0 .452-.316c.106-.1-.047-.254-.152-.163l-.405.333c-.08.068.017.198.106.145z"/><path d="M28.68 46.147c.145-.105.284-.25.407-.39.1-.115-.046-.27-.16-.17-.073.06-.138.13-.204.198l-.188.207c-.058.085.056.215.145.155z"/><path d="M28.792 46.584c.105-.06.186-.144.237-.252.06-.116-.095-.216-.178-.108-.05.07-.115.138-.18.19-.09.076.024.23.12.17z"/><path d="M29.408 45.122c.186-.136.387-.263.558-.423.08-.076-.016-.23-.12-.162-.194.128-.357.296-.528.456-.065.06.018.182.1.13z"/><path d="M29.75 45.3c.22-.23.464-.434.715-.623.12-.09-.038-.27-.168-.18-.26.188-.487.4-.7.64-.1.107.054.262.152.163z"/><path d="M30.042 45.483l1.13-.83c.113-.083-.022-.277-.143-.202-.403.255-.768.574-1.133.877-.098.09.047.238.145.155z"/><path d="M30.572 45.69c.47-.418 1.01-.763 1.482-1.173.106-.09-.023-.27-.143-.202-.54.313-1.028.794-1.49 1.204-.114.1.04.26.152.17z"/><path d="M31.388 45.574l1.473-1.142c.105-.09-.03-.3-.15-.2l-1.474 1.18c-.114.1.04.262.152.17z"/><path d="M32.006 45.72l.875-.712.9-.696c.106-.1-.022-.285-.15-.202-.636.397-1.214.953-1.782 1.44-.113.09.046.27.168.17z"/><path d="M32.807 45.81l2.155-1.734c.122-.106-.028-.332-.166-.234-.75.543-1.45 1.174-2.18 1.765-.138.114.053.317.2.203z"/><path d="M33.815 45.836l2.385-2.018c.146-.13-.06-.34-.206-.22l-2.362 2.043c-.13.114.053.31.183.195z"/><path d="M35.203 45.37l2.167-1.876c.154-.137-.067-.365-.213-.228l-2.12 1.917c-.13.106.045.293.167.187z"/><path d="M36.15 45.354l2.378-2.27c.14-.153-.066-.38-.22-.236l-2.363 2.295c-.138.13.067.34.206.212z"/><path d="M36.686 45.57l2.722-2.67c.14-.153-.074-.39-.22-.236L36.48 45.35c-.138.13.067.35.206.22z"/><path d="M37.773 45.384l2.11-2.067c.14-.153-.074-.38-.22-.236l-2.096 2.083c-.146.13.06.35.206.22z"/><path d="M38.104 45.853c.584-.5 1.2-1.032 1.694-1.63.115-.138-.108-.31-.238-.197l-1.67 1.592c-.154.137.06.365.213.236z"/><path d="M38.125 46.658a13.8 13.8 0 0 0 1.55-1.321c.147-.145-.074-.38-.22-.236-.48.48-.993.93-1.535 1.345-.153.105.052.325.206.212z"/><path d="M38.294 47.255c.557-.392 1.084-.824 1.588-1.28.155-.145-.066-.39-.228-.244a16.38 16.38 0 0 1-1.515 1.235c-.178.12-.022.41.156.29z"/><path d="M38.445 47.7l1.38-.932c.137-.106-.035-.356-.18-.25l-1.347.91c-.177.105-.028.378.15.273z"/><path d="M38.605 48.6l1.14-.814c.162-.13-.06-.357-.213-.228l-1.067.777c-.16.113-.02.37.14.265z"/><path d="M38.655 49.45c.378-.216.74-.464 1.066-.753.154-.13-.06-.35-.213-.228l-.994.724c-.153.097-.02.354.14.257z"/><path d="M38.69 50.075a6.41 6.41 0 0 0 .8-.573c.146-.12-.053-.317-.198-.212l-.75.51c-.177.105-.02.378.15.273z"/><path d="M38.66 50.752l.784-.573c.138-.106-.036-.34-.173-.242l-.824.588c-.16.113.052.34.213.228z"/><path d="M38.748 51.15l.396-.294c.122-.1-.03-.31-.158-.226l-.436.31c-.065.045-.06.156-.007.213s.14.052.205-.001z"/><path d="M38.715 51.684c.088-.044.17-.105.25-.165.057-.045.052-.132.014-.19-.045-.057-.116-.075-.18-.045-.096.044-.177.097-.258.157-.057.046-.06.14-.014.197.037.064.115.083.188.046z"/><path d="M-9.194 76.16c.208-.096.416-.19.6-.32.145-.1.02-.33-.126-.24l-.58.367c-.13.075-.032.243.096.192z"/><path d="M-8.253 76.08c.243-.205.47-.394.744-.56.145-.1.026-.314-.126-.233-.28.156-.572.367-.778.62-.098.115.038.27.16.17z"/><path d="M-7.27 75.885l.85-.626c.146-.113-.053-.317-.198-.212l-.85.634c-.138.114.053.31.198.204z"/><path d="M-6.386 75.89c.394-.24.775-.558 1.124-.854.146-.12-.053-.31-.2-.203l-1.077.863c-.1.092.023.26.143.194z"/><path d="M-5.39 75.798l1.352-1.067c.122-.106-.03-.324-.166-.226l-1.4 1.073c-.154.113.06.333.213.22z"/><path d="M-4.447 75.67l1.226-1.063c.146-.13-.06-.357-.213-.228l-1.21 1.08c-.138.13.06.333.198.212z"/><path d="M-3.65 75.674c.493-.354.97-.733 1.395-1.168a.16.16 0 0 0-.213-.228c-.43.404-.878.8-1.355 1.146-.145.106.028.356.173.25z"/><path d="M-2.696 75.422l1.653-1.325c.162-.13-.06-.357-.22-.236l-1.645 1.333c-.146.13.067.357.213.228z"/><path d="M-1.643 75.3l1.548-1.265c.154-.13-.06-.35-.213-.228l-1.548 1.265c-.154.137.06.365.213.228z"/><path d="M-.86 75.23c.662-.46 1.3-.95 1.9-1.482.154-.137-.06-.365-.213-.228L-1 74.958c-.17.113-.02.386.14.273z"/><path d="M.5 74.905l2.016-1.58c.17-.136-.06-.373-.228-.244l-2 1.597c-.162.12.052.35.213.228z"/><path d="M1.487 74.828l2.178-1.702c.17-.136-.058-.38-.228-.244l-2.17 1.7c-.17.128.05.356.22.236z"/><path d="M2.717 74.6l2.267-1.785c.178-.128-.058-.396-.236-.252l-2.244 1.8c-.17.13.05.357.213.228z"/><path d="M4.138 74.285l2.215-1.653c.17-.144-.066-.38-.228-.244l-2.143 1.608c-.177.12-.022.417.156.29z"/><path d="M5.41 74.185c.695-.505 1.353-1.098 1.995-1.668.162-.144-.066-.396-.236-.252l-1.965 1.7c-.14.137.06.325.206.22z"/><path d="M6.55 73.884l2.105-1.665c.17-.144-.066-.396-.236-.252L6.32 73.64c-.178.128.05.372.228.244z"/><path d="M7.9 73.598c.62-.366 1.15-.9 1.663-1.395.163-.16-.09-.413-.236-.252-.49.528-1.057.95-1.585 1.43-.106.1.03.3.158.218z"/><path d="M9.082 73.33c.583-.446 1.074-1.013 1.588-1.532.163-.168-.096-.43-.244-.26l-1.543 1.58c-.13.145.044.333.198.212z"/><path d="M10.082 73.134c.292-.25.554-.526.823-.8.155-.16-.096-.42-.236-.252-.246.29-.523.558-.792.825-.147.145.05.364.205.228z"/><path d="M-18.8 69.092c.202-.135.388-.28.604-.4.145-.082.026-.307-.126-.233-.216.103-.45.253-.613.43-.1.1.014.276.136.194z"/><path d="M-18.434 69.246l.907-.703c.137-.106-.045-.31-.183-.195l-.9.71c-.138.106.046.293.175.187z"/><path d="M-17.99 69.45l1.47-1.055c.145-.098.02-.346-.134-.25a10.5 10.5 0 0 0-1.496 1.133c-.106.107.047.254.16.17z"/><path d="M-17.2 69.532c.342-.075.62-.342.893-.546l.98-.764c.146-.12-.052-.325-.198-.212l-.8.643c-.275.212-.585.517-.927.6-.2.033-.13.32.062.278z"/><path d="M-16.494 69.712c.644-.397 1.29-.825 1.858-1.326.138-.122-.053-.317-.198-.212l-1.8 1.28c-.153.097-.02.354.14.257z"/><path d="M-15.662 69.835c.52-.495 1.095-.918 1.714-1.29.17-.105.028-.37-.15-.273a9.49 9.49 0 0 0-1.771 1.337c-.14.137.067.357.205.228z"/><path d="M-14.76 69.746c.547-.32 1.065-.722 1.55-1.123.154-.12-.06-.34-.206-.22l-1.497 1.14c-.113.083.03.277.15.202z"/><path d="M-14.305 70.053c.603-.358 1.17-.78 1.72-1.205.162-.12-.06-.35-.213-.228l-1.64 1.183c-.153.097-.027.338.134.25z"/><path d="M-13.47 70.097l1.67-1.11c.186-.128.005-.386-.18-.258l-1.63 1.105c-.154.113-.02.37.14.265z"/><path d="M-12.88 70.32c.246-.04.458-.245.66-.38l.743-.52c.137-.098-.028-.332-.173-.242l-.67.46c-.178.128-.398.342-.62.382-.206.033-.137.335.06.302z"/><path d="M-12.29 70.35l1.15-.71c.153-.105.028-.362-.14-.265l-1.15.71c-.16.105-.02.362.14.265z"/><path d="M-11.72 70.533c.415-.144.823-.328 1.18-.592.13-.098-.03-.3-.166-.226-.353.193-.7.387-1.082.524-.183.057-.114.36.07.294z"/><path d="M-10.97 70.747l1.174-.702c.17-.105.03-.385-.148-.28l-1.167.702c-.185.112-.037.385.14.28z"/><path d="M-10.693 70.962c.42-.278.86-.508 1.287-.762.17-.097.035-.338-.14-.265-.456.2-.89.467-1.294.746-.17.113-.02.393.148.28z"/><path d="M-9.927 71.176a8.73 8.73 0 0 0 1.09-.539c.177-.105.028-.377-.148-.28l-1.083.555c-.176.08-.035.338.14.265z"/><path d="M-9.066 71.607l.988-.535c.177-.105.03-.385-.156-.28l-.988.535c-.184.088-.028.377.156.28z"/><path d="M-8.467 71.84l.923-.498c.185-.104.03-.393-.156-.29l-.924.505c-.177.105-.02.386.156.28z"/><path d="M-7.878 72.135l1.087-.68c.145-.106-.036-.356-.18-.258l-1.054.65c-.185.104-.037.393.148.29z"/><path d="M-7.616 72.333l1.02-.557c.177-.105.02-.394-.156-.28l-1.013.573c-.16.097-.02.354.15.265z"/><path d="M-55.4 71.282l.83-1.02c.123-.154-.067-.373-.213-.228-.327.336-.607.705-.85 1.107-.092.147.125.28.232.142z"/><path d="M-54.727 71.116c.14-.153.247-.323.38-.484l.4-.46c.123-.138-.067-.34-.198-.212-.294.3-.606.666-.76 1.055-.026.086.105.17.17.1z"/><path d="M-54.05 71.162c.415-.373.822-.76 1.2-1.183.123-.138-.067-.357-.206-.22l-1.175 1.2c-.123.13.06.317.2.204z"/><path d="M-53.08 70.95c.506-.275.953-.686 1.292-1.148.115-.154-.132-.296-.247-.158-.337.422-.735.756-1.178 1.057-.145.105-.027.338.134.25z"/><path d="M-51.97 70.703l1.237-1.165c.13-.13-.052-.325-.198-.212-.438.364-.838.77-1.237 1.173-.123.13.068.333.198.204z"/><path d="M-51.16 70.304c0 .008.007.016.007.032.022.056.06.097.123.1.244.008.5-.322.662-.475l.815-.793c.13-.145-.067-.365-.206-.22l-.628.626-.596.61c-.085-.058-.22.016-.177.12z"/><path d="M-50 70.35l1.41-1.175c.138-.13-.053-.317-.198-.212l-1.42 1.167c-.138.13.06.34.206.22z"/><path d="M-49.027 70.185a11.12 11.12 0 0 0 1.416-1.073c.146-.13-.06-.34-.206-.22l-1.376 1.066c-.13.1.03.308.166.226z"/><path d="M-48.022 70.1c.563-.344 1.097-.752 1.57-1.21.138-.13-.06-.34-.206-.22a15.63 15.63 0 0 1-1.505 1.172c-.146.113-.02.362.14.257z"/><path d="M-46.69 69.908l1.44-1.064c.162-.12-.052-.34-.213-.228l-1.43 1.072c-.154.12.052.333.206.22z"/><path d="M-45.565 69.717l1.497-.928c.17-.105.02-.378-.15-.273l-1.483.96c-.137.098-.02.33.134.24z"/><path d="M-44.404 69.637c.41-.2.826-.414 1.175-.7.122-.106-.03-.308-.166-.226l-1.158.67c-.16.09-.02.346.15.265z"/><path d="M-43.634 69.734c.393-.208.787-.43 1.135-.704.13-.098-.03-.316-.166-.226l-1.103.69c-.145.1-.02.33.134.24z"/><path d="M-42.612 69.807c.284-.243.6-.446.905-.648.153-.097.035-.338-.14-.257-.353.177-.676.427-.97.693-.13.13.068.334.206.212z"/><path d="M-41.903 69.846l.875-.484c.17-.097.028-.354-.14-.265l-.868.492c-.16.097-.027.346.134.257z"/><path d="M-41.086 69.93c.253-.03.55-.17.744-.338.122-.1-.022-.277-.15-.2-.112.05-.217.127-.33.178-.112.06-.232.095-.344.154-.128.067-.047.235.08.216z"/><path d="M-40.336 70.127c.302-.085.593-.304.83-.5.138-.114-.053-.31-.2-.203-.243.19-.508.322-.75.503-.09.076.008.23.112.2z"/><path d="M-39.48 70.234l.222-.048c.08-.013.138-.106.11-.186-.02-.072-.106-.138-.186-.11l-.215.072c-.064.022-.12.09-.1.162.03.08.1.122.17.108z"/><path d="M-59.57 66.42c.084.066.188.022.276-.014.112-.044.24-.087.336-.154.12-.083.065-.282-.094-.248a1.17 1.17 0 0 0-.256.102l-.104.052c-.024.015-.073.053-.096.052-.118-.004-.147.145-.062.21z"/><path d="M-59.04 66.62l.657-.3c.153-.082.025-.29-.127-.225l-.657.31c-.13.075-.017.283.127.217z"/><path d="M-58.5 66.954a4.47 4.47 0 0 0 1.128-.483c.16-.097.027-.346-.133-.257-.338.194-.682.364-1.05.478-.168.057-.113.312.054.262z"/><path d="M-57.794 67.332l1.274-.62c.113-.067.057-.282-.087-.23-.455.158-.88.397-1.313.603-.168.073-.034.322.126.25z"/><path d="M-57.088 67.663l1.4-.782c.145-.1.026-.314-.126-.233-.473.237-.924.53-1.382.8-.153.082-.034.306.12.225z"/><path d="M-56.342 67.987c.537-.25 1.1-.524 1.567-.878.13-.098-.03-.308-.166-.234l-1.542.848c-.17.09-.027.346.14.265z"/><path d="M-55.475 68.252l1.672-.97c.153-.097.027-.338-.14-.257l-1.672.97c-.16.09-.02.346.14.257z"/><path d="M-54.533 68.37l1.58-.79c.16-.097.035-.33-.14-.257l-1.587.775c-.176.09-.035.354.15.273z"/><path d="M-53.58 68.418c.657-.325 1.3-.698 1.9-1.128.137-.098-.028-.332-.173-.242l-1.858 1.105c-.17.09-.027.346.14.265z"/><path d="M-52.494 68.454l1.634-1c.16-.105.028-.362-.14-.265l-1.634 1c-.17.105-.028.37.14.265z"/><path d="M-51.573 68.264l1.55-1.115c.16-.105.028-.362-.14-.265-.57.328-1.12.728-1.593 1.185-.13.122.045.3.183.195z"/><path d="M-50.37 67.665l.99-.574c.153-.1.027-.338-.134-.24l-.982.598c-.13.082-.018.3.127.217z"/><path d="M-49.405 67.326l.726-.488c.145-.105.02-.354-.134-.25l-.726.488c-.153.105-.02.354.134.25z"/><path d="M-2.705 79.955a8.49 8.49 0 0 0 1.349-.72c.16-.105.02-.362-.14-.257l-1.31.784c-.12.075-.024.244.104.193z"/><path d="M-1.604 80.047c.536-.22 1.05-.478 1.525-.81.153-.105.02-.362-.14-.257-.49.315-.99.6-1.525.817-.168.065-.026.314.142.25z"/><path d="M-.48 80.14l1.62-.837c.17-.097.028-.354-.14-.265l-1.606.86c-.168.08-.034.322.126.24z"/><path d="M.744 80.11c.633-.302 1.26-.628 1.855-1.003.16-.097.027-.346-.14-.257L.603 79.852c-.16.097-.027.338.14.257z"/><path d="M1.823 80.145c.59-.24 1.17-.576 1.717-.905.17-.097.035-.354-.14-.265l-1.703.937c-.137.098-.034.3.126.233z"/><path d="M2.785 80.146l1.94-.97c.185-.096.036-.37-.156-.28l-1.94.96c-.184.088-.028.378.156.29z"/><path d="M3.72 80.208c.736-.307 1.46-.724 2.15-1.12.177-.097.028-.37-.15-.273l-2.128 1.167c-.13.1-.025.283.127.225z"/><path d="M4.997 80.235l2.264-1.2c.17-.105.036-.36-.15-.273l-2.272 1.2c-.176.09-.02.362.157.273z"/><path d="M6.15 80.234l2.437-1.212c.185-.096.036-.377-.156-.29L6 79.953c-.185.096-.036.37.148.28z"/><path d="M7.635 80.1l2.343-1.23c.16-.097.035-.33-.14-.257-.808.344-1.58.79-2.366 1.2-.185.096-.02.386.164.29z"/><path d="M8.765 80.273l2.81-1.547c.177-.112.03-.393-.156-.29L8.6 79.984c-.177.097-.02.386.164.29z"/><path d="M10.1 80.24c.483-.063.936-.4 1.346-.65l1.495-.857c.185-.112.03-.4-.164-.297l-1.4.805c-.4.24-.888.625-1.363.688-.198.025-.12.335.084.3z"/><path d="M11.44 80.197l2.635-1.458c.185-.112.03-.41-.164-.297L11.277 79.9c-.193.104-.037.393.164.297z"/><path d="M12.817 80.313l2.818-1.515c.193-.112.037-.41-.163-.305L12.653 80c-.21.11-.038.424.163.313z"/><path d="M14.345 80.364c.228.007.24-.34.01-.347s-.24.34-.01.347z"/><path d="M18.9 80.247c.173.006.182-.262.01-.268s-.182.262-.01.268z"/><path d="M-29.83 85.22c.493-.354 1.008-.668 1.553-.934s1.134-.42 1.678-.67c.16-.073.05-.298-.1-.27-.587.1-1.196.4-1.718.676-.546.28-1.07.61-1.562.98-.114.1.03.308.15.218z"/><path d="M-29.637 85.345l2.965-1.423c.2-.088.037-.393-.163-.305l-2.935 1.472c-.176.09-.035.346.133.257z"/><path d="M-31.14 86.7l2.2-.99 2.216-.95c.208-.096.036-.377-.163-.305l-2.208.96-2.17 1.04c-.16.105-.034.314.126.25z"/><path d="M-31.51 87.593c1.275-.415 2.485-.998 3.583-1.773.186-.128.023-.44-.17-.313a14.27 14.27 0 0 1-3.489 1.776c-.19.065-.123.374.076.3z"/><path d="M-32.463 88.547c.6-.193 1.158-.458 1.727-.708l1.873-.837c.2-.096.036-.377-.163-.297l-3.505 1.555c-.175.057-.114.343.07.286z"/><path d="M-33.056 89.292c.85-.17 1.727-.487 2.423-1.008.138-.106-.028-.332-.18-.25-.74.433-1.47.78-2.318.948-.198.04-.122.35.076.3z"/><path d="M-33.48 89.736l1.783-.5c.167-.05.105-.312-.062-.27l-1.783.508c-.175.05-.113.312.062.262z"/><path d="M-33.033 88.836c.265.316.427.676.524 1.074.042.167.288.104.254-.062-.088-.445-.31-.846-.607-1.18-.1-.114-.27.054-.17.168z"/><path d="M-32.8 88.284c.333.405.555.846.72 1.35.058.168.32.113.27-.062-.14-.55-.415-1.047-.77-1.484-.13-.154-.34.052-.22.198z"/><path d="M-32.34 87.723a4.05 4.05 0 0 1 .785 1.303c.065.168.335.106.27-.062a4.07 4.07 0 0 0-.884-1.401c-.107-.114-.277.046-.17.16z"/><path d="M-31.462 88.557l.55 1.225c.074.152.307.026.233-.126l-.575-1.202c-.074-.136-.267-.025-.21.103z"/><path d="M-31.002 88.462c.162.36.38.69.63 1 .106.13.293-.046.195-.183a8.22 8.22 0 0 1-.608-.935c-.082-.13-.283-.025-.217.12z"/><path d="M-27.457 83.565c.045.317.168.63.285.932.073.192.336.1.264-.102l-.324-.917c-.06-.128-.235-.032-.224.087z"/><path d="M-28.486 83.452a7.12 7.12 0 0 1 .522 1.381c.057.19.36.122.3-.076-.133-.5-.314-.988-.543-1.46-.096-.185-.385-.03-.29.156z"/><path d="M-29 83.774l.32 1.028c.092.318.152.66.275.97.073.168.3.05.28-.11-.036-.332-.16-.668-.26-.986l-.315-.972c-.057-.19-.366-.123-.302.07z"/><path d="M-29.63 84.43l.47 1.545c.057.183.343.114.294-.07l-.47-1.545c-.065-.183-.35-.114-.294.07z"/><path d="M-30.213 85.38c.198.227.346.492.455.772.058.152.298.05.256-.102-.09-.334-.255-.63-.475-.9-.137-.154-.373.074-.236.23z"/><path d="M-30.81 85.756l.08.184c.037.088.162.116.242.07a.18.18 0 0 0 .071-.242l-.09-.176c-.037-.08-.162-.116-.234-.07-.08.045-.107.138-.07.234z"/></g><ellipse cx="19.587" cy="34.174" rx=".719" ry=".359" transform="rotate(1.902 19.587 34.174)" fill="#fff"/></g></g><defs><filter id="B" x=".792" y=".06" width="61.632" height="61.632" filterUnits="userSpaceOnUse" color-interpolation-filters="sRGB"><feFlood flood-opacity="0" result="A"/><feColorMatrix in="SourceAlpha" values="0 0 0 0 0 0 0 0 0 0 0 0 0 0 0 0 0 0 127 0"/><feOffset/><feGaussianBlur stdDeviation="4.202"/><feColorMatrix values="0 0 0 0 0 0 0 0 0 0 0 0 0 0 0 0 0 0 0.09 0"/><feBlend in2="A"/><feBlend in="SourceGraphic"/></filter><clipPath id="C"><path fill="#fff" transform="translate(9.196 8.464)" d="M0 0h44.823v44.823H0z"/></clipPath></defs></svg>