<svg width="348" height="666" viewBox="0 0 348 666" fill="none" xmlns="http://www.w3.org/2000/svg">
    <path d="M2 26.2065C2 12.4898 13.476 1.56314 27.1763 2.23542L73 4.48402H172L318.695 1.49519C332.068 1.22274 343.083 11.9342 343.184 25.3089L347.817 638.782C347.918 652.107 337.144 662.963 323.818 662.963H26C12.7452 662.963 2 652.218 2 638.963V26.2065Z" fill="#EFEFEF"/>
    <g filter="url(#filter0_ii)">
        <g clip-path="url(#clip0)">
            <g clip-path="url(#clip1)">
                <path fill-rule="evenodd" clip-rule="evenodd" d="M99 14H23V105H333V14H274L270.572 14.4729C264.226 15.3481 259.5 20.7711 259.5 27.1763C259.5 34.2586 253.759 40 246.676 40H122.633C115.38 40 109.5 34.0219 109.5 26.7689C109.5 20.5671 105.092 15.1604 99 14Z" fill="#5087D9"/>
                <path d="M180.427 53.261H175.038C174.46 53.261 174.011 53.7315 174.011 54.2875V62.6272H173.52C172.942 62.6272 172.493 63.0976 172.493 63.6536V64.9366C172.493 65.514 172.964 65.963 173.52 65.963H176.855C177.433 65.963 177.882 65.4926 177.882 64.9366V56.4472H179.742C180.384 56.4472 180.64 56.6611 180.79 56.8321C180.876 56.9391 181.175 57.3881 181.175 58.9919V65.0435C181.175 65.6209 181.645 66.0699 182.201 66.0699H183.998C184.575 66.0699 185.024 65.5995 185.024 65.0435V58.4359C185.024 56.5755 184.618 55.2711 183.762 54.4585C182.95 53.646 181.817 53.261 180.427 53.261Z" fill="white"/>
                <path d="M190.349 53.2183H187.034C186.457 53.2183 186.008 53.6887 186.008 54.2447V55.4422C186.008 56.0195 186.478 56.4686 187.034 56.4686H187.526V65.0007C187.526 65.5781 187.997 66.0272 188.552 66.0272H190.327C190.905 66.0272 191.354 65.5567 191.354 65.0007V54.2661C191.375 53.6887 190.905 53.2183 190.349 53.2183Z" fill="white"/>
                <path d="M196.123 53.4109H194.348C193.77 53.4109 193.321 53.8813 193.321 54.4373V59.9757C193.321 60.5531 193.792 61.0021 194.348 61.0021H196.123C196.7 61.0021 197.149 60.5317 197.149 59.9757V54.4373C197.149 53.8599 196.7 53.4109 196.123 53.4109Z" fill="white"/>
                <path d="M209.167 54.4373C208.418 53.6461 207.285 53.2398 205.767 53.2398H200.399C199.822 53.2398 199.373 53.7102 199.373 54.2662V65.0223C199.373 65.5996 199.843 66.0487 200.399 66.0487H202.196C202.773 66.0487 203.222 65.5782 203.222 65.0223V56.426H205.083C205.596 56.426 205.938 56.5329 206.088 56.7467C206.216 56.9178 206.515 57.4524 206.515 58.992V65.0436C206.515 65.621 206.986 66.0701 207.542 66.0701H209.338C209.915 66.0701 210.364 65.5996 210.364 65.0436V58.436C210.386 56.597 210.001 55.2926 209.167 54.4373Z" fill="white"/>
                <path d="M161.78 53.6246C161.588 53.3679 161.288 53.2183 160.968 53.2183H159.556C158.979 53.2183 158.53 53.6887 158.53 54.2447V65.0221C158.53 65.3001 158.637 65.5567 158.829 65.7492C159.022 65.9416 159.278 66.0485 159.556 66.0485C159.556 66.0485 159.556 66.0485 159.578 66.0485L161.246 66.0272C161.802 66.0272 162.272 65.5567 162.272 65.0007L162.251 59.8686L166.634 65.6423C166.827 65.8989 167.126 66.0485 167.447 66.0485H169.307C169.692 66.0485 170.056 65.8347 170.227 65.4712C170.398 65.1077 170.355 64.7014 170.12 64.3806L161.78 53.6246ZM169.585 59.2699C169.649 59.3768 169.628 59.4837 169.564 59.612C169.607 59.4837 169.607 59.3768 169.585 59.2699Z" fill="white"/>
                <path fill-rule="evenodd" clip-rule="evenodd" d="M166.613 60.3603C167.02 59.5691 167.233 58.671 167.233 57.7943C167.451 58.0117 167.522 58.3752 167.582 58.6823L167.597 58.7565C168.023 58.2446 167.961 57.7115 167.876 56.9873L167.875 56.9817C167.811 56.5754 167.597 55.6345 167.276 54.437C167.409 54.4984 167.518 54.6382 167.642 54.7977C167.777 54.9715 167.93 55.1688 168.153 55.3137C168.046 54.5439 167.554 53.2181 166.827 52.3628L166.872 52.3768C167.197 52.4778 167.504 52.5731 167.811 52.9615C167.511 52.042 167.233 51.2508 165.458 50.0961C166.25 50.0319 167.982 50.2244 169.158 51.9137C169.137 51.315 168.923 50.7376 168.538 50.2672C168.706 50.4352 168.869 50.5886 169.027 50.7364C169.913 51.5667 170.611 52.2212 170.847 54.3087C171.104 53.9024 171.147 53.325 171.125 52.9615C171.703 54.9074 171.211 57.4094 169.949 58.6924C170.462 58.393 170.847 58.0295 171.061 57.7729C170.917 58.0248 170.793 58.2616 170.674 58.4885C170.087 59.6094 169.628 60.4876 167.511 61.7503L166.613 60.3603ZM168.858 59.0991C169.008 58.9708 169.136 58.8211 169.265 58.65C169.393 58.4789 169.521 58.2865 169.607 58.094C169.628 58.0299 169.628 57.9657 169.564 57.9443C169.5 57.923 169.436 57.9443 169.414 58.0085C169.3 58.3023 169.123 58.5463 168.942 58.7975C168.885 58.8754 168.828 58.9539 168.773 59.0349C168.73 59.0777 168.815 59.1418 168.858 59.0991ZM170.173 55.8595C170.179 55.8488 170.184 55.8381 170.184 55.8274C170.205 55.7633 170.291 55.7847 170.291 55.8488C170.291 55.8595 170.296 55.8702 170.302 55.8809C170.307 55.8916 170.312 55.9023 170.312 55.913V55.9985V56.191V56.191C170.312 56.2979 170.312 56.4262 170.291 56.5545C170.269 56.8111 170.205 57.0677 170.12 57.3029C170.077 57.4312 169.863 57.3671 169.906 57.2388C169.991 57.0035 170.056 56.7683 170.098 56.5331L170.107 56.4852L170.107 56.4851C170.125 56.3773 170.141 56.2816 170.141 56.1696C170.163 56.1054 170.163 56.0413 170.163 55.9771V55.8916C170.163 55.8809 170.168 55.8702 170.173 55.8595ZM169.949 53.4753C169.978 53.5336 169.987 53.6018 169.997 53.6731C170.001 53.7065 170.006 53.7406 170.013 53.7747L170.021 53.8227L170.021 53.8227C170.039 53.9305 170.056 54.0262 170.056 54.1382C170.077 54.3521 170.077 54.5873 169.992 54.7797C169.97 54.8439 170.013 54.908 170.077 54.908C170.141 54.9294 170.184 54.8867 170.205 54.8225C170.291 54.6087 170.291 54.3307 170.27 54.0955C170.248 53.8388 170.205 53.6036 170.056 53.3898C170.013 53.3256 169.906 53.3898 169.949 53.4753ZM169.286 54.1381C169.158 53.1544 168.602 52.2563 167.982 51.5079C167.917 51.4223 168.024 51.3154 168.11 51.4009C168.516 51.7217 168.837 52.2135 169.072 52.684C169.307 53.133 169.479 53.6249 169.543 54.1381C169.564 54.3091 169.307 54.2878 169.286 54.1381ZM168.302 53.8174C168.559 54.6086 168.773 55.4212 168.73 56.2552C168.73 56.3835 168.922 56.3835 168.944 56.2552C168.965 55.8275 168.901 55.3998 168.816 54.9722C168.73 54.5659 168.623 54.1168 168.431 53.7533C168.388 53.6891 168.281 53.7319 168.302 53.8174ZM169.122 57.8523C169.092 57.9178 169.061 57.9839 169.029 58.0513C168.987 58.1368 168.858 58.0727 168.88 57.9871C168.924 57.865 168.97 57.7429 169.016 57.6203C169.173 57.2061 169.332 56.7861 169.414 56.3406C169.457 56.1695 169.714 56.2337 169.671 56.4047C169.615 56.6674 169.525 56.8971 169.432 57.1372C169.419 57.1708 169.406 57.2046 169.393 57.2387C169.312 57.4493 169.219 57.6477 169.122 57.8523Z" fill="white"/>
                <path d="M164.325 50.4385C164.389 50.075 164.453 49.7328 164.581 49.3907C164.71 49.07 164.902 48.7492 165.137 48.4926C165.202 48.4071 165.202 48.3001 165.137 48.236C165.073 48.1718 164.945 48.1504 164.881 48.236C164.624 48.5354 164.41 48.8775 164.282 49.2624C164.154 49.6259 164.047 50.0322 164.09 50.4171C164.09 50.524 164.303 50.5882 164.325 50.4385Z" fill="white"/>
                <path d="M163.469 50.2675C163.32 49.797 163.384 49.2624 163.619 48.8561C163.726 48.6637 163.427 48.4926 163.32 48.6851C163.17 48.9417 163.084 49.2197 163.084 49.519C163.084 49.8184 163.149 50.0964 163.256 50.3744C163.32 50.4813 163.512 50.3958 163.469 50.2675Z" fill="white"/>
            </g>
            <g filter="url(#filter1_d)">
                <path d="M24 103.677C24 90.0485 35.0485 79 48.6774 79H308.323C321.952 79 333 90.0485 333 103.677V641H24V103.677Z" fill="#F1F1F1"/>
            </g>
        </g>
    </g>
    <path fill-rule="evenodd" clip-rule="evenodd" d="M36.1763 2.23546C22.476 1.56315 11 12.4898 11 26.2066V628.037C11 641.292 21.7452 652.037 35 652.037H323.834C337.153 652.037 347.925 641.191 347.833 627.871L343.668 25.3506C343.576 11.9597 332.542 1.23494 319.154 1.52199L181 4.48414H82L36.1763 2.23546ZM40 15C31.1634 15 24 22.1635 24 31V622.25C24 631.087 31.1634 638.25 40 638.25H316.5C325.53 638.25 332.77 630.783 332.493 621.758L330 540.68V435.644L333 315.176V217.606V31C333 22.1634 325.837 15 317 15H275H271.947C265.349 15 260 20.349 260 26.9473C260 33.5456 254.651 38.8946 248.053 38.8946H120.947C114.349 38.8946 109 33.5456 109 26.9473C109 20.349 103.651 15 97.0527 15H40Z" fill="white"/>
    <g clip-path="url(#clip2)">
        <path d="M67.051 3.65744C118.55 5.9513 170.093 3.89047 221.592 2.82728C247.501 2.29569 273.425 2.09907 299.335 2.63795C306.486 2.78359 313.637 2.9438 320.781 3.20595C326.395 3.40985 331.755 5.55807 335.891 9.37388C344.586 17.3915 343.421 28.7442 343.574 39.529C344.142 78.845 344.368 118.146 344.375 157.47C344.382 199.881 344.411 242.284 344.455 284.695C344.499 328.956 344.542 373.209 344.615 417.47C344.673 457.142 344.746 496.815 344.812 536.488C344.863 565.209 344.914 593.929 344.965 622.657C344.972 626.072 345.198 629.568 344.513 632.932C343.435 638.233 340.486 643.025 336.263 646.404C331.544 650.176 326.133 651.363 320.213 651.472C314.103 651.581 307.994 651.698 301.884 651.822C290.618 652.048 279.36 652.528 268.102 652.761C237.081 653.402 206.022 653.103 174.993 652.9C136.857 652.652 98.7208 652.23 60.5917 651.436C53.2805 651.283 45.9693 651.115 38.6581 650.911C37.3473 650.875 37.3546 652.907 38.6581 652.943C75.1486 653.948 111.654 654.378 148.152 654.713C183.557 655.033 218.97 655.288 254.375 654.953C263.158 654.866 271.911 654.618 280.686 654.312C290.611 653.963 300.544 653.81 310.469 653.591C320.817 653.366 331.07 654.072 339.117 646.411C345.482 640.345 346.873 632.677 346.858 624.274C346.851 618.39 346.836 612.506 346.829 606.622C346.8 592.007 346.771 577.384 346.749 562.769C346.676 524.545 346.61 486.329 346.545 448.105C346.472 403.721 346.392 359.344 346.319 314.96C346.246 270.866 346.188 226.781 346.144 182.688C346.108 143.568 346.159 104.456 345.598 65.3368C345.438 53.9767 345.256 42.6093 345.074 31.2493C344.994 26.4504 345.045 21.8117 343.232 17.275C341.586 13.1606 338.848 9.52681 335.345 6.81787C326.286 -0.202067 313.841 1.38543 303.078 1.13784C289.206 0.817425 275.326 0.69363 261.446 0.744604C210.588 0.912092 159.759 3.41713 108.894 3.13313C94.9559 3.05303 81.0107 2.81272 67.0728 2.51415C66.3155 2.49959 66.3227 3.62103 67.051 3.65744Z" fill="#181D23"/>
        <path d="M61.9535 1.66215C56.106 1.23251 50.2293 1.23251 44.3745 1.22522C38.5925 1.21794 32.512 0.671785 26.9412 2.59426C17.9114 5.71099 11.3065 13.9543 10.2797 23.4647C10.0176 25.846 10.1268 28.3 10.1268 30.6959C10.1195 42.6312 10.0977 54.5665 10.0977 66.5019C10.0977 87.7729 10.0977 109.037 10.0977 130.308C10.0977 158.016 10.0977 185.724 10.0904 213.425C10.0904 244.658 10.0904 275.891 10.0831 307.117C10.0831 339.063 10.0831 371.01 10.0759 402.956C10.0759 432.478 10.0759 462.007 10.0686 491.528C10.0686 515.829 10.0686 540.122 10.0686 564.422C10.0686 580.574 10.0686 596.733 10.0686 612.885C10.0686 621.521 8.7942 631.993 12.8649 639.872C15.0277 644.059 18.4211 647.605 22.4845 649.972C27.1232 652.674 31.9513 653.176 37.1944 653.555C38.3668 653.642 38.3595 651.815 37.1944 651.727C30.6914 651.261 24.8439 650.249 19.7829 645.785C15.2825 641.816 12.4207 636.194 11.9546 630.201C11.8818 629.24 11.8891 628.286 11.8891 627.325C11.8818 624.288 11.8891 621.252 11.8891 618.215C11.8891 604.051 11.8891 589.888 11.8891 575.724C11.8891 553.186 11.8891 530.655 11.8891 508.117C11.8891 479.95 11.8891 451.776 11.8818 423.608C11.8818 392.47 11.8818 361.325 11.8745 330.186C11.8745 299.063 11.8745 267.939 11.8672 236.815C11.8672 208.372 11.8672 179.935 11.86 151.491C11.86 128.436 11.86 105.381 11.86 82.3259C11.86 67.5578 11.8527 52.7897 11.8381 38.0216C11.8381 34.6209 11.8308 31.2202 11.8308 27.8194C11.8236 17.5517 16.9356 8.03398 26.9776 4.32011C32.8324 2.15005 39.4008 2.82728 45.5324 2.83457C51.0012 2.84185 56.4919 2.76903 61.9535 3.04575C62.8492 3.08944 62.8346 1.72769 61.9535 1.66215Z" fill="#181D23"/>
        <path d="M37.7551 15.1704C29.4462 15.0539 22.8923 21.382 22.6593 29.6763C22.6447 30.2735 22.6593 30.8779 22.652 31.475C22.6447 35.2034 22.6375 38.9319 22.6229 42.6603C22.5719 58.6518 22.5792 74.6505 22.5938 90.6493C22.6083 115.394 22.6229 140.138 22.652 164.883C22.6884 195.38 22.7248 225.87 22.7613 256.368C22.7977 289.006 22.8341 321.645 22.8778 354.283C22.9142 386.135 22.9506 417.987 22.987 449.838C23.0161 477.569 23.0525 505.299 23.0817 533.029C23.1035 553.353 23.1254 573.678 23.1545 594.002C23.1691 603.826 23.1763 613.642 23.1909 623.465C23.1909 624.172 23.1763 624.885 23.22 625.592C23.5259 630.289 26.0528 634.607 30.0288 637.141C34.7986 640.185 40.8427 639.522 46.2533 639.632C67.5607 640.083 88.8535 639.18 110.161 638.998C152.9 638.634 195.638 639.173 238.369 639.683C254.521 639.872 270.673 640.105 286.824 640.163C291.58 640.178 296.335 640.2 301.09 640.098C303.093 640.054 305.11 640.061 307.047 639.602C311.875 638.452 317.031 639.515 321.88 638.437C326.446 637.418 330.35 634.163 332.177 629.852C334.384 624.638 333.204 618.193 333.029 612.688C332.833 606.418 332.622 600.148 332.447 593.871C332.097 581.251 331.973 568.631 332.287 556.004C332.673 540.617 333.677 525.274 333.83 509.879C334.129 478.697 332.745 447.537 332.316 416.363C331.973 391.443 333.088 366.662 333.961 341.772C335.462 299.194 335.607 256.557 335.534 213.957C335.469 171.466 335.039 128.975 334.391 86.4839C334.158 71.2352 333.903 55.9938 333.612 40.7524C333.503 34.934 334.464 27.5135 331.893 22.1685C329.76 17.7264 325.39 14.6024 320.511 13.9689C314.54 13.197 308.117 13.8742 302.095 13.8742C295.192 13.8669 288.295 13.765 281.399 13.765C274.438 13.765 266.544 12.6435 261.883 19.0954C260.565 20.916 259.742 23.0351 259.502 25.2707C259.204 28.0888 259.458 30.5866 257.936 33.179C255.854 36.7254 252.22 38.444 248.222 38.5896C245.418 38.6916 242.6 38.6187 239.797 38.6333C210.792 38.7717 181.78 38.91 152.776 39.0484C142.974 39.0921 133.18 39.143 123.378 39.1867C122.628 39.1867 121.863 39.2232 121.113 39.1649C117.88 38.9246 114.923 37.2497 113.037 34.6281C111.006 31.81 111.217 29.101 110.962 25.8605C110.591 21.1708 107.583 16.9545 103.265 15.0757C99.0485 13.2406 93.8636 14.0781 89.3851 14.1582C72.2358 14.464 54.9044 15.4544 37.7551 14.8427C36.5098 14.799 36.5098 16.7361 37.7551 16.7797C55.2976 17.4133 73.0223 16.3938 90.5648 16.0734C96.223 15.9714 102.486 14.9956 106.549 19.8965C110.132 24.2148 108.027 29.6763 110.569 34.366C113.205 39.2304 118.113 41.1383 123.371 41.1092C148.632 40.9854 173.894 40.8616 199.155 40.7378C212.358 40.6723 225.56 40.6068 238.755 40.5485C241.792 40.5339 244.829 40.5485 247.865 40.5048C254.499 40.4101 260.383 36.1064 261.242 29.2467C261.57 26.6397 261.235 24.2657 262.459 21.7825C263.93 18.8114 266.748 16.605 269.988 15.9132C272.654 15.3452 275.661 15.6729 278.355 15.6729C284.647 15.6729 290.932 15.7457 297.216 15.7748C303.668 15.8039 310.127 15.7821 316.579 15.753C323.082 15.7238 329.141 18.4182 330.99 25.2124C331.799 28.1835 331.507 31.6206 331.566 34.6937C331.624 37.49 331.675 40.2791 331.726 43.0754C332.396 78.4154 332.906 113.763 333.248 149.103C333.67 193.4 333.852 237.704 333.357 282.001C333.139 301.699 332.789 321.397 332.104 341.08C331.253 365.599 330.102 390.023 330.43 414.579C330.845 445.367 332.25 476.149 332.054 506.945C331.879 534.871 329.862 562.682 330.561 590.63C330.714 596.689 330.918 602.748 331.107 608.814C331.202 611.748 331.296 614.676 331.376 617.611C331.478 621.019 331.988 624.711 330.939 628.009C329.993 630.98 327.968 633.544 325.296 635.16C322.128 637.076 318.8 636.981 315.225 637.054C312.785 637.105 310.215 637.054 307.804 637.505C307.207 637.614 306.705 637.884 306.158 638.029C305.503 638.204 306.559 637.935 306.144 638.029C304.185 638.481 301.432 638.306 299.262 638.343C294.165 638.415 289.06 638.394 283.963 638.365C246.7 638.168 209.438 637.483 172.175 637.236C150.846 637.09 129.517 637.039 108.187 637.236C87.0111 637.432 65.864 638.299 44.6876 637.818C38.1702 637.673 31.3541 638.073 27.2033 632.029C25.6668 629.793 25.0114 627.281 24.9313 624.601C24.9095 623.917 24.9313 623.232 24.9313 622.548C24.924 618.761 24.924 614.974 24.9168 611.188C24.8949 595.298 24.8803 579.401 24.8585 563.512C24.8294 539.095 24.8002 514.685 24.7711 490.269C24.7347 460.419 24.6983 430.57 24.6619 400.721C24.6255 368.519 24.5891 336.318 24.5454 304.117C24.509 272.643 24.4725 241.177 24.4361 209.704C24.407 182.047 24.3779 154.397 24.3342 126.739C24.2978 105.985 24.2687 85.2241 24.2031 64.4702C24.1667 53.6854 24.1303 42.8933 24.0793 32.1085C24.0793 31.3658 24.0502 30.623 24.072 29.8802C24.2322 22.2267 30.0142 16.3938 37.7332 16.452C38.5852 16.4666 38.5852 15.185 37.7551 15.1704Z" fill="#181D23"/>
        <path d="M345.387 123.965C344.885 154.062 345.198 184.188 345.22 214.285C345.241 247.542 345.278 280.792 345.314 314.049C345.358 347.787 345.351 381.525 345.394 415.263C345.431 446.714 345.474 478.166 345.511 509.624C345.547 536.022 345.576 562.42 345.627 588.817C345.649 599.289 345.664 609.76 345.686 620.239C345.693 624.623 345.7 629.014 345.707 633.398C345.715 639.639 345.758 645.596 342.416 651.152C338.156 658.237 330.612 662.184 322.456 662.374C315.006 662.548 307.549 662.643 300.092 662.767C289.635 662.942 279.135 662.854 268.692 663.408C251.346 664.318 233.898 664.041 216.538 664.012C187.817 663.968 159.097 663.815 130.376 663.517C102.143 663.226 73.9107 662.854 45.6853 662.228C40.1873 662.104 34.6893 661.973 29.1986 661.82C27.8879 661.784 27.8952 663.815 29.1986 663.852C55.9385 664.587 82.6929 664.981 109.44 665.308C139.326 665.665 169.204 665.905 199.09 665.964C220.07 666.007 241.078 666.08 262.058 665.519C268.568 665.345 275.071 665.068 281.589 664.951C289.016 664.813 296.444 664.697 303.865 664.565C311.147 664.442 318.815 664.973 326.039 663.976C333 663.014 339.299 659.06 343.268 653.271C346.989 647.831 347.593 641.882 347.579 635.495C347.564 626.342 347.543 617.195 347.528 608.042C347.484 583.334 347.426 558.626 347.375 533.917C347.309 503.231 347.244 472.537 347.178 441.85C347.113 408.185 347.04 374.52 346.96 340.855C346.88 306.942 346.851 273.029 346.814 239.124C346.778 207.687 346.749 176.25 346.734 144.813C346.727 137.859 346.654 130.912 346.538 123.958C346.516 123.229 345.394 123.229 345.387 123.965Z" fill="#181D23"/>
        <path d="M25.4265 2.09906C11.4376 2.28839 0.776635 13.5465 0.68925 27.397C0.674686 30.055 0.681968 32.713 0.681968 35.3782C0.667404 48.9229 0.652839 62.4749 0.645557 76.0196C0.623711 98.4266 0.638275 120.826 0.630993 143.233C0.630993 171.502 0.630993 199.764 0.623711 228.033C0.623711 259.419 0.623711 290.805 0.616429 322.198C0.616429 353.904 0.616429 385.61 0.609147 417.317C0.609147 446.54 0.609147 475.755 0.601865 504.978C0.601865 528.907 0.601865 552.836 0.601865 576.765C0.601865 592.604 0.601865 608.442 0.601865 624.274C0.601865 632.969 -0.643373 643.302 3.60209 651.181C5.76487 655.201 9.07822 658.609 13.0178 660.903C17.6492 663.604 22.4918 664.107 27.7277 664.485C28.9001 664.573 28.8928 662.745 27.7277 662.658C21.3777 662.199 15.6539 661.252 10.6366 656.999C6.20179 653.235 3.23798 647.824 2.57531 642.027C2.42967 640.782 2.42967 639.544 2.42239 638.299C2.41511 635.357 2.42239 632.408 2.42239 629.466C2.42239 615.659 2.42239 601.852 2.42239 588.045C2.42239 565.813 2.42239 543.581 2.42239 521.341C2.42239 493.502 2.42239 465.67 2.41511 437.83C2.41511 406.983 2.41511 376.144 2.40782 345.297C2.40782 314.006 2.40782 282.707 2.40054 251.416C2.40054 222.557 2.40054 193.698 2.39326 164.847C2.39326 140.903 2.39326 116.967 2.39326 93.0232C2.39326 76.8352 2.37141 60.6471 2.35685 44.459C2.34957 38.0362 1.89079 31.4386 2.40782 25.0231C3.36906 12.9639 13.5057 3.92686 25.4265 3.48265C26.3149 3.45353 26.3222 2.09177 25.4265 2.09906Z" fill="#181D23"/>
        <path d="M2.34227 24.0982C4.16279 23.2608 5.93962 22.336 7.59266 21.1927C9.01995 20.2096 10.3307 19.0809 11.6779 18.0031C12.3551 17.457 11.4449 16.2627 10.7385 16.787C9.39862 17.792 8.09512 18.8624 6.73337 19.8455C5.12403 21.0106 3.38361 21.9719 1.5995 22.8384C1.24268 23.0132 1.14801 23.5157 1.33734 23.8361C1.55581 24.2075 1.97817 24.2657 2.34227 24.0982Z" fill="#181D23"/>
        <path d="M2.34227 77.9857C4.16279 77.1483 5.93962 76.2234 7.59266 75.0802C9.01995 74.0971 10.3307 72.9684 11.6779 71.8906C12.3551 71.3445 11.4449 70.1502 10.7385 70.6745C9.39862 71.6794 8.09512 72.7499 6.73337 73.733C5.12403 74.8981 3.38361 75.8594 1.5995 76.7259C1.24268 76.9007 1.14801 77.4032 1.33734 77.7236C1.55581 78.095 1.97817 78.1532 2.34227 77.9857Z" fill="#181D23"/>
        <path d="M2.34229 68.9705C4.35943 67.8126 6.38385 66.6475 8.29176 65.3076C9.38407 64.5357 10.4327 63.7201 11.5469 62.9919C12.377 62.453 11.627 61.135 10.7677 61.6593C9.62438 62.3511 8.55391 63.123 7.47616 63.9094C5.5901 65.2858 3.60937 66.5091 1.61408 67.718C0.805766 68.1913 1.52669 69.4365 2.34229 68.9705Z" fill="#181D23"/>
        <path d="M2.16751 60.0135C3.60937 59.5038 4.88373 58.6591 6.12897 57.7852C7.93493 56.5108 9.71176 55.1928 11.5468 53.9548C12.3624 53.4014 11.6197 52.0833 10.7677 52.6222C8.92529 53.7873 7.19216 55.069 5.43717 56.3725C4.30117 57.2172 3.07777 58.1202 1.78156 58.6154C0.914993 58.9358 1.27182 60.3267 2.16751 60.0135Z" fill="#181D23"/>
        <path d="M2.34228 50.9109C5.35706 48.8282 8.52477 46.9931 11.5468 44.9323C12.3624 44.3788 11.6124 43.0535 10.7677 43.5997C7.68005 45.5731 4.57788 47.5029 1.61407 49.6584C1.29366 49.8914 1.14073 50.2919 1.35191 50.656C1.53396 50.9691 2.01458 51.1293 2.34228 50.9109Z" fill="#181D23"/>
        <path d="M2.34228 41.8811C5.58281 40.1407 8.61944 38.1309 11.5468 35.9025C11.8818 35.6477 12.0566 35.2326 11.8236 34.8466C11.6269 34.5117 11.1099 34.3223 10.7677 34.5699C7.782 36.6963 4.80363 38.8154 1.61407 40.6286C0.791195 41.0874 1.51212 42.3181 2.34228 41.8811Z" fill="#181D23"/>
        <path d="M2.34227 32.8513C3.77684 31.8901 5.29151 31.0672 6.77706 30.2079C8.52476 29.1957 10.1487 28.0451 11.6998 26.7489C12.0202 26.4795 11.9765 25.9333 11.6998 25.6566C11.3721 25.3289 10.9351 25.3944 10.6074 25.6566C9.10733 26.8363 7.51255 27.9141 5.88136 28.9044C4.44679 29.7783 2.99037 30.623 1.61406 31.5915C0.849437 32.1231 1.5558 33.3756 2.34227 32.8513Z" fill="#181D23"/>
        <path d="M2.34227 131.873C4.16279 131.036 5.93962 130.111 7.59266 128.968C9.01995 127.985 10.3307 126.856 11.6779 125.778C12.3551 125.232 11.4449 124.038 10.7385 124.562C9.39862 125.567 8.09512 126.637 6.73337 127.62C5.12403 128.786 3.38361 129.747 1.5995 130.613C1.24268 130.788 1.14801 131.291 1.33734 131.611C1.55581 131.982 1.97817 132.041 2.34227 131.873Z" fill="#181D23"/>
        <path d="M2.34229 122.858C4.35943 121.7 6.38385 120.535 8.29176 119.195C9.38407 118.423 10.4327 117.608 11.5469 116.879C12.377 116.341 11.627 115.022 10.7677 115.547C9.62438 116.239 8.55391 117.01 7.47616 117.797C5.5901 119.173 3.60937 120.397 1.61408 121.605C0.805766 122.079 1.52669 123.324 2.34229 122.858Z" fill="#181D23"/>
        <path d="M2.16751 113.901C3.60937 113.391 4.88373 112.547 6.12897 111.673C7.93493 110.398 9.71176 109.08 11.5468 107.842C12.3624 107.289 11.6197 105.971 10.7677 106.51C8.92529 107.675 7.19216 108.956 5.43717 110.26C4.30117 111.105 3.07777 112.008 1.78156 112.503C0.914993 112.823 1.27182 114.214 2.16751 113.901Z" fill="#181D23"/>
        <path d="M2.34228 104.798C5.35706 102.716 8.52477 100.881 11.5468 98.8198C12.3624 98.2663 11.6124 96.941 10.7677 97.4871C7.68005 99.4606 4.57788 101.39 1.61407 103.546C1.29366 103.779 1.14073 104.179 1.35191 104.543C1.53396 104.857 2.01458 105.017 2.34228 104.798Z" fill="#181D23"/>
        <path d="M2.34228 95.7686C5.58281 94.0282 8.61944 92.0183 11.5468 89.79C11.8818 89.5351 12.0566 89.12 11.8236 88.7341C11.6269 88.3991 11.1099 88.2098 10.7677 88.4574C7.782 90.5838 4.80363 92.7028 1.61407 94.5161C0.791195 94.9749 1.51212 96.2055 2.34228 95.7686Z" fill="#181D23"/>
        <path d="M2.34227 86.7388C3.77684 85.7775 5.29151 84.9547 6.77706 84.0954C8.52476 83.0832 10.1487 81.9326 11.6998 80.6364C12.0202 80.367 11.9765 79.8208 11.6998 79.5441C11.3721 79.2164 10.9351 79.2819 10.6074 79.5441C9.10733 80.7238 7.51255 81.8015 5.88136 82.7919C4.44679 83.6657 2.99037 84.5105 1.61406 85.479C0.849437 86.0106 1.5558 87.2631 2.34227 86.7388Z" fill="#181D23"/>
        <path d="M2.34227 185.761C4.16279 184.923 5.93962 183.998 7.59266 182.855C9.01995 181.872 10.3307 180.743 11.6779 179.666C12.3551 179.119 11.4449 177.925 10.7385 178.449C9.39862 179.454 8.09512 180.525 6.73337 181.508C5.12403 182.673 3.38361 183.634 1.5995 184.501C1.24268 184.676 1.14801 185.178 1.33734 185.499C1.55581 185.87 1.97817 185.928 2.34227 185.761Z" fill="#181D23"/>
        <path d="M2.34229 176.745C4.35943 175.588 6.38385 174.422 8.29176 173.083C9.38407 172.311 10.4327 171.495 11.5469 170.767C12.377 170.228 11.627 168.91 10.7677 169.434C9.62438 170.126 8.55391 170.898 7.47616 171.684C5.5901 173.061 3.60937 174.284 1.61408 175.493C0.805766 175.966 1.52669 177.212 2.34229 176.745Z" fill="#181D23"/>
        <path d="M2.16751 167.788C3.60937 167.279 4.88373 166.434 6.12897 165.56C7.93493 164.286 9.71176 162.968 11.5468 161.73C12.3624 161.176 11.6197 159.858 10.7677 160.397C8.92529 161.562 7.19216 162.844 5.43717 164.147C4.30117 164.992 3.07777 165.895 1.78156 166.39C0.914993 166.711 1.27182 168.102 2.16751 167.788Z" fill="#181D23"/>
        <path d="M2.34228 158.686C5.35706 156.603 8.52477 154.768 11.5468 152.707C12.3624 152.154 11.6124 150.828 10.7677 151.375C7.68005 153.348 4.57788 155.278 1.61407 157.433C1.29366 157.666 1.14073 158.067 1.35191 158.431C1.53396 158.744 2.01458 158.904 2.34228 158.686Z" fill="#181D23"/>
        <path d="M2.34228 149.656C5.58281 147.916 8.61944 145.906 11.5468 143.678C11.8818 143.423 12.0566 143.008 11.8236 142.622C11.6269 142.287 11.1099 142.097 10.7677 142.345C7.782 144.471 4.80363 146.59 1.61407 148.404C0.791195 148.862 1.51212 150.093 2.34228 149.656Z" fill="#181D23"/>
        <path d="M2.34227 140.626C3.77684 139.665 5.29151 138.842 6.77706 137.983C8.52476 136.971 10.1487 135.82 11.6998 134.524C12.0202 134.254 11.9765 133.708 11.6998 133.432C11.3721 133.104 10.9351 133.169 10.6074 133.432C9.10733 134.611 7.51255 135.689 5.88136 136.679C4.44679 137.553 2.99037 138.398 1.61406 139.366C0.849437 139.898 1.5558 141.151 2.34227 140.626Z" fill="#181D23"/>
        <path d="M2.34227 241.105C4.16279 240.267 5.93962 239.342 7.59266 238.199C9.01995 237.216 10.3307 236.087 11.6779 235.009C12.3551 234.463 11.4449 233.269 10.7385 233.793C9.39862 234.798 8.09512 235.869 6.73337 236.852C5.12403 238.017 3.38361 238.978 1.5995 239.845C1.24268 240.02 1.14801 240.522 1.33734 240.842C1.55581 241.214 1.97817 241.272 2.34227 241.105Z" fill="#181D23"/>
        <path d="M2.34229 232.089C4.35943 230.931 6.38385 229.766 8.29176 228.426C9.38407 227.655 10.4327 226.839 11.5469 226.111C12.377 225.572 11.627 224.254 10.7677 224.778C9.62438 225.47 8.55391 226.242 7.47616 227.028C5.5901 228.405 3.60937 229.628 1.61408 230.837C0.805766 231.31 1.52669 232.555 2.34229 232.089Z" fill="#181D23"/>
        <path d="M2.16751 223.132C3.60937 222.623 4.88373 221.778 6.12897 220.904C7.93493 219.63 9.71176 218.312 11.5468 217.074C12.3624 216.52 11.6197 215.202 10.7677 215.741C8.92529 216.906 7.19216 218.188 5.43717 219.491C4.30117 220.336 3.07777 221.239 1.78156 221.734C0.914993 222.055 1.27182 223.446 2.16751 223.132Z" fill="#181D23"/>
        <path d="M2.34228 214.03C5.35706 211.947 8.52477 210.112 11.5468 208.051C12.3624 207.498 11.6124 206.172 10.7677 206.718C7.68005 208.692 4.57788 210.622 1.61407 212.777C1.29366 213.01 1.14073 213.411 1.35191 213.775C1.53396 214.088 2.01458 214.248 2.34228 214.03Z" fill="#181D23"/>
        <path d="M2.34228 205C5.58281 203.26 8.61944 201.25 11.5468 199.021C11.8818 198.766 12.0566 198.351 11.8236 197.965C11.6269 197.63 11.1099 197.441 10.7677 197.689C7.782 199.815 4.80363 201.934 1.61407 203.747C0.791195 204.206 1.51212 205.437 2.34228 205Z" fill="#181D23"/>
        <path d="M2.34227 195.97C3.77684 195.009 5.29151 194.186 6.77706 193.327C8.52476 192.315 10.1487 191.164 11.6998 189.868C12.0202 189.598 11.9765 189.052 11.6998 188.775C11.3721 188.448 10.9351 188.513 10.6074 188.775C9.10733 189.955 7.51255 191.033 5.88136 192.023C4.44679 192.897 2.99037 193.742 1.61406 194.71C0.849437 195.242 1.5558 196.494 2.34227 195.97Z" fill="#181D23"/>
        <path d="M2.34227 294.992C4.16279 294.155 5.93962 293.23 7.59266 292.086C9.01995 291.103 10.3307 289.975 11.6779 288.897C12.3551 288.351 11.4449 287.157 10.7385 287.681C9.39862 288.686 8.09512 289.756 6.73337 290.739C5.12403 291.904 3.38361 292.866 1.5995 293.732C1.24268 293.907 1.14801 294.409 1.33734 294.73C1.55581 295.101 1.97817 295.159 2.34227 294.992Z" fill="#181D23"/>
        <path d="M2.34229 285.977C4.35943 284.819 6.38385 283.654 8.29176 282.314C9.38407 281.542 10.4327 280.726 11.5469 279.998C12.377 279.459 11.627 278.141 10.7677 278.666C9.62438 279.357 8.55391 280.129 7.47616 280.916C5.5901 282.292 3.60937 283.515 1.61408 284.724C0.805766 285.198 1.52669 286.443 2.34229 285.977Z" fill="#181D23"/>
        <path d="M2.16751 277.02C3.60937 276.51 4.88373 275.665 6.12897 274.792C7.93493 273.517 9.71176 272.199 11.5468 270.961C12.3624 270.408 11.6197 269.09 10.7677 269.629C8.92529 270.794 7.19216 272.075 5.43717 273.379C4.30117 274.224 3.07777 275.127 1.78156 275.622C0.914993 275.942 1.27182 277.333 2.16751 277.02Z" fill="#181D23"/>
        <path d="M2.34228 267.917C5.35706 265.835 8.52477 263.999 11.5468 261.939C12.3624 261.385 11.6124 260.06 10.7677 260.606C7.68005 262.579 4.57788 264.509 1.61407 266.665C1.29366 266.898 1.14073 267.298 1.35191 267.662C1.53396 267.975 2.01458 268.136 2.34228 267.917Z" fill="#181D23"/>
        <path d="M2.34228 258.887C5.58281 257.147 8.61944 255.137 11.5468 252.909C11.8818 252.654 12.0566 252.239 11.8236 251.853C11.6269 251.518 11.1099 251.329 10.7677 251.576C7.782 253.703 4.80363 255.822 1.61407 257.635C0.791195 258.094 1.51212 259.324 2.34228 258.887Z" fill="#181D23"/>
        <path d="M2.34227 249.858C3.77684 248.896 5.29151 248.074 6.77706 247.214C8.52476 246.202 10.1487 245.051 11.6998 243.755C12.0202 243.486 11.9765 242.94 11.6998 242.663C11.3721 242.335 10.9351 242.401 10.6074 242.663C9.10733 243.843 7.51255 244.92 5.88136 245.911C4.44679 246.785 2.99037 247.629 1.61406 248.598C0.849437 249.129 1.5558 250.382 2.34227 249.858Z" fill="#181D23"/>
        <path d="M2.34227 350.336C4.16279 349.499 5.93962 348.574 7.59266 347.43C9.01995 346.447 10.3307 345.319 11.6779 344.241C12.3551 343.695 11.4449 342.5 10.7385 343.025C9.39862 344.03 8.09512 345.1 6.73337 346.083C5.12403 347.248 3.38361 348.21 1.5995 349.076C1.24268 349.251 1.14801 349.753 1.33734 350.074C1.55581 350.445 1.97817 350.503 2.34227 350.336Z" fill="#181D23"/>
        <path d="M2.34229 341.321C4.35943 340.163 6.38385 338.998 8.29176 337.658C9.38407 336.886 10.4327 336.07 11.5469 335.342C12.377 334.803 11.627 333.485 10.7677 334.01C9.62438 334.701 8.55391 335.473 7.47616 336.26C5.5901 337.636 3.60937 338.859 1.61408 340.068C0.805766 340.542 1.52669 341.787 2.34229 341.321Z" fill="#181D23"/>
        <path d="M2.16751 332.364C3.60937 331.854 4.88373 331.009 6.12897 330.135C7.93493 328.861 9.71176 327.543 11.5468 326.305C12.3624 325.752 11.6197 324.434 10.7677 324.972C8.92529 326.138 7.19216 327.419 5.43717 328.723C4.30117 329.567 3.07777 330.47 1.78156 330.966C0.914993 331.286 1.27182 332.677 2.16751 332.364Z" fill="#181D23"/>
        <path d="M2.34228 323.261C5.35706 321.178 8.52477 319.343 11.5468 317.283C12.3624 316.729 11.6124 315.404 10.7677 315.95C7.68005 317.923 4.57788 319.853 1.61407 322.009C1.29366 322.242 1.14073 322.642 1.35191 323.006C1.53396 323.319 2.01458 323.48 2.34228 323.261Z" fill="#181D23"/>
        <path d="M2.34228 314.231C5.58281 312.491 8.61944 310.481 11.5468 308.253C11.8818 307.998 12.0566 307.583 11.8236 307.197C11.6269 306.862 11.1099 306.673 10.7677 306.92C7.782 309.047 4.80363 311.166 1.61407 312.979C0.791195 313.438 1.51212 314.668 2.34228 314.231Z" fill="#181D23"/>
        <path d="M2.34227 305.202C3.77684 304.24 5.29151 303.417 6.77706 302.558C8.52476 301.546 10.1487 300.395 11.6998 299.099C12.0202 298.83 11.9765 298.284 11.6998 298.007C11.3721 297.679 10.9351 297.745 10.6074 298.007C9.10733 299.187 7.51255 300.264 5.88136 301.255C4.44679 302.129 2.99037 302.973 1.61406 303.942C0.849437 304.473 1.5558 305.726 2.34227 305.202Z" fill="#181D23"/>
        <path d="M2.34227 407.136C4.16279 406.299 5.93962 405.374 7.59266 404.231C9.01995 403.248 10.3307 402.119 11.6779 401.041C12.3551 400.495 11.4449 399.301 10.7385 399.825C9.39862 400.83 8.09512 401.9 6.73337 402.884C5.12403 404.049 3.38361 405.01 1.5995 405.876C1.24268 406.051 1.14801 406.554 1.33734 406.874C1.55581 407.246 1.97817 407.304 2.34227 407.136Z" fill="#181D23"/>
        <path d="M2.34229 398.121C4.35943 396.963 6.38385 395.798 8.29176 394.458C9.38407 393.686 10.4327 392.871 11.5469 392.142C12.377 391.604 11.627 390.285 10.7677 390.81C9.62438 391.502 8.55391 392.273 7.47616 393.06C5.5901 394.436 3.60937 395.66 1.61408 396.868C0.805766 397.342 1.52669 398.587 2.34229 398.121Z" fill="#181D23"/>
        <path d="M2.16751 389.164C3.60937 388.654 4.88373 387.81 6.12897 386.936C7.93493 385.661 9.71176 384.343 11.5468 383.105C12.3624 382.552 11.6197 381.234 10.7677 381.773C8.92529 382.938 7.19216 384.22 5.43717 385.523C4.30117 386.368 3.07777 387.271 1.78156 387.766C0.914993 388.086 1.27182 389.477 2.16751 389.164Z" fill="#181D23"/>
        <path d="M2.34228 380.061C5.35706 377.979 8.52477 376.144 11.5468 374.083C12.3624 373.529 11.6124 372.204 10.7677 372.75C7.68005 374.724 4.57788 376.653 1.61407 378.809C1.29366 379.042 1.14073 379.442 1.35191 379.807C1.53396 380.12 2.01458 380.28 2.34228 380.061Z" fill="#181D23"/>
        <path d="M2.34228 371.032C5.58281 369.291 8.61944 367.281 11.5468 365.053C11.8818 364.798 12.0566 364.383 11.8236 363.997C11.6269 363.662 11.1099 363.473 10.7677 363.72C7.782 365.847 4.80363 367.966 1.61407 369.779C0.791195 370.238 1.51212 371.469 2.34228 371.032Z" fill="#181D23"/>
        <path d="M2.34227 362.002C3.77684 361.041 5.29151 360.218 6.77706 359.358C8.52476 358.346 10.1487 357.196 11.6998 355.899C12.0202 355.63 11.9765 355.084 11.6998 354.807C11.3721 354.479 10.9351 354.545 10.6074 354.807C9.10733 355.987 7.51255 357.065 5.88136 358.055C4.44679 358.929 2.99037 359.774 1.61406 360.742C0.849437 361.274 1.5558 362.526 2.34227 362.002Z" fill="#181D23"/>
        <path d="M2.34227 461.024C4.16279 460.186 5.93962 459.261 7.59266 458.118C9.01995 457.135 10.3307 456.006 11.6779 454.929C12.3551 454.382 11.4449 453.188 10.7385 453.713C9.39862 454.717 8.09512 455.788 6.73337 456.771C5.12403 457.936 3.38361 458.897 1.5995 459.764C1.24268 459.939 1.14801 460.441 1.33734 460.762C1.55581 461.133 1.97817 461.191 2.34227 461.024Z" fill="#181D23"/>
        <path d="M2.34229 452.009C4.35943 450.851 6.38385 449.686 8.29176 448.346C9.38407 447.574 10.4327 446.758 11.5469 446.03C12.377 445.491 11.627 444.173 10.7677 444.697C9.62438 445.389 8.55391 446.161 7.47616 446.947C5.5901 448.324 3.60937 449.547 1.61408 450.756C0.805766 451.229 1.52669 452.475 2.34229 452.009Z" fill="#181D23"/>
        <path d="M2.16751 443.052C3.60937 442.542 4.88373 441.697 6.12897 440.823C7.93493 439.549 9.71176 438.231 11.5468 436.993C12.3624 436.439 11.6197 435.121 10.7677 435.66C8.92529 436.825 7.19216 438.107 5.43717 439.41C4.30117 440.255 3.07777 441.158 1.78156 441.653C0.914993 441.974 1.27182 443.365 2.16751 443.052Z" fill="#181D23"/>
        <path d="M2.34228 433.949C5.35706 431.866 8.52477 430.031 11.5468 427.97C12.3624 427.417 11.6124 426.092 10.7677 426.638C7.68005 428.611 4.57788 430.541 1.61407 432.696C1.29366 432.929 1.14073 433.33 1.35191 433.694C1.53396 434.007 2.01458 434.167 2.34228 433.949Z" fill="#181D23"/>
        <path d="M2.34228 424.919C5.58281 423.179 8.61944 421.169 11.5468 418.94C11.8818 418.686 12.0566 418.271 11.8236 417.885C11.6269 417.55 11.1099 417.36 10.7677 417.608C7.782 419.734 4.80363 421.853 1.61407 423.667C0.791195 424.125 1.51212 425.356 2.34228 424.919Z" fill="#181D23"/>
        <path d="M2.34227 415.889C3.77684 414.928 5.29151 414.105 6.77706 413.246C8.52476 412.234 10.1487 411.083 11.6998 409.787C12.0202 409.517 11.9765 408.971 11.6998 408.695C11.3721 408.367 10.9351 408.432 10.6074 408.695C9.10733 409.874 7.51255 410.952 5.88136 411.942C4.44679 412.816 2.99037 413.661 1.61406 414.63C0.849437 415.161 1.5558 416.414 2.34227 415.889Z" fill="#181D23"/>
        <path d="M2.34227 514.911C4.16279 514.074 5.93962 513.149 7.59266 512.006C9.01995 511.023 10.3307 509.894 11.6779 508.816C12.3551 508.27 11.4449 507.076 10.7385 507.6C9.39862 508.605 8.09512 509.675 6.73337 510.659C5.12403 511.824 3.38361 512.785 1.5995 513.651C1.24268 513.826 1.14801 514.329 1.33734 514.649C1.55581 515.02 1.97817 515.079 2.34227 514.911Z" fill="#181D23"/>
        <path d="M2.34229 505.896C4.35943 504.738 6.38385 503.573 8.29176 502.233C9.38407 501.461 10.4327 500.646 11.5469 499.917C12.377 499.379 11.627 498.06 10.7677 498.585C9.62438 499.277 8.55391 500.048 7.47616 500.835C5.5901 502.211 3.60937 503.435 1.61408 504.643C0.805766 505.117 1.52669 506.362 2.34229 505.896Z" fill="#181D23"/>
        <path d="M2.16751 496.939C3.60937 496.429 4.88373 495.585 6.12897 494.711C7.93493 493.436 9.71176 492.118 11.5468 490.88C12.3624 490.327 11.6197 489.009 10.7677 489.548C8.92529 490.713 7.19216 491.994 5.43717 493.298C4.30117 494.143 3.07777 495.046 1.78156 495.541C0.914993 495.861 1.27182 497.252 2.16751 496.939Z" fill="#181D23"/>
        <path d="M2.34228 487.836C5.35706 485.754 8.52477 483.919 11.5468 481.858C12.3624 481.304 11.6124 479.979 10.7677 480.525C7.68005 482.499 4.57788 484.428 1.61407 486.584C1.29366 486.817 1.14073 487.217 1.35191 487.582C1.53396 487.895 2.01458 488.055 2.34228 487.836Z" fill="#181D23"/>
        <path d="M2.34228 478.807C5.58281 477.066 8.61944 475.056 11.5468 472.828C11.8818 472.573 12.0566 472.158 11.8236 471.772C11.6269 471.437 11.1099 471.248 10.7677 471.495C7.782 473.622 4.80363 475.741 1.61407 477.554C0.791195 478.013 1.51212 479.244 2.34228 478.807Z" fill="#181D23"/>
        <path d="M2.34227 469.777C3.77684 468.816 5.29151 467.993 6.77706 467.133C8.52476 466.121 10.1487 464.971 11.6998 463.674C12.0202 463.405 11.9765 462.859 11.6998 462.582C11.3721 462.254 10.9351 462.32 10.6074 462.582C9.10733 463.762 7.51255 464.84 5.88136 465.83C4.44679 466.704 2.99037 467.548 1.61406 468.517C0.849437 469.049 1.5558 470.301 2.34227 469.777Z" fill="#181D23"/>
        <path d="M2.34227 568.799C4.16279 567.961 5.93962 567.036 7.59266 565.893C9.01995 564.91 10.3307 563.781 11.6779 562.704C12.3551 562.157 11.4449 560.963 10.7385 561.487C9.39862 562.492 8.09512 563.563 6.73337 564.546C5.12403 565.711 3.38361 566.672 1.5995 567.539C1.24268 567.714 1.14801 568.216 1.33734 568.536C1.55581 568.908 1.97817 568.966 2.34227 568.799Z" fill="#181D23"/>
        <path d="M2.34229 559.783C4.35943 558.626 6.38385 557.46 8.29176 556.121C9.38407 555.349 10.4327 554.533 11.5469 553.805C12.377 553.266 11.627 551.948 10.7677 552.472C9.62438 553.164 8.55391 553.936 7.47616 554.722C5.5901 556.099 3.60937 557.322 1.61408 558.531C0.805766 559.004 1.52669 560.25 2.34229 559.783Z" fill="#181D23"/>
        <path d="M2.16751 550.826C3.60937 550.317 4.88373 549.472 6.12897 548.598C7.93493 547.324 9.71176 546.006 11.5468 544.768C12.3624 544.214 11.6197 542.896 10.7677 543.435C8.92529 544.6 7.19216 545.882 5.43717 547.185C4.30117 548.03 3.07777 548.933 1.78156 549.428C0.914993 549.749 1.27182 551.14 2.16751 550.826Z" fill="#181D23"/>
        <path d="M2.34228 541.724C5.35706 539.641 8.52477 537.806 11.5468 535.745C12.3624 535.192 11.6124 533.867 10.7677 534.413C7.68005 536.386 4.57788 538.316 1.61407 540.471C1.29366 540.704 1.14073 541.105 1.35191 541.469C1.53396 541.782 2.01458 541.942 2.34228 541.724Z" fill="#181D23"/>
        <path d="M2.34228 532.694C5.58281 530.954 8.61944 528.944 11.5468 526.715C11.8818 526.461 12.0566 526.045 11.8236 525.66C11.6269 525.325 11.1099 525.135 10.7677 525.383C7.782 527.509 4.80363 529.628 1.61407 531.442C0.791195 531.9 1.51212 533.131 2.34228 532.694Z" fill="#181D23"/>
        <path d="M2.34227 523.664C3.77684 522.703 5.29151 521.88 6.77706 521.021C8.52476 520.009 10.1487 518.858 11.6998 517.562C12.0202 517.292 11.9765 516.746 11.6998 516.47C11.3721 516.142 10.9351 516.207 10.6074 516.47C9.10733 517.649 7.51255 518.727 5.88136 519.717C4.44679 520.591 2.99037 521.436 1.61406 522.404C0.849437 522.936 1.5558 524.189 2.34227 523.664Z" fill="#181D23"/>
        <path d="M2.34227 624.143C4.16279 623.305 5.93962 622.38 7.59266 621.237C9.01995 620.254 10.3307 619.125 11.6779 618.047C12.3551 617.501 11.4449 616.307 10.7385 616.831C9.39862 617.836 8.09512 618.907 6.73337 619.89C5.12403 621.055 3.38361 622.016 1.5995 622.883C1.24268 623.057 1.14801 623.56 1.33734 623.88C1.55581 624.252 1.97817 624.31 2.34227 624.143Z" fill="#181D23"/>
        <path d="M2.34229 615.127C4.35943 613.969 6.38385 612.804 8.29176 611.464C9.38407 610.693 10.4327 609.877 11.5469 609.149C12.377 608.61 11.627 607.292 10.7677 607.816C9.62438 608.508 8.55391 609.28 7.47616 610.066C5.5901 611.443 3.60937 612.666 1.61408 613.875C0.805766 614.348 1.52669 615.593 2.34229 615.127Z" fill="#181D23"/>
        <path d="M2.16751 606.17C3.60937 605.661 4.88373 604.816 6.12897 603.942C7.93493 602.668 9.71176 601.35 11.5468 600.112C12.3624 599.558 11.6197 598.24 10.7677 598.779C8.92529 599.944 7.19216 601.226 5.43717 602.529C4.30117 603.374 3.07777 604.277 1.78156 604.772C0.914993 605.093 1.27182 606.484 2.16751 606.17Z" fill="#181D23"/>
        <path d="M2.34228 597.068C5.35706 594.985 8.52477 593.15 11.5468 591.089C12.3624 590.536 11.6124 589.21 10.7677 589.757C7.68005 591.73 4.57788 593.66 1.61407 595.815C1.29366 596.048 1.14073 596.449 1.35191 596.813C1.53396 597.126 2.01458 597.286 2.34228 597.068Z" fill="#181D23"/>
        <path d="M2.34228 588.038C5.58281 586.298 8.61944 584.288 11.5468 582.059C11.8818 581.805 12.0566 581.389 11.8236 581.003C11.6269 580.669 11.1099 580.479 10.7677 580.727C7.782 582.853 4.80363 584.972 1.61407 586.785C0.791195 587.244 1.51212 588.475 2.34228 588.038Z" fill="#181D23"/>
        <path d="M2.34227 579.008C3.77684 578.047 5.29151 577.224 6.77706 576.365C8.52476 575.353 10.1487 574.202 11.6998 572.906C12.0202 572.636 11.9765 572.09 11.6998 571.813C11.3721 571.486 10.9351 571.551 10.6074 571.813C9.10733 572.993 7.51255 574.071 5.88136 575.061C4.44679 575.935 2.99037 576.78 1.61406 577.748C0.849437 578.28 1.5558 579.532 2.34227 579.008Z" fill="#181D23"/>
        <path d="M15.45 660.276C19.761 657.225 24.4143 654.713 28.8491 651.865C29.6865 651.327 28.9219 650.009 28.0699 650.533C23.5623 653.286 18.9819 655.9 14.7146 659.024C13.9645 659.563 14.6781 660.822 15.45 660.276Z" fill="#181D23"/>
        <path d="M7.99317 655.689C9.88651 655.011 11.6124 653.854 13.2945 652.776C15.5957 651.297 17.8458 649.739 20.1106 648.217C20.9334 647.664 20.1761 646.346 19.3314 646.885C17.0739 648.319 14.882 649.834 12.6683 651.319C11.0735 652.39 9.41318 653.606 7.60722 654.29C6.74065 654.611 7.10475 656.002 7.99317 655.689Z" fill="#181D23"/>
        <path d="M3.79868 650.227C7.70916 647.511 11.8017 645.064 15.7413 642.399C16.5569 641.845 15.8069 640.52 14.9621 641.066C10.957 643.644 6.92998 646.185 3.06319 648.975C2.31313 649.506 3.0195 650.766 3.79868 650.227Z" fill="#181D23"/>
        <path d="M2.34228 641.925C5.58281 640.185 8.61944 638.175 11.5468 635.947C11.8818 635.692 12.0566 635.277 11.8236 634.891C11.6269 634.556 11.1099 634.367 10.7677 634.614C7.782 636.741 4.80363 638.86 1.61407 640.673C0.791195 641.132 1.51212 642.362 2.34228 641.925Z" fill="#181D23"/>
        <path d="M2.34227 632.896C3.77684 631.934 5.29151 631.112 6.77706 630.252C8.52476 629.24 10.1487 628.089 11.6998 626.793C12.0202 626.524 11.9765 625.978 11.6998 625.701C11.3721 625.373 10.9351 625.439 10.6074 625.701C9.10733 626.881 7.51255 627.958 5.88136 628.949C4.44679 629.823 2.99037 630.667 1.61406 631.636C0.849437 632.167 1.5558 633.42 2.34227 632.896Z" fill="#181D23"/>
        <path d="M315.472 89.2875C317.293 88.4501 319.069 87.5253 320.722 86.382C322.15 85.3989 323.46 84.2702 324.808 83.1924C325.485 82.6463 324.575 81.452 323.868 81.9763C322.528 82.9812 321.225 84.0517 319.863 85.0348C318.254 86.1999 316.513 87.1611 314.729 88.0277C314.372 88.2025 314.278 88.705 314.467 89.0254C314.686 89.3968 315.108 89.455 315.472 89.2875Z" fill="white"/>
        <path d="M315.472 79.5295C317.489 78.3717 319.514 77.2065 321.421 75.8666C322.514 75.0947 323.562 74.2791 324.677 73.5509C325.507 73.0121 324.757 71.694 323.897 72.2183C322.754 72.9101 321.684 73.682 320.606 74.4685C318.72 75.8448 316.739 77.0682 314.744 78.277C313.935 78.7576 314.656 79.9956 315.472 79.5295Z" fill="white"/>
        <path d="M315.297 69.8298C316.739 69.3201 318.013 68.4753 319.259 67.6015C321.065 66.3271 322.842 65.0091 324.677 63.7711C325.492 63.2177 324.749 61.8996 323.897 62.4385C322.055 63.6036 320.322 64.8853 318.567 66.1888C317.431 67.0335 316.208 67.9365 314.911 68.4316C314.045 68.7521 314.402 70.1429 315.297 69.8298Z" fill="white"/>
        <path d="M315.472 59.9844C318.487 57.9017 321.655 56.0666 324.677 54.0058C325.492 53.4524 324.742 52.127 323.897 52.6732C320.81 54.6466 317.708 56.5764 314.744 58.7319C314.423 58.9649 314.27 59.3654 314.482 59.7295C314.664 60.0426 315.144 60.2028 315.472 59.9844Z" fill="white"/>
        <path d="M315.472 50.2119C318.713 48.4714 321.749 46.4616 324.677 44.2333C325.012 43.9784 325.186 43.5633 324.953 43.1774C324.757 42.8424 324.24 42.6531 323.897 42.9006C320.912 45.027 317.933 47.1461 314.744 48.9593C313.921 49.4181 314.642 50.6488 315.472 50.2119Z" fill="white"/>
        <path d="M315.472 40.4393C316.907 39.478 318.421 38.6552 319.907 37.7959C321.655 36.7837 323.278 35.6331 324.83 34.3369C325.15 34.0675 325.106 33.5213 324.83 33.2446C324.502 32.9169 324.065 32.9824 323.737 33.2446C322.237 34.4243 320.642 35.502 319.011 36.4924C317.577 37.3662 316.12 38.211 314.744 39.1795C313.979 39.7111 314.686 40.9636 315.472 40.4393Z" fill="white"/>
        <path d="M315.472 147.916C317.293 147.078 319.069 146.153 320.722 145.01C322.15 144.027 323.46 142.898 324.808 141.821C325.485 141.274 324.575 140.08 323.868 140.604C322.528 141.609 321.225 142.68 319.863 143.663C318.254 144.828 316.513 145.789 314.729 146.656C314.372 146.831 314.278 147.333 314.467 147.653C314.686 148.018 315.108 148.076 315.472 147.916Z" fill="white"/>
        <path d="M315.472 138.15C317.489 136.993 319.514 135.827 321.421 134.487C322.514 133.716 323.562 132.9 324.677 132.172C325.507 131.633 324.757 130.315 323.897 130.839C322.754 131.531 321.684 132.303 320.606 133.089C318.72 134.466 316.739 135.689 314.744 136.898C313.935 137.378 314.656 138.616 315.472 138.15Z" fill="white"/>
        <path d="M315.297 128.451C316.739 127.941 318.013 127.096 319.259 126.222C321.065 124.948 322.842 123.63 324.677 122.392C325.492 121.839 324.749 120.52 323.897 121.059C322.055 122.224 320.322 123.506 318.567 124.81C317.431 125.654 316.208 126.557 314.911 127.052C314.045 127.373 314.402 128.764 315.297 128.451Z" fill="white"/>
        <path d="M315.472 118.605C318.487 116.523 321.655 114.687 324.677 112.627C325.492 112.073 324.742 110.748 323.897 111.294C320.81 113.267 317.708 115.197 314.744 117.353C314.423 117.586 314.27 117.986 314.482 118.35C314.664 118.663 315.144 118.831 315.472 118.605Z" fill="white"/>
        <path d="M315.472 108.833C318.713 107.092 321.749 105.082 324.677 102.854C325.012 102.599 325.186 102.184 324.953 101.798C324.757 101.463 324.24 101.274 323.897 101.521C320.912 103.648 317.933 105.767 314.744 107.58C313.921 108.039 314.642 109.277 315.472 108.833Z" fill="white"/>
        <path d="M315.472 99.0601C316.907 98.0989 318.421 97.276 319.907 96.4167C321.655 95.4045 323.278 94.2539 324.83 92.9577C325.15 92.6883 325.106 92.1421 324.83 91.8654C324.502 91.5377 324.065 91.6032 323.737 91.8654C322.237 93.0451 320.642 94.1228 319.011 95.1132C317.577 95.9871 316.12 96.8318 314.744 97.8003C313.979 98.3392 314.686 99.5844 315.472 99.0601Z" fill="white"/>
        <path d="M315.472 206.536C317.293 205.699 319.069 204.774 320.722 203.631C322.15 202.648 323.46 201.519 324.808 200.441C325.485 199.895 324.575 198.701 323.868 199.225C322.528 200.23 321.225 201.301 319.863 202.284C318.254 203.449 316.513 204.41 314.729 205.277C314.372 205.451 314.278 205.954 314.467 206.274C314.686 206.646 315.108 206.704 315.472 206.536Z" fill="white"/>
        <path d="M315.472 196.778C317.489 195.621 319.514 194.455 321.421 193.116C322.514 192.344 323.562 191.528 324.677 190.8C325.507 190.261 324.757 188.943 323.897 189.467C322.754 190.159 321.684 190.931 320.606 191.717C318.72 193.094 316.739 194.317 314.744 195.526C313.935 196.007 314.656 197.245 315.472 196.778Z" fill="white"/>
        <path d="M315.297 187.079C316.739 186.569 318.013 185.724 319.259 184.85C321.065 183.576 322.842 182.258 324.677 181.02C325.492 180.467 324.749 179.149 323.897 179.687C322.055 180.853 320.322 182.134 318.567 183.438C317.431 184.282 316.208 185.185 314.911 185.681C314.045 186.001 314.402 187.392 315.297 187.079Z" fill="white"/>
        <path d="M315.472 177.233C318.487 175.151 321.655 173.316 324.677 171.255C325.492 170.701 324.742 169.376 323.897 169.922C320.81 171.896 317.708 173.825 314.744 175.981C314.423 176.214 314.27 176.614 314.482 176.978C314.664 177.292 315.144 177.459 315.472 177.233Z" fill="white"/>
        <path d="M315.472 167.461C318.713 165.72 321.749 163.711 324.677 161.482C325.012 161.227 325.186 160.812 324.953 160.426C324.757 160.091 324.24 159.902 323.897 160.15C320.912 162.276 317.933 164.395 314.744 166.208C313.921 166.667 314.642 167.905 315.472 167.461Z" fill="white"/>
        <path d="M315.472 157.688C316.907 156.727 318.421 155.904 319.907 155.045C321.655 154.033 323.278 152.882 324.83 151.586C325.15 151.316 325.106 150.77 324.83 150.494C324.502 150.166 324.065 150.231 323.737 150.494C322.237 151.673 320.642 152.751 319.011 153.741C317.577 154.615 316.12 155.46 314.744 156.428C313.979 156.96 314.686 158.213 315.472 157.688Z" fill="white"/>
        <path d="M315.472 265.165C317.293 264.327 319.069 263.402 320.722 262.259C322.15 261.276 323.46 260.147 324.808 259.069C325.485 258.523 324.575 257.329 323.868 257.853C322.528 258.858 321.225 259.929 319.863 260.912C318.254 262.077 316.513 263.038 314.729 263.905C314.372 264.08 314.278 264.582 314.467 264.902C314.686 265.274 315.108 265.332 315.472 265.165Z" fill="white"/>
        <path d="M315.472 255.407C317.489 254.249 319.514 253.084 321.421 251.744C322.514 250.972 323.562 250.156 324.677 249.428C325.507 248.889 324.757 247.571 323.897 248.095C322.754 248.787 321.684 249.559 320.606 250.346C318.72 251.722 316.739 252.945 314.744 254.154C313.935 254.627 314.656 255.873 315.472 255.407Z" fill="white"/>
        <path d="M315.297 245.707C316.739 245.197 318.013 244.352 319.259 243.479C321.065 242.204 322.842 240.886 324.677 239.648C325.492 239.095 324.749 237.777 323.897 238.316C322.055 239.481 320.322 240.762 318.567 242.066C317.431 242.911 316.208 243.814 314.911 244.309C314.045 244.629 314.402 246.02 315.297 245.707Z" fill="white"/>
        <path d="M315.472 235.854C318.487 233.772 321.655 231.936 324.677 229.876C325.492 229.322 324.742 227.997 323.897 228.543C320.81 230.516 317.708 232.446 314.744 234.602C314.423 234.835 314.27 235.235 314.482 235.599C314.664 235.92 315.144 236.08 315.472 235.854Z" fill="white"/>
        <path d="M315.472 226.082C318.713 224.341 321.749 222.331 324.677 220.103C325.012 219.848 325.186 219.433 324.953 219.047C324.757 218.712 324.24 218.523 323.897 218.77C320.912 220.897 317.933 223.016 314.744 224.829C313.921 225.288 314.642 226.526 315.472 226.082Z" fill="white"/>
        <path d="M315.472 216.309C316.907 215.348 318.421 214.525 319.907 213.666C321.655 212.653 323.278 211.503 324.83 210.207C325.15 209.937 325.106 209.391 324.83 209.114C324.502 208.787 324.065 208.852 323.737 209.114C322.237 210.294 320.642 211.372 319.011 212.362C317.577 213.236 316.12 214.081 314.744 215.049C313.979 215.588 314.686 216.841 315.472 216.309Z" fill="white"/>
        <path d="M315.472 323.793C317.293 322.955 319.069 322.03 320.722 320.887C322.15 319.904 323.46 318.775 324.808 317.698C325.485 317.151 324.575 315.957 323.868 316.481C322.528 317.486 321.225 318.557 319.863 319.54C318.254 320.705 316.513 321.666 314.729 322.533C314.372 322.708 314.278 323.21 314.467 323.531C314.686 323.895 315.108 323.953 315.472 323.793Z" fill="white"/>
        <path d="M315.472 314.027C317.489 312.87 319.514 311.704 321.421 310.365C322.514 309.593 323.562 308.777 324.677 308.049C325.507 307.51 324.757 306.192 323.897 306.716C322.754 307.408 321.684 308.18 320.606 308.966C318.72 310.343 316.739 311.566 314.744 312.775C313.935 313.256 314.656 314.493 315.472 314.027Z" fill="white"/>
        <path d="M315.297 304.328C316.739 303.818 318.013 302.973 319.259 302.099C321.065 300.825 322.842 299.507 324.677 298.269C325.492 297.716 324.749 296.398 323.897 296.936C322.055 298.102 320.322 299.383 318.567 300.687C317.431 301.531 316.208 302.434 314.911 302.93C314.045 303.25 314.402 304.641 315.297 304.328Z" fill="white"/>
        <path d="M315.472 294.482C318.487 292.4 321.655 290.565 324.677 288.504C325.492 287.95 324.742 286.625 323.897 287.171C320.81 289.145 317.708 291.074 314.744 293.23C314.423 293.463 314.27 293.863 314.482 294.227C314.664 294.541 315.144 294.708 315.472 294.482Z" fill="white"/>
        <path d="M315.472 284.71C318.713 282.969 321.749 280.959 324.677 278.731C325.012 278.476 325.186 278.061 324.953 277.675C324.757 277.34 324.24 277.151 323.897 277.399C320.912 279.525 317.933 281.644 314.744 283.457C313.921 283.916 314.642 285.154 315.472 284.71Z" fill="white"/>
        <path d="M315.472 274.937C316.907 273.976 318.421 273.153 319.907 272.294C321.655 271.282 323.278 270.131 324.83 268.835C325.15 268.565 325.106 268.019 324.83 267.742C324.502 267.415 324.065 267.48 323.737 267.742C322.237 268.922 320.642 270 319.011 270.99C317.577 271.864 316.12 272.709 314.744 273.677C313.979 274.209 314.686 275.461 315.472 274.937Z" fill="white"/>
        <path d="M315.472 382.414C317.293 381.576 319.069 380.651 320.722 379.508C322.15 378.525 323.46 377.396 324.808 376.318C325.485 375.772 324.575 374.578 323.868 375.102C322.528 376.107 321.225 377.178 319.863 378.161C318.254 379.326 316.513 380.287 314.729 381.154C314.372 381.329 314.278 381.831 314.467 382.151C314.686 382.523 315.108 382.581 315.472 382.414Z" fill="white"/>
        <path d="M315.472 372.656C317.489 371.498 319.514 370.333 321.421 368.993C322.514 368.221 323.562 367.405 324.677 366.677C325.507 366.138 324.757 364.82 323.897 365.344C322.754 366.036 321.684 366.808 320.606 367.594C318.72 368.971 316.739 370.194 314.744 371.403C313.935 371.884 314.656 373.122 315.472 372.656Z" fill="white"/>
        <path d="M315.297 362.956C316.739 362.446 318.013 361.601 319.259 360.727C321.065 359.453 322.842 358.135 324.677 356.897C325.492 356.344 324.749 355.026 323.897 355.564C322.055 356.73 320.322 358.011 318.567 359.315C317.431 360.159 316.208 361.062 314.911 361.558C314.045 361.878 314.402 363.269 315.297 362.956Z" fill="white"/>
        <path d="M315.472 353.11C318.487 351.028 321.655 349.193 324.677 347.132C325.492 346.578 324.742 345.253 323.897 345.799C320.81 347.773 317.708 349.702 314.744 351.858C314.423 352.091 314.27 352.491 314.482 352.856C314.664 353.169 315.144 353.336 315.472 353.11Z" fill="white"/>
        <path d="M315.472 343.338C318.713 341.597 321.749 339.588 324.677 337.359C325.012 337.104 325.186 336.689 324.953 336.303C324.757 335.968 324.24 335.779 323.897 336.027C320.912 338.153 317.933 340.272 314.744 342.085C313.921 342.544 314.642 343.782 315.472 343.338Z" fill="white"/>
        <path d="M315.472 333.565C316.907 332.604 318.421 331.781 319.907 330.922C321.655 329.91 323.278 328.759 324.83 327.463C325.15 327.193 325.106 326.647 324.83 326.371C324.502 326.043 324.065 326.108 323.737 326.371C322.237 327.55 320.642 328.628 319.011 329.618C317.577 330.492 316.12 331.337 314.744 332.305C313.979 332.837 314.686 334.09 315.472 333.565Z" fill="white"/>
        <path d="M315.472 411.731C317.489 410.573 319.514 409.408 321.421 408.068C322.514 407.297 323.562 406.481 324.677 405.753C325.507 405.214 324.757 403.896 323.897 404.42C322.754 405.112 321.684 405.884 320.606 406.67C318.72 408.047 316.739 409.27 314.744 410.479C313.935 410.959 314.656 412.205 315.472 411.731Z" fill="white"/>
        <path d="M315.297 402.032C316.739 401.522 318.013 400.677 319.259 399.803C321.065 398.529 322.842 397.211 324.677 395.973C325.492 395.419 324.749 394.101 323.897 394.64C322.055 395.805 320.322 397.087 318.567 398.391C317.431 399.235 316.208 400.138 314.911 400.633C314.045 400.954 314.402 402.352 315.297 402.032Z" fill="white"/>
        <path d="M315.472 392.186C318.713 390.446 321.749 388.436 324.677 386.208C325.012 385.953 325.186 385.538 324.953 385.152C324.757 384.817 324.24 384.627 323.897 384.875C320.912 387.001 317.933 389.12 314.744 390.934C313.921 391.392 314.642 392.63 315.472 392.186Z" fill="white"/>
        <path d="M315.472 470.359C317.293 469.522 319.069 468.597 320.722 467.454C322.15 466.471 323.46 465.342 324.808 464.264C325.485 463.718 324.575 462.524 323.868 463.048C322.528 464.053 321.225 465.124 319.863 466.107C318.254 467.272 316.513 468.233 314.729 469.1C314.372 469.274 314.278 469.777 314.467 470.097C314.686 470.469 315.108 470.527 315.472 470.359Z" fill="white"/>
        <path d="M315.472 460.601C317.489 459.443 319.514 458.278 321.421 456.938C322.514 456.167 323.562 455.351 324.677 454.623C325.507 454.084 324.757 452.766 323.897 453.29C322.754 453.982 321.684 454.754 320.606 455.54C318.72 456.917 316.739 458.14 314.744 459.349C313.935 459.822 314.656 461.067 315.472 460.601Z" fill="white"/>
        <path d="M315.297 450.902C316.739 450.392 318.013 449.547 319.259 448.673C321.065 447.399 322.842 446.081 324.677 444.843C325.492 444.289 324.749 442.971 323.897 443.51C322.055 444.675 320.322 445.957 318.567 447.261C317.431 448.105 316.208 449.008 314.911 449.503C314.045 449.824 314.402 451.215 315.297 450.902Z" fill="white"/>
        <path d="M315.472 441.049C318.487 438.966 321.655 437.131 324.677 435.07C325.492 434.517 324.742 433.192 323.897 433.738C320.81 435.711 317.708 437.641 314.744 439.796C314.423 440.029 314.27 440.43 314.482 440.794C314.664 441.114 315.144 441.275 315.472 441.049Z" fill="white"/>
        <path d="M315.472 431.276C318.713 429.536 321.749 427.526 324.677 425.298C325.012 425.043 325.186 424.628 324.953 424.242C324.757 423.907 324.24 423.718 323.897 423.965C320.912 426.092 317.933 428.211 314.744 430.024C313.921 430.483 314.642 431.721 315.472 431.276Z" fill="white"/>
        <path d="M315.472 421.504C316.907 420.543 318.421 419.72 319.907 418.86C321.655 417.848 323.278 416.698 324.83 415.401C325.15 415.132 325.106 414.586 324.83 414.309C324.502 413.981 324.065 414.047 323.737 414.309C322.237 415.489 320.642 416.567 319.011 417.557C317.577 418.431 316.12 419.276 314.744 420.244C313.979 420.783 314.686 422.035 315.472 421.504Z" fill="white"/>
        <path d="M315.472 528.987C317.293 528.15 319.069 527.225 320.722 526.082C322.15 525.099 323.46 523.97 324.808 522.892C325.485 522.346 324.575 521.152 323.868 521.676C322.528 522.681 321.225 523.752 319.863 524.735C318.254 525.9 316.513 526.861 314.729 527.728C314.372 527.902 314.278 528.405 314.467 528.725C314.686 529.089 315.108 529.148 315.472 528.987Z" fill="white"/>
        <path d="M315.472 519.222C317.489 518.064 319.514 516.899 321.421 515.559C322.514 514.787 323.562 513.972 324.677 513.244C325.507 512.705 324.757 511.387 323.897 511.911C322.754 512.603 321.684 513.375 320.606 514.161C318.72 515.537 316.739 516.761 314.744 517.97C313.935 518.45 314.656 519.688 315.472 519.222Z" fill="white"/>
        <path d="M315.297 509.522C316.739 509.013 318.013 508.168 319.259 507.294C321.065 506.02 322.842 504.702 324.677 503.464C325.492 502.91 324.749 501.592 323.897 502.131C322.055 503.296 320.322 504.578 318.567 505.881C317.431 506.726 316.208 507.629 314.911 508.124C314.045 508.445 314.402 509.836 315.297 509.522Z" fill="white"/>
        <path d="M315.472 499.677C318.487 497.594 321.655 495.759 324.677 493.698C325.492 493.145 324.742 491.82 323.897 492.366C320.81 494.339 317.708 496.269 314.744 498.425C314.423 498.658 314.27 499.058 314.482 499.422C314.664 499.735 315.144 499.903 315.472 499.677Z" fill="white"/>
        <path d="M315.472 489.905C318.713 488.164 321.749 486.154 324.677 483.926C325.012 483.671 325.186 483.256 324.953 482.87C324.757 482.535 324.24 482.346 323.897 482.593C320.912 484.72 317.933 486.839 314.744 488.652C313.921 489.111 314.642 490.349 315.472 489.905Z" fill="white"/>
        <path d="M315.472 480.132C316.907 479.171 318.421 478.348 319.907 477.489C321.655 476.476 323.278 475.326 324.83 474.03C325.15 473.76 325.106 473.214 324.83 472.937C324.502 472.61 324.065 472.675 323.737 472.937C322.237 474.117 320.642 475.195 319.011 476.185C317.577 477.059 316.12 477.904 314.744 478.872C313.979 479.404 314.686 480.656 315.472 480.132Z" fill="white"/>
        <path d="M315.472 587.608C317.293 586.771 319.069 585.846 320.722 584.703C322.15 583.72 323.46 582.591 324.808 581.513C325.485 580.967 324.575 579.773 323.868 580.297C322.528 581.302 321.225 582.372 319.863 583.356C318.254 584.521 316.513 585.482 314.729 586.349C314.372 586.523 314.278 587.026 314.467 587.346C314.686 587.718 315.108 587.776 315.472 587.608Z" fill="white"/>
        <path d="M315.472 577.85C317.489 576.693 319.514 575.527 321.421 574.188C322.514 573.416 323.562 572.6 324.677 571.872C325.507 571.333 324.757 570.015 323.897 570.539C322.754 571.231 321.684 572.003 320.606 572.789C318.72 574.166 316.739 575.389 314.744 576.598C313.935 577.078 314.656 578.316 315.472 577.85Z" fill="white"/>
        <path d="M315.297 568.151C316.739 567.641 318.013 566.796 319.259 565.922C321.065 564.648 322.842 563.33 324.677 562.092C325.492 561.538 324.749 560.22 323.897 560.759C322.055 561.924 320.322 563.206 318.567 564.51C317.431 565.354 316.208 566.257 314.911 566.753C314.045 567.073 314.402 568.464 315.297 568.151Z" fill="white"/>
        <path d="M315.472 558.305C318.487 556.223 321.655 554.387 324.677 552.327C325.492 551.773 324.742 550.448 323.897 550.994C320.81 552.968 317.708 554.897 314.744 557.053C314.423 557.286 314.27 557.686 314.482 558.05C314.664 558.363 315.144 558.531 315.472 558.305Z" fill="white"/>
        <path d="M315.472 548.533C318.713 546.792 321.749 544.782 324.677 542.554C325.012 542.299 325.186 541.884 324.953 541.498C324.757 541.163 324.24 540.974 323.897 541.221C320.912 543.348 317.933 545.467 314.744 547.28C313.921 547.739 314.642 548.977 315.472 548.533Z" fill="white"/>
        <path d="M315.472 538.76C316.907 537.799 318.421 536.976 319.907 536.117C321.655 535.104 323.278 533.954 324.83 532.658C325.15 532.388 325.106 531.842 324.83 531.565C324.502 531.238 324.065 531.303 323.737 531.565C322.237 532.745 320.642 533.823 319.011 534.813C317.577 535.687 316.12 536.532 314.744 537.5C313.979 538.032 314.686 539.284 315.472 538.76Z" fill="white"/>
        <path d="M315.472 626.699C317.489 625.541 319.514 624.376 321.421 623.036C322.514 622.264 323.562 621.448 324.677 620.72C325.507 620.181 324.757 618.863 323.897 619.387C322.754 620.079 321.684 620.851 320.606 621.638C318.72 623.014 316.739 624.237 314.744 625.446C313.935 625.927 314.656 627.172 315.472 626.699Z" fill="white"/>
        <path d="M315.297 616.999C316.739 616.489 318.013 615.644 319.259 614.771C321.065 613.496 322.842 612.178 324.677 610.94C325.492 610.387 324.749 609.069 323.897 609.608C322.055 610.773 320.322 612.054 318.567 613.358C317.431 614.203 316.208 615.106 314.911 615.601C314.045 615.921 314.402 617.319 315.297 616.999Z" fill="white"/>
        <path d="M315.472 607.154C318.487 605.071 321.655 603.236 324.677 601.175C325.492 600.621 324.742 599.296 323.897 599.842C320.81 601.816 317.708 603.745 314.744 605.901C314.423 606.134 314.27 606.534 314.482 606.899C314.664 607.212 315.144 607.379 315.472 607.154Z" fill="white"/>
        <path d="M315.472 597.381C318.713 595.641 321.749 593.631 324.677 591.402C325.012 591.147 325.186 590.732 324.953 590.346C324.757 590.011 324.24 589.822 323.897 590.07C320.912 592.196 317.933 594.315 314.744 596.128C313.921 596.587 314.642 597.825 315.472 597.381Z" fill="white"/>
        <path d="M290.232 27.601C291.572 29.487 293.276 31.0236 295.002 32.5455C295.84 33.281 296.677 34.0238 297.478 34.7957C297.893 35.1889 298.294 35.5967 298.687 36.0118C299.095 36.4487 299.459 36.9512 299.925 37.3299C300.551 37.8323 301.418 37.2206 301.046 36.4633C300.791 35.939 300.354 35.5021 299.969 35.0797C299.583 34.6573 299.182 34.2495 298.767 33.849C297.944 33.0553 297.078 32.3052 296.218 31.5552C294.492 30.0478 292.774 28.5258 291.237 26.8218C290.764 26.2975 289.81 27.0039 290.232 27.601Z" fill="white"/>
        <path d="M301.323 26.8946C297.595 30.4483 293.844 33.9728 290.174 37.592C289.38 38.3712 290.618 39.6092 291.39 38.8081C294.98 35.1088 298.563 31.4168 302.088 27.6593C302.576 27.1568 301.833 26.4067 301.323 26.8946Z" fill="white"/>
        <path d="M75.6364 36.5652C67.8081 35.2909 59.6376 35.2618 51.773 36.2157C50.6588 36.3468 50.6224 38.1018 51.773 37.9925C59.7032 37.2206 67.546 37.2133 75.4907 37.643C76.0952 37.6721 76.2481 36.6672 75.6364 36.5652Z" fill="white"/>
        <path d="M50.0326 38.0944C54.1615 35.6841 58.1448 32.9824 62.1427 30.3609C62.9655 29.822 62.1936 28.4894 61.3708 29.0355C57.3729 31.6789 53.3241 34.2714 49.4718 37.1186C48.8965 37.541 49.3917 38.4658 50.0326 38.0944Z" fill="white"/>
        <path d="M49.0786 38.0435C50.8773 39.4563 52.5522 41.0219 54.278 42.522C55.8946 43.9275 57.5768 45.2382 59.5721 46.0538C59.9581 46.214 60.4095 45.8791 60.5188 45.5149C60.6426 45.078 60.3658 44.7285 59.9799 44.5683C58.1157 43.8109 56.5063 42.5002 54.9844 41.2112C53.2949 39.7839 51.6565 38.2984 49.7631 37.1478C49.2243 36.842 48.5616 37.643 49.0786 38.0435Z" fill="white"/>
    </g>
    <defs>
        <filter id="filter0_ii" x="21.4323" y="15" width="311.568" height="626" filterUnits="userSpaceOnUse" color-interpolation-filters="sRGB">
            <feFlood flood-opacity="0" result="BackgroundImageFix"/>
            <feBlend mode="normal" in="SourceGraphic" in2="BackgroundImageFix" result="shape"/>
            <feColorMatrix in="SourceAlpha" type="matrix" values="0 0 0 0 0 0 0 0 0 0 0 0 0 0 0 0 0 0 127 0" result="hardAlpha"/>
            <feMorphology radius="2.5677" operator="erode" in="SourceAlpha" result="effect1_innerShadow"/>
            <feOffset dx="-11"/>
            <feComposite in2="hardAlpha" operator="arithmetic" k2="-1" k3="1"/>
            <feColorMatrix type="matrix" values="0 0 0 0 1 0 0 0 0 1 0 0 0 0 1 0 0 0 0.4 0"/>
            <feBlend mode="normal" in2="shape" result="effect1_innerShadow"/>
            <feColorMatrix in="SourceAlpha" type="matrix" values="0 0 0 0 0 0 0 0 0 0 0 0 0 0 0 0 0 0 127 0" result="hardAlpha"/>
            <feOffset dx="11"/>
            <feComposite in2="hardAlpha" operator="arithmetic" k2="-1" k3="1"/>
            <feColorMatrix type="matrix" values="0 0 0 0 0 0 0 0 0 0 0 0 0 0 0 0 0 0 0.05 0"/>
            <feBlend mode="normal" in2="effect1_innerShadow" result="effect2_innerShadow"/>
        </filter>
        <filter id="filter1_d" x="0.967742" y="55.9677" width="355.065" height="608.065" filterUnits="userSpaceOnUse" color-interpolation-filters="sRGB">
            <feFlood flood-opacity="0" result="BackgroundImageFix"/>
            <feColorMatrix in="SourceAlpha" type="matrix" values="0 0 0 0 0 0 0 0 0 0 0 0 0 0 0 0 0 0 127 0"/>
            <feMorphology radius="6.58065" operator="dilate" in="SourceAlpha" result="effect1_dropShadow"/>
            <feOffset/>
            <feGaussianBlur stdDeviation="8.22581"/>
            <feColorMatrix type="matrix" values="0 0 0 0 0 0 0 0 0 0 0 0 0 0 0 0 0 0 0.13 0"/>
            <feBlend mode="normal" in2="BackgroundImageFix" result="effect1_dropShadow"/>
            <feBlend mode="normal" in="SourceGraphic" in2="effect1_dropShadow" result="shape"/>
        </filter>
        <clipPath id="clip0">
            <rect x="24" y="15" width="309" height="626" rx="16" fill="white"/>
        </clipPath>
        <clipPath id="clip1">
            <rect width="309" height="90" fill="white" transform="translate(24 15)"/>
        </clipPath>
        <clipPath id="clip2">
            <rect width="347.13" height="665.27" fill="white" transform="translate(0.43457 0.72998)"/>
        </clipPath>
    </defs>
</svg>
