<svg width="80" height="50" viewBox="0 0 80 50" fill="none" xmlns="http://www.w3.org/2000/svg">
<path d="M15.8104 8.50165C14.019 8.36385 13.4563 9.76481 13.3989 10.4825C10.9874 8.07102 7.11174 8.50165 5.47538 8.93229C4.16629 9.27679 5.27442 10.1093 5.99212 10.4825C6.27921 10.6548 6.37107 11.0165 4.44188 11.0854C2.0304 11.1715 0.48016 13.0663 0.652409 14.5304C0.790209 15.7017 4.26964 14.3294 5.99212 13.4969C5.07346 14.4155 3.68399 16.5629 5.47538 17.8031C7.26677 19.0433 12.4227 16.5399 14.7768 15.1332C15.4658 15.5065 16.9816 16.2529 17.5328 16.2529C18.2219 16.2529 21.3223 15.9084 22.2697 15.1332C23.0276 14.5132 21.4945 13.784 20.6333 13.4969C22.4706 13.3533 26.1452 12.7907 26.1452 11.6883C26.1452 10.5859 22.9299 11.2289 21.3223 11.6883C22.3271 11.1428 23.9233 9.74184 22.2697 8.50165C22.0454 8.33343 21.8111 8.22563 21.5716 8.1679C22.2955 8.12841 23.4363 6.95143 24.5089 6.95143C25.7147 6.95143 25.4563 7.64042 27.2649 7.81267C29.0735 7.98492 28.8151 7.98492 29.418 6.95143C29.9003 6.12463 26.6907 5.63085 25.0256 5.48731C24.8821 4.62607 24.2678 2.95525 22.9587 3.16195C21.6496 3.36865 21.9539 4.16673 22.2697 4.53993C21.2777 4.41593 19.5893 4.30978 18.7728 4.56852C18.6159 3.62886 18.0815 2.18763 16.7577 1.43945C16.7577 4.53994 16.7577 5.48731 18.308 5.05668C18.4458 5.88347 20.3749 6.26242 21.3223 6.34855C21.0065 6.81557 20.5644 7.82483 21.3223 8.12564C19.8594 7.97816 18.2605 9.52014 17.5328 10.4825C17.7051 9.87964 17.6017 8.63945 15.8104 8.50165Z" fill="#FEB103"/>
<path d="M13.4848 11.6021C15.3796 11.6021 15.5518 12.6355 13.4848 12.6355C11.4179 12.6355 11.5901 11.6021 13.4848 11.6021Z" fill="#FFCD00"/>
<path d="M13.0484 11.8014C13.7126 11.2524 14.7523 11.2813 15.3587 11.8881C15.5031 12.0326 15.4742 12.2927 15.3009 12.3794C14.1747 13.0729 12.6441 13.0729 11.5468 12.3505C11.2002 12.1193 11.5179 11.5414 11.8933 11.7726C12.8174 12.3794 14.0303 12.4083 14.9833 11.8303C14.9544 12.0037 14.9544 12.1771 14.9255 12.3216C14.5212 11.917 13.857 11.8303 13.3372 12.1482C13.1062 12.2927 12.8463 11.9748 13.0484 11.8014Z" fill="#181D23"/>
<path d="M13.4239 10.1833C12.4998 9.86539 11.5757 9.51863 10.6516 9.28746C9.6697 9.05629 8.68786 8.9696 7.706 8.9696C7.30171 8.9696 4.99143 8.9407 5.33797 9.69201C5.51124 10.0966 6.03107 10.1832 6.37761 10.2988C6.78191 10.4144 7.15732 10.5589 7.41722 10.8768C7.64824 11.1657 7.4172 11.5414 7.07066 11.4836C5.19358 11.1368 3.22986 11.6859 1.87259 13.044C1.69932 13.2174 1.55493 13.3618 1.43941 13.5641C1.3239 13.7086 1.06402 14.0265 1.06402 14.2287C1.03514 14.6622 2.19026 14.2865 2.39241 14.2576C3.66305 13.9976 4.93368 13.7375 6.20432 13.4774C6.63749 13.3907 6.9263 13.9976 6.522 14.2287C5.77117 14.6333 4.385 15.4713 4.84705 16.5115C5.22247 17.3206 6.43534 17.4362 7.21505 17.4073C9.78521 17.2917 12.2976 16.2515 14.348 14.7489C14.4924 14.6333 14.7811 14.6911 14.8967 14.8067C16.1673 16.396 18.5931 16.0781 20.3258 15.6158C20.6434 15.5291 21.221 15.3846 21.3654 15.0378C21.4809 14.7489 21.1921 14.6044 20.99 14.5466C20.2391 14.2576 19.4305 14.2287 18.9107 13.5352C18.6508 13.1885 19.084 12.8128 19.4305 12.8706C20.4413 13.044 21.452 13.0729 22.4916 12.9862C23.4735 12.8995 24.542 12.7261 25.4372 12.3505C25.8126 12.206 25.726 12.0326 25.4372 11.8303C25.0618 11.5992 24.5997 11.5703 24.1666 11.5703C23.1558 11.5414 22.1451 11.7148 21.1921 12.0615C20.73 12.2349 20.4124 11.4836 20.8456 11.2524C21.3943 10.9634 22.1451 10.6167 22.3761 9.98097C22.4628 9.7498 22.4916 9.46084 22.3761 9.22967C22.2317 8.91181 21.8852 8.88291 21.5675 8.9118C20.1236 8.99849 18.7086 9.83649 17.8711 10.9923C17.6401 11.2813 17.0048 11.2524 17.0625 10.7612C17.1492 9.92318 16.5716 8.9985 15.6764 8.88292C14.7811 8.76733 14.0014 9.51863 13.8571 10.3566C13.7704 10.819 12.9907 10.7034 13.0485 10.241C13.1929 8.9407 14.3769 7.87154 15.7341 8.01602C17.0337 8.16051 18.0733 9.43194 17.9289 10.7612C17.669 10.6745 17.3802 10.6167 17.1203 10.53C17.7267 9.7209 18.4776 9.0274 19.4017 8.59395C20.2103 8.1894 21.3654 7.81374 22.2606 8.04491C23.1558 8.27608 23.4735 9.22966 23.2713 10.0677C23.0403 11.0212 22.0873 11.5703 21.2787 11.9748C21.1632 11.7148 21.0477 11.4258 20.9322 11.1657C22.1451 10.7323 23.5024 10.53 24.8019 10.6745C25.6393 10.7612 26.9966 11.4836 26.4768 12.5238C26.2169 13.0729 25.5816 13.2174 25.0329 13.3618C24.3976 13.5641 23.7334 13.6797 23.0981 13.7664C21.7697 13.9398 20.4701 13.9109 19.1706 13.6797C19.3439 13.4485 19.5172 13.2463 19.6904 13.0151C19.8637 13.2463 20.2391 13.3329 20.499 13.3907C20.8456 13.4774 21.1921 13.5641 21.5098 13.7086C22.2317 14.0554 22.5783 14.8933 22.0584 15.5869C21.5386 16.3093 20.499 16.4826 19.6904 16.6271C18.7663 16.8005 17.8134 16.8872 16.8893 16.7427C15.8785 16.5982 14.9255 16.1937 14.2613 15.3557C14.4346 15.3846 14.6079 15.4135 14.81 15.4135C12.8463 16.8294 10.5649 17.7252 8.19692 18.043C7.24394 18.1586 6.26207 18.2164 5.33797 17.8408C4.5005 17.494 3.86521 16.7716 3.95184 15.8469C4.06735 14.6911 5.16472 13.9398 6.1177 13.4485C6.23322 13.7086 6.31984 13.9398 6.43536 14.1998C5.19359 14.431 3.9807 14.6622 2.73893 14.8933C2.04586 15.0089 0.428699 15.5002 0.342066 14.3443C0.313189 13.882 0.601948 13.4774 0.861851 13.1307C1.15063 12.755 1.46831 12.4372 1.81485 12.1193C2.50792 11.5414 3.31653 11.1079 4.21175 10.8479C5.19361 10.5589 6.29096 10.5011 7.3017 10.7612C7.18619 10.9635 7.07069 11.1657 6.95518 11.368C6.63752 10.9634 6.08883 10.9057 5.65566 10.7034C5.25136 10.53 4.84705 10.1832 4.73153 9.72091C4.41388 8.53616 6.05995 8.39167 6.81079 8.33388C9.09216 8.1316 11.7201 8.50726 13.6549 9.77869C13.7415 9.95207 13.626 10.2699 13.4239 10.1833Z" fill="#181D23"/>
<path d="M24.6575 5.50204C24.3687 4.86633 24.1377 4.02834 23.4446 3.73937C23.1847 3.62379 22.7804 3.59489 22.6071 3.88385C22.4627 4.08613 22.4627 4.40399 22.6938 4.51958C22.9537 4.66406 22.867 5.18419 22.5205 5.1264C20.9611 4.92412 19.4305 5.12639 17.9866 5.73321C18.0155 5.53094 18.0444 5.32867 18.0732 5.1264C19.084 5.8777 20.2969 6.19556 21.5386 6.10887C21.914 6.07997 21.9718 6.5712 21.7119 6.77348C21.3365 7.06244 21.0766 7.43809 20.8744 7.84264C20.8456 7.66926 20.7878 7.52478 20.7589 7.3514C21.3654 7.75595 22.174 7.81374 22.8382 7.52478C23.5312 7.20692 23.9066 6.31114 24.773 6.54231C25.2062 6.6579 25.5527 6.94686 25.957 7.09134C26.3613 7.23582 26.7945 7.32251 27.2276 7.3514C28.094 7.40919 28.9603 7.23582 29.7112 6.83127C29.6823 7.03355 29.6534 7.23582 29.6245 7.4381C28.5849 6.57121 27.1699 6.19556 25.8415 6.39783C25.3506 6.48452 25.1195 5.70432 25.6393 5.64653C27.2854 5.38646 28.9315 5.8199 30.2021 6.88906C30.4042 7.06244 30.3465 7.40919 30.1155 7.49588C29.3069 7.92933 28.3828 8.1605 27.4587 8.1316C26.4768 8.10271 25.6682 7.78484 24.8308 7.3514C24.542 7.20692 24.3976 7.20692 24.1666 7.4092C24.0222 7.55368 23.8778 7.69816 23.7045 7.84264C23.3868 8.07381 23.0403 8.24719 22.6649 8.36277C21.8852 8.53615 21.0477 8.42057 20.4124 7.98712C20.2391 7.87154 20.2102 7.66926 20.2969 7.49588C20.5568 6.94685 20.9322 6.54231 21.3942 6.16666C21.452 6.39782 21.5098 6.6001 21.5675 6.83127C20.2102 6.88907 18.853 6.51342 17.7556 5.70432C17.5246 5.53094 17.5534 5.21308 17.8422 5.0975C19.3439 4.49068 20.9611 4.25951 22.5494 4.49068C22.4916 4.69295 22.4339 4.89523 22.3761 5.0975C21.9429 4.86633 21.7985 4.40399 21.8852 3.94165C22.0007 3.42152 22.405 3.07476 22.9248 3.01697C24.2532 2.87249 24.8885 4.28841 25.004 5.38646C25.0329 5.58874 24.7152 5.67542 24.6575 5.50204Z" fill="#181D23"/>
<path d="M20.1236 9.22967C19.7482 8.53615 19.3728 7.84264 18.9685 7.17802C18.5642 6.51341 18.0733 5.90658 17.5535 5.32866C17.2647 5.0108 17.7267 4.51956 18.0444 4.83742C19.1706 5.99328 20.0947 7.49588 20.5279 9.05629C20.5568 9.28746 20.2391 9.46084 20.1236 9.22967Z" fill="#181D23"/>
<path d="M18.0155 4.08612C18.1887 4.05722 18.3331 3.99943 18.4775 3.97054C18.6508 3.94164 18.7952 3.91274 18.9685 3.88384C18.8818 3.99943 18.824 4.14391 18.7374 4.2595C18.2465 2.95917 17.2646 1.9478 15.9362 1.51435C15.5319 1.36987 15.7052 0.734152 16.1095 0.878633C17.6112 1.31208 18.9396 2.58351 19.3439 4.08612C19.4016 4.28839 19.2572 4.46177 19.0551 4.49066C18.8818 4.49066 18.7374 4.51956 18.5641 4.51956C18.3909 4.51956 18.2465 4.49066 18.0732 4.49066C17.8422 4.49066 17.7556 4.14391 18.0155 4.08612Z" fill="#181D23"/>
<path d="M18.5064 4.86632C18.5064 4.83742 18.5064 4.83743 18.5064 4.80853C18.5353 4.86632 18.5642 4.89521 18.6508 4.86632C18.6219 4.89521 18.5931 4.89522 18.5642 4.89522C18.5064 4.92411 18.4198 4.9819 18.362 5.0108C18.1888 5.12638 18.0444 5.24197 17.8711 5.29976C17.4668 5.44424 17.0914 5.15529 16.8604 4.83743C16.7448 4.66405 16.6582 4.46177 16.6005 4.28839C16.5427 4.05722 16.5716 3.85495 16.5716 3.62378C16.5716 3.39261 16.6005 3.19034 16.5716 2.95917C16.5427 2.81469 16.5138 2.64131 16.3983 2.52573C16.2828 2.41014 16.2828 2.20787 16.3983 2.06339C16.5138 1.9478 16.7448 1.9478 16.8604 2.06339C17.1203 2.35235 17.2069 2.728 17.2358 3.10365C17.2358 3.45041 17.1492 3.82605 17.178 4.17281C17.2069 4.40398 17.3224 4.72184 17.5534 4.83743C17.6401 4.86632 17.6978 4.86632 17.8133 4.80853C17.9289 4.72184 18.0732 4.66404 18.1888 4.57735C18.3332 4.51956 18.5064 4.40398 18.6797 4.46177C18.853 4.51956 18.9396 4.63515 18.9396 4.80853C18.8818 5.0397 18.5642 5.09749 18.5064 4.86632Z" fill="#181D23"/>
<path d="M17.9 3.85495C17.6112 3.56598 17.3224 3.30592 17.0336 3.01696C16.947 2.93027 16.947 2.78578 17.0336 2.6991C17.1203 2.61241 17.2646 2.61241 17.3513 2.6991C17.6401 2.98806 17.9 3.27702 18.1888 3.56598C18.2754 3.65267 18.2754 3.79715 18.1888 3.85495C18.1021 3.91274 17.9866 3.94164 17.9 3.85495Z" fill="#181D23"/>
<path d="M19.0551 16.945C18.1599 17.8697 17.438 18.9099 16.8893 20.0947C16.8315 20.2392 16.6294 20.2681 16.485 20.2103C16.3406 20.1236 16.3117 19.9502 16.3695 19.8057C16.9182 18.621 17.7267 17.5229 18.7374 16.656C18.9685 16.5116 19.2284 16.7716 19.0551 16.945Z" fill="#181D23"/>
<path d="M14.9544 16.5115C15.5609 18.2164 16.0807 19.9791 16.6294 21.7418C17.178 23.4756 17.6979 25.2382 18.2466 26.972C19.315 30.4107 20.3546 33.8782 21.3943 37.3169C22.0007 39.2818 22.6072 41.2757 23.1558 43.2695C23.3002 43.7897 22.4916 44.0208 22.3184 43.5007C20.1814 36.5656 18.2177 29.5727 16.1962 22.6087C15.6186 20.6148 15.0122 18.6499 14.5213 16.6271C14.4635 16.3671 14.8678 16.2515 14.9544 16.5115Z" fill="#181D23"/>
<path d="M15.0988 16.6271C15.0699 16.5982 15.041 16.5694 15.0122 16.5405C14.6656 16.1937 15.4453 15.8758 15.4453 16.3671C15.4453 16.4249 15.4453 16.4827 15.4453 16.5405C15.4453 16.8872 14.8967 16.8872 14.9255 16.5405C14.9255 16.4827 14.9255 16.4249 14.9255 16.3671C14.9544 15.8758 15.7053 16.2226 15.3587 16.5405C15.3298 16.5694 15.3009 16.5982 15.2721 16.6271C15.2432 16.6849 15.1566 16.6849 15.0988 16.6271Z" fill="#181D23"/>
<path d="M16.5138 20.7015C14.6656 19.8635 12.8463 18.881 11.0558 17.9275C10.6804 17.7252 11.0269 17.1184 11.4024 17.3495C13.1928 18.332 14.9832 19.2856 16.7159 20.3547C16.947 20.4992 16.7448 20.8171 16.5138 20.7015Z" fill="#181D23"/>
<path d="M26.5923 44.0208C25.2351 44.1364 23.8489 44.1653 22.4628 44.2231C21.0766 44.2809 19.7193 44.3387 18.3332 44.3965C17.9289 44.4254 17.9289 43.7897 18.3332 43.7897C19.7193 43.7608 21.0766 43.7319 22.4628 43.703C23.8489 43.6741 25.2351 43.6163 26.5923 43.6452C26.8234 43.6741 26.8234 43.9919 26.5923 44.0208Z" fill="#181D23"/>
<path d="M71.0546 35.2725C72.8574 35.9346 70.918 42.2385 69.723 45.3076L17.0737 45.9284C16.1177 43.1696 14.4719 37.5899 15.5372 37.3416C16.6025 37.0933 18.576 39.4452 19.4296 40.6521C18.9857 36.9967 18.4872 29.6859 20.0442 29.6859C21.6011 29.6859 24.5853 34.169 25.8827 36.4105C25.4388 35.307 24.6331 32.4172 24.9608 29.6859C25.3706 26.2719 27.2143 21.8234 29.0581 21.6165C30.5331 21.4509 34.4527 29.2031 36.2282 33.1C36.0916 29.479 35.9004 21.5337 36.2282 18.7197C36.6379 15.2023 38.789 7.02931 43.8081 8.16732C47.8233 9.07772 49.2369 20.6164 49.4418 26.2719C50.3636 22.0647 52.8629 13.8987 55.4852 14.8919C58.1074 15.885 56.5778 22.8924 55.4852 26.2719C57.0899 23.8235 61.2622 19.3611 65.1136 21.0992C68.965 22.8372 65.7624 34.8587 63.6796 40.6521C65.3868 38.583 69.2518 34.6104 71.0546 35.2725Z" fill="#55A250"/>
<path d="M69.6146 44.7162C69.9749 43.3024 70.3141 41.8671 70.6956 40.4532C70.8652 39.7891 71.056 39.125 71.2256 38.4609C71.3527 37.9253 71.4587 37.3898 71.4163 36.8328C71.3739 36.3401 71.1196 35.8688 70.6744 35.6331C70.2717 35.4189 69.8054 35.4618 69.4026 35.5689C68.364 35.8474 67.5373 36.5757 66.7954 37.3469C65.7567 38.4395 64.8029 39.5963 63.955 40.8388C63.7218 41.1601 63.1495 40.9887 63.2767 40.5389C63.9762 38.2038 64.6121 35.8688 65.1844 33.4909C65.46 32.3127 65.7355 31.113 65.9899 29.9348C66.2019 28.9279 66.435 27.8997 66.541 26.8714C66.7318 25.1362 66.647 23.1225 65.2692 21.9014C63.955 20.7232 61.8989 20.8517 60.3939 21.5801C58.3166 22.5869 56.9812 24.6435 55.773 26.5286C55.4974 26.9356 54.9039 26.5715 55.1371 26.143C56.5361 23.3795 56.8964 20.1233 56.1545 17.1242C56.0697 16.7814 55.9849 16.4601 55.8578 16.1173C55.7518 15.8389 55.6034 15.5175 55.2642 15.4961C54.7131 15.4318 54.1832 16.0531 53.9076 16.4601C53.4625 17.1028 53.1233 17.8526 52.763 18.5595C52.3815 19.3093 52.0423 20.0591 51.7032 20.8303C50.9613 22.5655 50.3466 24.3435 49.8166 26.1644C49.6894 26.5715 49.1171 26.4858 49.0959 26.0573C48.9475 22.5226 48.4388 18.9879 47.6121 15.5389C47.4002 14.7035 47.1882 13.8466 46.9338 13.0325C46.7431 12.347 46.5311 11.6615 46.2555 10.9974C45.7468 9.84058 44.9201 8.64093 43.5635 8.51239C42.2069 8.38386 40.9775 9.2836 40.1084 10.2476C39.1121 11.3402 38.4127 12.7326 37.8403 14.1251C36.6957 16.9528 36.2294 20.0162 36.1234 23.0582C35.9962 26.5715 36.293 30.0847 36.6321 33.5766C36.6745 34.0265 36.0386 34.0479 35.8902 33.6837C34.5548 29.8919 32.6047 26.293 30.1246 23.1439C29.6583 22.5441 28.9376 21.7514 28.1533 22.3298C27.8354 22.5655 27.6022 22.9511 27.4114 23.2938C27.1783 23.7009 26.9663 24.1293 26.7755 24.5578C26.0124 26.293 25.5461 28.1781 25.4401 30.0633C25.2917 32.227 25.5885 34.3906 26.288 36.4258C26.4364 36.8328 25.8005 37.0899 25.5885 36.7257C24.9314 35.5689 24.2107 34.4335 23.4264 33.3624C23.0449 32.8482 22.6421 32.3341 22.2182 31.82C21.8366 31.3701 21.4339 30.9416 20.904 30.6631C20.5224 30.4703 20.0137 30.3847 19.7169 30.7703C19.3778 31.1987 19.399 31.8842 19.3566 32.3984C19.2294 33.7694 19.2294 35.1619 19.3354 36.5329C19.4626 38.0967 19.7381 39.6606 20.1409 41.1815C20.2469 41.5886 19.6533 41.8671 19.4414 41.4814C18.9538 40.5389 18.3179 39.682 17.576 38.9322C17.2157 38.5894 15.8591 37.1756 15.5623 38.2467C15.4775 38.5894 15.5199 38.975 15.6047 39.3178C15.7319 39.8748 15.9227 40.4103 16.0711 40.9459C16.4314 42.1241 16.7706 43.3238 17.1309 44.502C17.5336 45.873 17.9364 47.2227 18.3391 48.5937C18.4875 49.0864 17.7244 49.3006 17.576 48.8079C16.7705 46.1087 15.9863 43.4095 15.202 40.7317C14.9264 39.8105 14.4601 38.6537 14.9476 37.7111C15.1808 37.2827 15.6471 37.0256 16.1346 37.0684C16.7282 37.1327 17.2157 37.5397 17.6396 37.9253C18.6571 38.8037 19.4838 39.8962 20.1197 41.0744C19.8865 41.1815 19.6533 41.2672 19.4202 41.3743C18.6147 38.3966 18.3391 35.2904 18.6147 32.227C18.6783 31.6057 18.6995 30.8988 19.081 30.3847C19.4202 29.8919 19.9713 29.6563 20.5648 29.742C21.8578 29.9134 22.7481 31.1987 23.49 32.1413C24.5286 33.4695 25.4401 34.8619 26.2668 36.3187C26.0336 36.4258 25.8005 36.5115 25.5673 36.6186C24.2319 32.7197 24.3803 28.3495 25.97 24.5578C26.3304 23.6794 26.7543 22.694 27.4114 21.9871C28.0685 21.2801 29.0224 21.1302 29.8279 21.7086C30.2306 22.0085 30.5486 22.3941 30.8453 22.7797C31.1633 23.2082 31.4813 23.6366 31.7992 24.065C32.4351 24.9434 33.0074 25.8645 33.5586 26.8071C34.788 28.9065 35.8266 31.1559 36.6321 33.4481C36.3777 33.4909 36.1446 33.5123 35.8902 33.5552C35.5723 30.2775 35.2755 26.9999 35.3603 23.7223C35.4239 20.5304 35.8478 17.2956 36.9925 14.3179C37.5436 12.8611 38.2431 11.383 39.2181 10.1619C40.1084 9.04796 41.359 7.99826 42.8216 7.78403C44.263 7.56981 45.5348 8.31959 46.3191 9.49782C47.167 10.7617 47.5485 12.3684 47.9513 13.8251C48.9263 17.3813 49.5411 21.0445 49.7742 24.7077C49.7954 25.1576 49.8166 25.6075 49.8378 26.0573C49.6047 26.0145 49.3503 25.9931 49.1171 25.9502C49.6258 24.1722 50.2406 22.4369 50.9613 20.7232C51.3216 19.8663 51.7032 19.0308 52.1059 18.1953C52.4874 17.4455 52.8266 16.6101 53.3353 15.9245C53.7593 15.3461 54.3316 14.7677 55.0735 14.682C55.879 14.5964 56.3665 15.2176 56.6208 15.9031C57.172 17.5098 57.3839 19.2664 57.278 20.9374C57.172 22.8654 56.6632 24.7506 55.7942 26.4644C55.5822 26.3358 55.3702 26.2073 55.1583 26.0788C56.3453 24.2578 57.6171 22.3513 59.4824 21.173C61.0722 20.1662 63.2343 19.8234 64.9513 20.6803C66.753 21.5586 67.4101 23.5509 67.4101 25.4575C67.4101 26.4644 67.2829 27.4712 67.0922 28.4566C66.859 29.7206 66.5834 30.9845 66.2867 32.227C65.6296 35.0762 64.8877 37.8825 64.0398 40.6674C63.8066 40.5603 63.5946 40.4746 63.3615 40.3675C64.2094 39.1678 65.142 38.0325 66.1383 36.9613C66.9862 36.0616 67.9188 35.2047 69.1271 34.8191C70.1869 34.4763 71.4163 34.6906 71.9463 35.7617C72.5398 36.9399 72.031 38.3109 71.7131 39.4892C71.2044 41.2458 70.6956 42.981 70.1657 44.7162C69.9961 45.1661 69.5298 45.0376 69.6146 44.7162Z" fill="#181D23"/>
<path d="M72.243 45.4018C70.3353 45.6588 68.3852 45.6374 66.4562 45.7017C64.5273 45.7659 62.5984 45.8088 60.6695 45.873C56.8116 45.9801 52.9538 46.0444 49.0959 46.1087C41.4226 46.2158 33.7281 46.2372 26.0548 46.1944C21.7306 46.1729 17.3853 46.1087 13.0611 46.023C12.7007 46.023 12.7007 45.466 13.0611 45.466C20.7768 45.616 28.4925 45.6802 36.2294 45.6588C43.9027 45.6374 51.5972 45.5517 59.2705 45.3803C61.4325 45.3375 63.5946 45.2732 65.7567 45.2304C66.8166 45.209 67.8764 45.1661 68.9363 45.1447C70.0385 45.1233 71.1408 45.059 72.243 45.1233C72.4338 45.1447 72.4126 45.3803 72.243 45.4018Z" fill="#181D23"/>
<path d="M69.4874 42.3812C69.5934 42.7025 69.657 43.0239 69.8054 43.3452C69.9538 43.6665 70.1233 43.9664 70.3353 44.2449C70.4201 44.3521 70.3565 44.502 70.2505 44.5663C70.1233 44.6305 69.9962 44.5877 69.9326 44.4806C69.6994 44.1807 69.5298 43.8593 69.4026 43.5166C69.2754 43.1738 69.1695 42.8096 69.1483 42.4455C69.1271 42.2098 69.4238 42.1884 69.4874 42.3812Z" fill="#181D23"/>
<path d="M68.6819 42.6168C68.7031 42.6811 68.7243 42.7239 68.7667 42.7668C68.7455 42.7454 68.7031 42.724 68.6819 42.7025C68.8727 42.7668 68.9363 43.0453 68.9999 43.1952C69.0847 43.388 69.1482 43.5594 69.233 43.7522C69.3814 44.1378 69.551 44.5234 69.6782 44.909C69.763 45.1447 69.3814 45.3161 69.2754 45.0804C69.1059 44.6948 68.9575 44.3092 68.8303 43.9236C68.7667 43.7308 68.6819 43.5594 68.6183 43.3666C68.5547 43.1952 68.4275 42.9382 68.5123 42.7668C68.5123 42.8096 68.5123 42.8525 68.4911 42.8739C68.4699 42.8096 68.4699 42.7668 68.4487 42.7025C68.4064 42.5954 68.6183 42.4883 68.6819 42.6168Z" fill="#181D23"/>
<path d="M67.9188 43.2167C68.0036 43.3881 68.1096 43.5594 68.1944 43.7308C68.2792 43.9022 68.3428 44.0736 68.4276 44.2449C68.576 44.5877 68.7455 44.9305 68.8939 45.2732C68.9363 45.3803 68.9363 45.5089 68.8091 45.5945C68.7031 45.6588 68.5548 45.616 68.4912 45.5089C68.3428 45.1661 68.1732 44.8019 68.0248 44.4592C67.94 44.2878 67.8765 44.095 67.7917 43.9022C67.7281 43.7308 67.6645 43.538 67.6009 43.3666C67.5373 43.1738 67.8341 43.0453 67.9188 43.2167Z" fill="#181D23"/>
<path d="M66.0535 43.0025C66.3927 43.5166 66.6682 44.095 66.965 44.652C67.0286 44.7591 66.9862 44.909 66.8802 44.9733C66.7742 45.0376 66.6258 44.9947 66.5622 44.8876C66.2655 44.3092 65.9687 43.7522 65.7144 43.1524C65.6932 43.0667 65.7356 42.981 65.8204 42.9382C65.9263 42.8953 66.0111 42.9382 66.0535 43.0025Z" fill="#181D23"/>
<path d="M64.7817 43.2595C64.8877 43.538 64.9725 43.7951 65.0997 44.0736C65.2268 44.3307 65.3964 44.5877 65.566 44.8448C65.6296 44.9519 65.5872 45.1018 65.4812 45.1661C65.3752 45.2304 65.248 45.1875 65.1632 45.0804C64.9725 44.8234 64.8241 44.5663 64.6969 44.2878C64.5697 44.0093 64.4425 43.688 64.4001 43.3881C64.3789 43.1096 64.6969 43.0239 64.7817 43.2595Z" fill="#181D23"/>
<path d="M63.743 43.2381C63.8066 43.5166 63.8702 43.7951 63.955 44.0736C64.0398 44.3306 64.167 44.5877 64.2942 44.8448C64.3578 44.9519 64.3154 45.1018 64.2094 45.1447C64.1034 45.209 63.955 45.1661 63.9126 45.059C63.6159 44.5234 63.4039 43.9022 63.4039 43.2809C63.4039 43.0881 63.7006 43.0453 63.743 43.2381Z" fill="#181D23"/>
<path d="M61.9413 42.5526C62.3228 43.2381 62.6832 43.945 63.0223 44.6519C63.0859 44.7591 63.0435 44.909 62.9376 44.9733C62.8316 45.0375 62.6832 44.9947 62.6196 44.8876C62.2593 44.1807 61.9201 43.4737 61.6022 42.7668C61.5598 42.6811 61.581 42.5526 61.6657 42.5097C61.7717 42.424 61.8777 42.4669 61.9413 42.5526Z" fill="#181D23"/>
<path d="M60.2243 41.3101C60.839 42.4026 61.3902 43.538 61.9837 44.652C62.132 44.909 61.7293 45.1447 61.5809 44.8876C61.0086 43.7737 60.4151 42.6597 59.864 41.5243C59.7368 41.2887 60.0972 41.0744 60.2243 41.3101Z" fill="#181D23"/>
<path d="M59.0585 42.3169C59.6308 43.2809 60.1819 44.2878 60.7331 45.2732C60.8814 45.5303 60.4787 45.7659 60.3515 45.5089C59.8004 44.5234 59.2493 43.538 58.7194 42.5312C58.6134 42.2955 58.9313 42.1027 59.0585 42.3169Z" fill="#181D23"/>
<path d="M57.7655 43.131C58.0834 43.4095 58.3166 43.7737 58.5074 44.1378C58.6981 44.5234 58.8253 44.9305 58.8889 45.3375C58.9101 45.466 58.8677 45.5731 58.7405 45.616C58.6345 45.6374 58.4862 45.5732 58.465 45.466C58.4014 45.0804 58.2954 44.7162 58.1258 44.3521C57.9562 43.9879 57.7231 43.6665 57.4899 43.3666C57.4263 43.3024 57.4687 43.1738 57.5323 43.131C57.5959 43.0453 57.6807 43.0667 57.7655 43.131Z" fill="#181D23"/>
<path d="M56.3241 43.7951C56.6209 44.2664 56.9176 44.7591 57.1932 45.2518C57.2568 45.3589 57.2144 45.4874 57.1084 45.5517C57.0024 45.616 56.8752 45.5731 56.8116 45.466C56.5361 44.9733 56.2393 44.4806 55.985 43.9879C55.879 43.7736 56.1969 43.6023 56.3241 43.7951Z" fill="#181D23"/>
<path d="M54.4163 44.245C54.6283 44.652 54.8403 45.0804 55.0523 45.5089C55.0947 45.616 55.0735 45.7445 54.9675 45.8088C54.8615 45.8516 54.7343 45.8302 54.6707 45.7231C54.4587 45.2947 54.2468 44.8662 54.056 44.4378C54.0136 44.3521 54.0348 44.2235 54.1196 44.1593C54.2256 44.1164 54.3528 44.1378 54.4163 44.245Z" fill="#181D23"/>
<path d="M52.4874 44.2878C52.6146 44.7805 52.8054 45.2518 53.1233 45.6588C53.1869 45.7445 53.2081 45.8516 53.1233 45.9159C53.0597 45.9802 52.9326 46.0016 52.869 45.9159C52.5086 45.466 52.2543 44.909 52.2119 44.3092C52.2119 44.1807 52.445 44.1378 52.4874 44.2878Z" fill="#181D23"/>
<path d="M49.3927 43.8165C49.6895 44.3092 49.965 44.8019 50.2618 45.2732C50.3889 45.5089 50.0286 45.7231 49.9014 45.4875C49.6259 44.9947 49.3503 44.502 49.0959 43.9879C48.9688 43.7951 49.2655 43.6237 49.3927 43.8165Z" fill="#181D23"/>
<path d="M47.0822 43.4095C47.4426 43.9664 47.8029 44.5234 48.1632 45.0804C48.2268 45.1875 48.1844 45.3161 48.0785 45.3803C47.9725 45.4446 47.8453 45.4017 47.7817 45.2946C47.4214 44.7377 47.0822 44.1807 46.7219 43.6237C46.6583 43.538 46.7007 43.388 46.7855 43.3452C46.8915 43.2809 47.0186 43.3024 47.0822 43.4095Z" fill="#181D23"/>
<path d="M44.5386 40.8816C45.1957 42.1241 45.874 43.3666 46.5099 44.6305C46.6371 44.8662 46.2767 45.0804 46.1495 44.8448C45.4924 43.6023 44.8565 42.3384 44.2206 41.0744C44.0934 40.8602 44.4114 40.6674 44.5386 40.8816Z" fill="#181D23"/>
<path d="M41.5922 36.2544C43.3303 39.0179 44.9413 41.8671 46.4463 44.7805C46.5946 45.059 46.1707 45.2946 46.0223 45.0376C44.4538 42.167 42.8216 39.3392 41.1894 36.5114C41.0622 36.233 41.4438 35.9973 41.5922 36.2544Z" fill="#181D23"/>
<path d="M41.2107 38.975C42.6309 41.203 43.9239 43.5166 45.1745 45.8302C45.3229 46.1087 44.8989 46.3657 44.7294 46.0873C43.4788 43.7522 42.1645 41.4815 40.8503 39.1678C40.7231 38.9536 41.0623 38.7608 41.2107 38.975Z" fill="#181D23"/>
<path d="M40.4263 41.4815C40.8927 42.1884 41.2742 42.9596 41.677 43.688C42.1009 44.4377 42.5037 45.1661 42.9276 45.9159C43.076 46.1944 42.652 46.43 42.5037 46.173C42.0797 45.4232 41.677 44.6948 41.2742 43.945C40.8715 43.1952 40.4264 42.4669 40.0448 41.6957C39.9388 41.4386 40.278 41.2458 40.4263 41.4815Z" fill="#181D23"/>
<path d="M39.1334 42.9382C39.5573 43.3238 39.9176 43.8165 40.2144 44.3306C40.5112 44.8448 40.7443 45.4018 40.9139 45.9588C40.9987 46.2373 40.5536 46.3658 40.49 46.0873C40.3416 45.5517 40.1296 45.0376 39.8541 44.5449C39.5785 44.0522 39.2605 43.6023 38.9214 43.1738C38.773 43.0025 38.9638 42.7882 39.1334 42.9382Z" fill="#181D23"/>
<path d="M36.9924 43.6451C37.5648 44.4163 38.0311 45.2732 38.3703 46.173C38.455 46.4086 38.0735 46.5586 37.9675 46.3443C37.7767 45.9159 37.5648 45.4874 37.3528 45.0804C37.1408 44.652 36.8865 44.2664 36.6533 43.8593C36.5897 43.7736 36.6321 43.6451 36.7169 43.5808C36.8229 43.5166 36.9289 43.5594 36.9924 43.6451Z" fill="#181D23"/>
<path d="M34.5336 42.4026C34.9787 43.4523 35.4027 44.502 35.7842 45.5731C35.8266 45.6803 35.7418 45.8088 35.6358 45.8302C35.5087 45.8731 35.4239 45.7874 35.3815 45.6803C34.9575 44.6306 34.5548 43.5594 34.1733 42.4883C34.0885 42.2527 34.4488 42.167 34.5336 42.4026Z" fill="#181D23"/>
<path d="M30.8029 38.3109C31.4812 39.5534 32.0747 40.8388 32.7106 42.1027C33.3465 43.3666 33.9825 44.6305 34.6184 45.8945C34.7668 46.1729 34.3428 46.43 34.1944 46.1515C33.5585 44.8876 32.9226 43.6237 32.2867 42.3598C31.6508 41.0958 30.9937 39.8319 30.4002 38.5466C30.2942 38.2895 30.6545 38.0539 30.8029 38.3109Z" fill="#181D23"/>
<path d="M30.5698 41.8456C31.5872 43.0881 32.3715 44.5663 32.8166 46.1301C32.9014 46.43 32.4563 46.5371 32.3715 46.2586C31.9052 44.7377 31.2057 43.3452 30.2518 42.0813C30.1034 41.9099 30.4214 41.6743 30.5698 41.8456Z" fill="#181D23"/>
<path d="M29.5312 43.1738C30.0187 44.1164 30.4214 45.1233 30.8454 46.1087C30.8878 46.2158 30.8877 46.3444 30.7606 46.43C30.6546 46.4943 30.5062 46.4515 30.4426 46.3444C29.9975 45.3589 29.5523 44.3521 29.192 43.3238C29.1496 43.131 29.4464 43.0025 29.5312 43.1738Z" fill="#181D23"/>
<path d="M27.6234 44.095C27.7718 44.4592 27.9201 44.8019 28.1109 45.1447C28.3017 45.4874 28.5137 45.8088 28.7468 46.1087C28.8952 46.3229 28.5561 46.6014 28.3865 46.3872C27.8778 45.7659 27.4538 44.9733 27.263 44.1807C27.2418 44.095 27.2842 43.9879 27.3902 43.9664C27.4962 43.9236 27.581 43.9879 27.6234 44.095Z" fill="#181D23"/>
<path d="M25.1645 44.2235C25.5885 44.909 26.0336 45.616 26.4364 46.3229C26.5847 46.58 26.2032 46.8156 26.0336 46.5586C25.5885 45.8731 25.1857 45.1447 24.783 44.4377C24.6346 44.2021 25.0162 43.9879 25.1645 44.2235Z" fill="#181D23"/>
<path d="M23.3204 42.3598C23.7655 43.4737 24.1895 44.6091 24.6134 45.7231C24.7194 46.0016 24.2743 46.1301 24.1683 45.8516C23.7443 44.7377 23.3416 43.6023 22.9388 42.4669C22.8328 42.2312 23.2144 42.1241 23.3204 42.3598Z" fill="#181D23"/>
<path d="M22.3877 41.2886C23.0024 42.7025 23.596 44.1164 24.1471 45.5303C24.2531 45.8302 23.8079 45.9373 23.6807 45.6588C23.1084 44.2663 22.5785 42.8311 22.0698 41.4172C22.0062 41.2458 22.3029 41.1173 22.3877 41.2886Z" fill="#181D23"/>
<path d="M21.4127 43.1524C21.8578 43.9236 22.2817 44.6948 22.7057 45.466C22.8541 45.7445 22.4301 45.9801 22.3029 45.7017C21.879 44.9305 21.4763 44.1378 21.0735 43.3666C20.9675 43.131 21.2855 42.9382 21.4127 43.1524Z" fill="#181D23"/>
<path d="M20.162 43.7951C20.5436 44.4163 20.9039 45.0376 21.2431 45.6803C21.3914 45.9373 20.9887 46.173 20.8403 45.9159C20.48 45.2732 20.1408 44.6306 19.8229 43.9879C19.7381 43.7737 20.0348 43.5809 20.162 43.7951Z" fill="#181D23"/>
<path d="M19.0174 43.8379C19.3354 44.5234 19.6534 45.209 19.9501 45.9159C20.0137 46.0444 19.9713 46.1944 19.8441 46.2587C19.6957 46.3229 19.5686 46.2372 19.5262 46.1087C19.2294 45.4018 18.9538 44.7162 18.6995 44.0093C18.5935 43.7736 18.9326 43.6237 19.0174 43.8379Z" fill="#181D23"/>
<path d="M17.2157 43.3881C17.5124 44.0093 17.788 44.652 18.0635 45.2732C18.1271 45.4018 18.0847 45.5517 17.9576 45.616C17.8092 45.6802 17.7032 45.5946 17.6396 45.466C17.3852 44.8234 17.1309 44.1807 16.8765 43.538C16.7917 43.3238 17.1309 43.1738 17.2157 43.3881Z" fill="#181D23"/>
<path d="M49.647 27.6426C49.6894 28.221 49.647 28.8208 49.6894 29.4206C49.7318 29.999 49.7954 30.5989 49.9014 31.1773C49.965 31.4986 49.4563 31.6486 49.3927 31.3272C49.2867 30.706 49.2231 30.0847 49.1807 29.4635C49.1595 28.8637 49.1171 28.1996 49.2443 27.5997C49.3079 27.3427 49.6258 27.4284 49.647 27.6426Z" fill="#181D23"/>
<path d="M41.5074 11.2116C41.465 11.1474 41.2319 11.5972 41.2107 11.5972C41.1259 11.79 41.0411 12.0042 40.9351 12.197C40.7443 12.6255 40.5747 13.0539 40.4264 13.4824C40.1296 14.3179 39.8753 15.1748 39.6845 16.0531C39.3029 17.7883 39.1334 19.5664 39.197 21.323C39.2393 22.3513 39.3453 23.3581 39.5149 24.365C39.5785 24.7291 39.0274 24.8791 38.9638 24.5149C38.2431 20.5089 38.6882 16.3101 40.278 12.5612C40.4688 12.0899 40.6807 11.533 40.9775 11.1259C41.1683 10.8689 41.6134 10.6975 41.7618 11.0831C41.8466 11.2759 41.5922 11.3402 41.5074 11.2116Z" fill="#181D23"/>
<path d="M27.4326 26.4001C26.5635 29.4849 26.5847 32.7197 27.5386 35.8045C27.6234 36.1044 27.1782 36.233 27.0723 35.9331C26.0548 32.8482 26.0124 29.3778 27.0723 26.293C27.1359 26.0573 27.4962 26.1644 27.4326 26.4001Z" fill="#181D23"/>
<path d="M26.288 39.9819C25.0798 38.2681 23.8503 36.5972 22.5149 34.9691C22.3029 34.712 22.6633 34.3264 22.8753 34.6049C24.2107 36.2544 25.4825 37.9896 26.5635 39.8105C26.6907 40.0033 26.4152 40.1747 26.288 39.9819Z" fill="#181D23"/>
<path d="M63.7854 23.8937C63.4251 23.3153 62.7256 23.251 62.1321 23.3581C61.4538 23.4652 60.8391 23.808 60.2667 24.1936C58.9949 25.0505 58.0199 26.2501 57.1508 27.4926C56.6633 28.1996 56.1969 28.9494 55.7518 29.6991C55.5822 29.9776 55.1371 29.7206 55.3067 29.4421C56.1969 28.0068 57.1084 26.55 58.2742 25.3075C58.8253 24.7077 59.4401 24.1722 60.1396 23.7437C60.7755 23.3367 61.4538 22.9939 62.2169 22.9297C62.9376 22.8654 63.7218 23.0582 64.061 23.7651C64.1458 23.9151 63.8914 24.0651 63.7854 23.8937Z" fill="#181D23"/>
<path d="M63.8914 36.1473C63.7218 37.0042 63.4887 37.8396 63.2767 38.6751C63.2131 38.9536 62.7892 38.8251 62.8527 38.568C63.0647 37.7325 63.2555 36.8756 63.5099 36.0402C63.5946 35.8045 63.955 35.8902 63.8914 36.1473Z" fill="#181D23"/>
<path d="M70.1869 38.2895C69.9749 37.8396 69.445 37.7325 69.0211 37.8825C68.4911 38.0539 68.0672 38.4823 67.7068 38.8679C66.9861 39.6605 66.4774 40.6031 66.2019 41.6314C66.1383 41.8885 65.7355 41.7813 65.7991 41.5243C66.1171 40.3032 66.7742 39.1892 67.6644 38.3323C68.0884 37.9253 68.6183 37.4969 69.233 37.454C69.7206 37.4112 70.2505 37.6682 70.4624 38.1395C70.526 38.3109 70.2717 38.4823 70.1869 38.2895Z" fill="#181D23"/>
<path d="M77.1183 44.9733C77.4787 45.1018 77.839 45.2089 78.1994 45.3375C78.5597 45.466 78.9624 45.5731 79.3016 45.7445C79.4076 45.8088 79.45 45.9373 79.4076 46.0444C79.3652 46.1515 79.2592 46.1944 79.132 46.173C78.9413 46.1301 78.7505 46.0658 78.5809 45.9801C78.4113 45.9159 78.2418 45.8516 78.0722 45.7874C77.7118 45.6588 77.3727 45.5303 77.0123 45.3803C76.9064 45.3375 76.8216 45.2304 76.864 45.1018C76.864 45.0161 76.9911 44.9304 77.1183 44.9733Z" fill="#181D23"/>
<path d="M75.9101 44.7805C76.4824 45.0804 77.0547 45.4446 77.6058 45.8088C77.7118 45.873 77.7542 46.023 77.6906 46.1301C77.627 46.2372 77.4786 46.2801 77.3727 46.2158C76.8215 45.8516 76.2492 45.5089 75.7193 45.1233C75.6345 45.059 75.5921 44.9519 75.6557 44.8448C75.6981 44.7591 75.8041 44.7377 75.9101 44.7805Z" fill="#181D23"/>
<path d="M73.854 44.7377C74.1507 44.8876 74.4051 45.0804 74.6806 45.2732C74.9562 45.466 75.2106 45.6588 75.4861 45.8516C75.5921 45.9373 75.6557 46.0658 75.5709 46.1944C75.5073 46.3015 75.3377 46.3658 75.2318 46.2801C74.9562 46.0873 74.6806 45.8945 74.4263 45.6802C74.1507 45.4874 73.8752 45.2732 73.6208 45.0376C73.4512 44.909 73.6632 44.6305 73.854 44.7377Z" fill="#181D23"/>
<path d="M72.1795 44.7377C72.7518 45.059 73.3029 45.4446 73.854 45.8088C73.96 45.873 74.0024 46.023 73.9388 46.1515C73.8752 46.2586 73.7268 46.3229 73.5996 46.2372C73.0485 45.873 72.4974 45.5089 71.9675 45.1233C71.8827 45.059 71.8403 44.9305 71.8827 44.8448C71.9463 44.7162 72.0735 44.6734 72.1795 44.7377Z" fill="#181D23"/>
<path d="M69.5722 45.0162C69.6782 45.059 69.763 45.0804 69.869 45.1233C69.9538 45.1661 70.0597 45.209 70.1445 45.2518C70.3141 45.3375 70.4837 45.4232 70.6533 45.5089C71.0136 45.7017 71.3527 45.8731 71.7131 46.0659C71.9675 46.1944 71.7343 46.6014 71.4799 46.4515C71.1408 46.2587 70.8016 46.0873 70.4413 45.8945C70.2717 45.8088 70.1021 45.7017 69.9326 45.616C69.8478 45.5731 69.763 45.5089 69.6782 45.466C69.5934 45.4018 69.5086 45.3375 69.4238 45.2732C69.339 45.1875 69.4026 44.9733 69.5722 45.0162Z" fill="#181D23"/>
<path d="M68.3216 45.4017C68.5548 45.4874 68.7879 45.5946 68.9999 45.7017C69.2119 45.8088 69.4238 45.9159 69.6358 46.023C69.7418 46.0873 69.7842 46.2372 69.7206 46.3443C69.657 46.4514 69.5298 46.4943 69.4026 46.43C69.1907 46.3229 68.9787 46.2158 68.7667 46.1087C68.5548 46.0016 68.3428 45.8945 68.152 45.7659C68.0672 45.7017 68.0248 45.616 68.0672 45.5303C68.152 45.4232 68.2368 45.3589 68.3216 45.4017Z" fill="#181D23"/>
<path d="M15.202 45.2304C15.4775 45.2946 15.7319 45.4232 15.9862 45.5517C16.2194 45.6802 16.4738 45.7874 16.707 45.9159C17.1945 46.173 17.7032 46.4086 18.1907 46.6871C18.4451 46.837 18.2119 47.1798 17.9788 47.0727C17.47 46.8585 16.9825 46.58 16.495 46.3015C16.2618 46.173 16.0286 46.0444 15.7955 45.9159C15.5411 45.7874 15.2867 45.6588 15.0748 45.466C14.9476 45.3589 15.0748 45.1875 15.202 45.2304Z" fill="#181D23"/>
<path d="M12.9551 45.1875C13.8242 45.8302 14.7568 46.28 15.8167 46.4728C15.9439 46.4943 16.0075 46.6442 15.9863 46.7728C15.9439 46.9013 15.8167 46.9656 15.6895 46.9441C14.6085 46.7513 13.5274 46.28 12.7007 45.5517C12.5311 45.3803 12.7643 45.059 12.9551 45.1875Z" fill="#181D23"/>
<path d="M11.2381 45.3589C11.6409 45.4446 12.0224 45.6374 12.3827 45.8302C12.7431 46.023 13.0822 46.2586 13.4002 46.5157C13.591 46.6871 13.3366 47.0298 13.1246 46.8585C12.8067 46.6228 12.4887 46.4086 12.1496 46.2158C11.8104 46.023 11.4713 45.8945 11.1109 45.7445C11.005 45.7016 10.9414 45.616 10.9626 45.4874C11.0261 45.3803 11.1321 45.3375 11.2381 45.3589Z" fill="#181D23"/>
<path d="M8.67332 45.5731C9.20324 45.6374 9.69077 45.9159 10.0723 46.3015C10.1571 46.3872 10.1571 46.5371 10.0723 46.6228C9.98753 46.7085 9.83916 46.7085 9.75436 46.6228C9.71198 46.58 9.66956 46.5371 9.62717 46.4943C9.60598 46.4729 9.58479 46.4515 9.56358 46.4515C9.60598 46.4729 9.54239 46.43 9.56358 46.4515C9.54239 46.4515 9.54239 46.43 9.52119 46.43C9.4364 46.3658 9.33043 46.3015 9.22445 46.2372C9.18205 46.2158 9.11846 46.1944 9.07607 46.173C9.05487 46.1515 9.01247 46.1515 8.99127 46.1301C9.01247 46.1515 8.94888 46.1087 8.99127 46.1301C8.97008 46.1301 8.97007 46.1301 8.94888 46.1087C8.8429 46.0659 8.71571 46.023 8.60973 46.0016C8.50375 45.9802 8.44016 45.873 8.46136 45.7659C8.48255 45.6588 8.56734 45.5517 8.67332 45.5731Z" fill="#181D23"/>
</svg>
