<?xml version="1.0" encoding="UTF-8"?> <svg xmlns="http://www.w3.org/2000/svg" width="18" height="18" viewBox="0 0 18 18" fill="none"><path d="M5.5 0.0986328C5.58887 0.0986328 5.58887 0.0986328 5.67432 0.1875C5.76318 0.276367 6.02637 0.536133 6.02637 0.713867C6.02637 0.888183 6.02637 1.32568 6.11182 1.67432C6.28613 2.11182 6.46387 3.25 6.72363 3.86182C6.98682 4.47363 7.07568 4.82568 6.8125 5.17432C6.54932 5.61182 4.88818 7.27637 4.88818 7.27637C4.88818 7.27637 5.32568 8.15137 5.84863 8.67432C6.28613 9.28613 6.98682 10.1611 7.86182 10.8618C8.73682 11.6514 9.70068 12.3486 10.6611 12.7861C11.625 11.8257 12.4111 11.0361 12.6743 10.8618C12.9375 10.6875 12.9375 10.5986 13.375 10.7764C13.8125 10.9507 14.4243 11.2139 15.125 11.2993C15.7368 11.3882 16.4375 11.4736 16.875 11.5625C17.3125 11.6514 17.3125 11.6514 17.4014 11.8257C17.5757 12 17.6611 12.2632 17.6611 12.3486C17.6611 12.4375 17.6611 12.7007 17.6611 13.5757C17.6611 14.4507 17.6611 15.6743 17.6611 15.9375C17.6611 16.2007 17.6611 16.2007 17.5757 16.375C17.4868 16.5493 17.4014 16.9868 17.4014 16.9868C17.4014 17.0757 16.9639 17.25 16.7007 17.25C16.4375 17.25 15.4736 17.25 14.8618 17.1611C14.25 17.0757 12.5889 16.7236 11.9736 16.4639C11.3618 16.2861 9.34863 15.5889 6.90137 13.75C4.625 12 2.96387 9.63818 2 7.71387C1.03613 5.78613 0.513183 3.6875 0.424317 2.63818C0.25 1.58887 0.25 1.15137 0.25 0.888183C0.338868 0.625 0.598633 0.361816 0.776368 0.276367C0.950683 0.1875 1.21387 0.0986328 1.47363 0.0986328C1.73682 0.0986328 2.4375 0.0986328 3.40137 0.0986328C4.36182 0.0986328 5.5 0.0986328 5.5 0.0986328Z" fill="white"></path></svg> 