<svg xmlns="http://www.w3.org/2000/svg" width="46" height="33" fill="none"><path fill-rule="evenodd" d="M4.17 5.812l2-5c2.375 1.208 7.425 4.4 8.625 7.5s2.083 6.708 2.375 8.125v15.375h-17l1.25-16.25h8.75c.375-2.833-.3-8.75-6-9.75zm26.91 0l2-5c2.375 1.208 7.425 4.4 8.625 7.5s2.083 6.708 2.375 8.125v15.375h-17l1.25-16.25h8.75c.375-2.833-.3-8.75-6-9.75z" fill="#fe6869"/><g fill="#181d23"><path d="M9.1 16.767H2.135l.893-.89L2.135 32.1l-.893-.89a280.84 280.84 0 0 1 17.319-.535c-.357.357-.536.713-.893 1.07-.714-4.992-.893-9.983-.714-15.153 0-1.07 1.786-1.07 1.786 0a100.07 100.07 0 0 0 .536 14.618c0 .535-.178 1.07-.893 1.07a140.54 140.54 0 0 0-17.319.535.84.84 0 0 1-.893-.891l.893-16.223a.84.84 0 0 1 .893-.891H8.92c1.428.178 1.428 1.96.18 1.96z"/><path d="M10.527 15.698c.536-3.922-1.964-8.022-5.892-9.092-.714-.178-.893-1.248-.18-1.604 1.07-.9 1.785-2.318 1.607-3.744-.18-.535.357-1.426 1.07-1.07 7.142 2.674 12.14 9.805 12.14 17.292 0 1.07-1.785 1.07-1.785 0-.18-6.774-4.642-13.192-10.9-15.688L7.67.723c.357 2.318-.536 4.457-2.32 5.883 0-.535-.18-1.07-.18-1.604 4.642 1.426 7.856 6.06 7.142 10.875-.18 1.07-1.964 1.07-1.786-.178zm24.468 1.07H28.03l.893-.9L28.03 32.1l-.893-.9a280.54 280.54 0 0 1 17.32-.535c-.357.357-.536.713-.893 1.07-.714-4.992-.893-9.983-.714-15.153 0-1.07 1.785-1.07 1.785 0a100.07 100.07 0 0 0 .536 14.618c0 .535-.18 1.07-.893 1.07a140.54 140.54 0 0 0-17.319.535.84.84 0 0 1-.893-.891L26.96 15.7a.84.84 0 0 1 .893-.891h6.963c1.428.178 1.428 1.96.178 1.96z"/><path d="M36.423 15.698c.536-3.922-1.964-8.022-5.892-9.092-.714-.178-.893-1.248-.18-1.604 1.07-.89 1.786-2.318 1.607-3.744-.178-.535.357-1.426 1.07-1.07 7.142 2.674 12.14 9.805 12.14 17.292 0 1.07-1.785 1.07-1.785 0-.178-6.774-4.642-13.192-10.89-15.688l1.07-1.07c.357 2.318-.536 4.457-2.32 5.883 0-.535-.178-1.07-.178-1.604 4.642 1.426 7.856 6.06 7.142 10.875-.178 1.07-1.964 1.07-1.785-.178z"/></g></svg>