<svg width="3190" height="1023" viewBox="0 0 3190 1023" fill="none" xmlns="http://www.w3.org/2000/svg" preserveAspectRatio="none">
<g clip-path="url(#clip0)">
<path d="M912.044 1116.12C738.173 1116.12 518.801 1222.37 77.6957 1222.37H-93.1274L-93.1273 600.855H3527.43V1222.37H2975.37C2708.79 1222.37 2628.22 1141.27 2471.81 1141.27C2241.07 1141.27 2621.48 1336.68 2444.79 1336.68C2299.28 1336.68 1992.63 1252.39 1819.76 1252.39C1613.59 1252.39 1867.7 1346.2 1616.21 1331.32C1441.93 1300.43 1192.48 1398.72 888.981 1398.72C735.154 1398.72 1085.92 1116.12 912.044 1116.12Z" fill="#F1E3D9"/>
<path d="M912.044 1116.12C738.173 1116.12 518.801 1222.37 77.6957 1222.37H-93.1274L-93.1273 600.855H3527.43V1222.37H2975.37C2708.79 1222.37 2628.22 1141.27 2471.81 1141.27C2241.07 1141.27 2621.48 1336.68 2444.79 1336.68C2299.28 1336.68 1992.63 1252.39 1819.76 1252.39C1613.59 1252.39 1867.7 1346.2 1616.21 1331.32C1441.93 1300.43 1192.48 1398.72 888.981 1398.72C735.154 1398.72 1085.92 1116.12 912.044 1116.12Z" fill="url(#paint0_linear)" style="mix-blend-mode:overlay"/>
<path d="M2265.57 147.846L1564.21 344.373H1178.14L1029.96 298.55L959.927 277.074L594.192 148.376H-92.7515V0H594.192H2265.57H3515.05V147.846H2265.57Z" fill="#FEEDB7"/>
<path d="M2265.57 147.846L1564.21 344.373H1178.14L1029.96 298.55L959.927 277.074L594.192 148.376H-92.7515V0H594.192H2265.57H3515.05V147.846H2265.57Z" fill="#D28E7E"/>
<path d="M2265.57 147.846L1564.21 344.373H1178.14L1029.96 298.55L959.927 277.074L594.192 148.376H-92.7515V0H594.192H2265.57H3515.05V147.846H2265.57Z" fill="url(#paint1_radial)" fill-opacity="0.14" style="mix-blend-mode:color-burn"/>
<path d="M3522.04 873.976L3518.87 523.095L3515.47 147.395L-89.1455 140.74V873.976H3522.04Z" fill="#D56232"/>
<path opacity="0.2" d="M3522 869.204L3518.71 505.885L3515.47 147.395L-182 147.422V869.204H3522Z" fill="#181D23"/>
<path d="M2244.61 140.581V140.909L3519.56 140.908V153.659H2244.61V865.665H3519.56V899.697H2244.61L-96.3574 898.954V868.753L2244.61 865.665V153.659L-96.3574 153.653V140.581H2244.61Z" fill="#FBFBFB"/>
<path d="M2244.61 140.581V140.909L3519.56 140.908V153.659H2244.61V865.665H3519.56V899.697H2244.61L-96.3574 898.954V868.753L2244.61 865.665V153.659L-96.3574 153.653V140.581H2244.61Z" fill="#BE7643"/>
<g style="mix-blend-mode:overlay" opacity="0.2">
<path d="M3752.8 865.666H2477.86V875.356H3752.8V865.666Z" fill="white"/>
<path fill-rule="evenodd" clip-rule="evenodd" d="M3752.8 147.284V140.909L2477.86 140.909V144.691L3752.8 147.284Z" fill="white"/>
<path d="M831.042 145.332V140.938L-629 140.938V145.332L831.042 145.332Z" fill="white"/>
<path d="M832.394 876.932V868.594H-629V876.932H832.394Z" fill="white"/>
<path d="M2477.86 875.356V865.666L832.394 868.594V876.932L2477.86 875.356Z" fill="white"/>
<path d="M2477.86 144.691V140.909L831.042 140.938V145.332L2477.86 144.691Z" fill="white"/>
</g>
</g>
<defs>
<linearGradient id="paint0_linear" x1="640.627" y1="1022.38" x2="640.627" y2="766.385" gradientUnits="userSpaceOnUse">
<stop stop-color="white"/>
<stop offset="1" stop-color="white" stop-opacity="0"/>
</linearGradient>
<radialGradient id="paint1_radial" cx="0" cy="0" r="1" gradientUnits="userSpaceOnUse" gradientTransform="translate(1436.19 411.084) rotate(-90) scale(168.699 930.056)">
<stop/>
<stop offset="1" stop-opacity="0"/>
</radialGradient>
<clipPath id="clip0">
<rect width="3190" height="1023" fill="white"/>
</clipPath>
</defs>
</svg>
