<svg width="177" height="182" viewBox="0 0 177 182" fill="none" xmlns="http://www.w3.org/2000/svg">
    <g filter="url(#filter0_d)">
        <path fill-rule="evenodd" clip-rule="evenodd" d="M84.5851 8.87762C107.57 8.00811 129.779 18.4772 144.066 36.483C158.301 54.4237 162.878 78.2382 157.221 100.422C151.735 121.94 135.788 138.896 115.589 148.167C95.8636 157.221 73.001 157.847 53.6892 147.944C34.9403 138.329 23.6927 119.335 19.2398 98.7597C14.8586 78.5147 18.313 57.539 30.4975 40.7792C43.4412 22.9752 62.5722 9.71034 84.5851 8.87762Z" fill="white"/>
    </g>
    <g opacity="0.2">
        <path d="M96.174 48.5634C95.8697 47.6016 94.7035 47.3485 93.7907 47.6522C92.7259 48.0066 91.8131 48.9684 91.6103 50.1328C91.4074 51.3984 92.0666 52.5627 92.9287 53.474C93.8921 54.4864 95.0584 55.3977 96.174 56.2583C98.1009 57.777 100.788 59.9538 103.375 58.7388C104.338 58.2832 105.149 57.372 105.2 56.3089C105.301 55.0939 104.389 54.0814 103.679 53.2208C101.701 50.9428 99.5207 48.6647 96.7825 47.2978C95.9711 46.8928 95.2613 48.1078 96.0726 48.5128C97.8981 49.424 99.4193 50.6896 100.839 52.1577C101.549 52.8665 102.208 53.5752 102.867 54.3346C103.425 54.942 104.287 55.752 103.831 56.7139C103.476 57.4732 102.563 57.9289 101.803 57.9289C100.738 57.9289 99.7743 57.372 98.9122 56.8151C97.1375 55.6508 95.312 54.2333 93.8414 52.664C93.0808 51.854 92.4216 50.5884 93.2329 49.6265C93.6893 49.019 94.8556 48.4116 95.5148 49.0697C95.7683 49.2722 96.2754 48.9684 96.174 48.5634Z" fill="#181D23"/>
        <path d="M83.5477 54.6383C83.5984 54.2839 83.9534 54.1321 84.207 53.9296C84.4605 53.7271 84.714 53.5246 84.8661 53.2208C85.2211 52.664 85.3732 52.0565 85.2718 51.3984C85.069 50.0315 83.852 49.0697 82.4829 49.0697C80.9109 49.1203 79.6939 50.0821 78.5276 50.9934C77.3613 51.9046 76.1444 52.7146 75.1809 53.8789C74.6738 54.4864 74.2682 55.0939 74.0147 55.8533C73.9132 56.2076 73.8118 56.6126 73.9132 56.967C73.9639 57.1189 74.0653 57.3214 74.1667 57.4732C74.2174 57.5239 74.2175 57.5745 74.2682 57.6251C74.3189 57.777 74.2682 57.7264 74.3189 57.6757C74.1668 57.8782 74.2174 58.2326 74.4203 58.3845C75.688 59.4982 77.3614 59.1438 78.6798 58.3338C80.2517 57.4226 81.773 56.3089 83.2435 55.1952C83.7506 54.7902 83.0914 53.9296 82.5336 54.2839C81.2659 55.1445 80.0489 56.0558 78.7305 56.8657C77.8177 57.4732 76.2965 58.4351 75.2316 57.5239C75.2823 57.777 75.2823 58.0301 75.333 58.2326C75.5359 57.9795 75.5358 57.6757 75.4851 57.372C75.3837 57.0682 75.1809 56.8151 75.0795 56.562C74.9274 55.9545 75.688 55.0433 76.0937 54.5877C77.1585 53.3727 78.5784 52.4108 79.8968 51.449C81.0124 50.639 82.9899 49.4747 84.0548 50.9934C84.5112 51.6515 84.4605 52.5121 83.9027 53.1196C83.4971 53.5752 82.9392 53.8789 83.0914 54.5371C83.1421 54.8408 83.497 54.8408 83.5477 54.6383Z" fill="#181D23"/>
        <path d="M93.74 47.5509C92.3709 46.2854 90.8497 45.3235 89.2778 44.311C87.7058 43.2985 86.0832 42.3367 84.4605 41.4761C81.3167 39.7549 77.9699 38.1349 74.5218 37.0212C70.9216 35.8568 67.1691 35.8062 63.5182 36.9706C60.78 37.8312 58.2446 39.3499 56.1655 41.3242C51.6018 45.5766 49.2693 51.6515 49.7764 57.8276C50.4356 65.1174 54.2894 71.5467 58.5995 77.2165C61.1856 80.6083 63.8731 83.8483 66.51 87.1895C69.3496 90.6825 72.1385 94.2262 74.9781 97.7192C75.5866 98.428 76.6008 97.4155 75.9923 96.7067C75.0115 95.4855 74.0308 94.2642 73.05 93.0429C72.7979 92.7289 72.5457 92.4148 72.2935 92.1008C72.0085 91.7459 71.7235 91.391 71.4385 91.0361C71.1215 90.6414 70.8046 90.2467 70.4876 89.852C67.6067 86.2646 64.7258 82.6771 61.8449 79.0896C57.5854 73.7235 53.3766 68.003 51.754 61.2194C50.9934 58.0301 50.8413 54.5877 51.7033 51.3984C52.4132 48.7153 53.7316 46.2347 55.5064 44.1085C59.4616 39.4511 65.6986 36.6668 71.7836 37.9324C75.6374 38.6918 79.2883 40.5649 82.7365 42.3873C84.4605 43.2985 86.1339 44.2098 87.8072 45.2222C89.5313 46.2854 91.1539 47.4497 92.9287 48.4116C93.5879 48.6647 94.1964 47.9559 93.74 47.5509Z" fill="#181D23"/>
        <path d="M91.8638 48.7659C88.7199 46.8928 85.5761 45.0704 82.3815 43.2985C79.4404 41.6786 76.3472 40.2105 73.0512 39.4511C70.0595 38.793 66.9663 38.8436 64.0759 39.8055C61.3377 40.7167 58.8023 42.3873 56.8754 44.5135C52.7174 49.019 51.3483 55.6002 52.7174 61.5231C54.1879 67.8005 58.4474 72.9641 62.4533 77.824C64.8365 80.7602 67.1691 83.6458 69.5524 86.582C70.2029 87.3813 70.848 88.1971 71.5038 89.0077C71.821 89.3997 72.1406 89.7904 72.4646 90.1776C72.7501 90.5187 73.039 90.8569 73.3325 91.1907C73.6003 91.4951 73.8719 91.7958 74.1483 92.0915C74.6756 92.6555 75.2205 93.2013 75.7895 93.7199C77.9699 95.6943 80.556 97.213 83.5477 97.4661C86.4888 97.7192 89.4806 96.808 92.016 95.2893C96.1204 92.838 99.0331 88.8266 101.558 84.6885C101.75 84.3735 101.94 84.0578 102.128 83.742C102.314 83.43 102.498 83.1179 102.68 82.8064C102.937 82.3672 103.191 81.9291 103.443 81.4937C103.744 80.9744 104.041 80.4589 104.338 79.9502C106.163 76.8622 107.888 73.7235 109.561 70.5342C111.184 67.4461 112.755 64.2568 113.82 60.9157C114.885 57.7264 115.595 54.3346 115.494 50.9428C115.443 49.1709 115.24 47.4497 114.784 45.7285C114.378 44.2604 113.82 42.7923 112.705 41.6786C110.474 39.4511 106.873 38.8436 103.831 39.0461C100.433 39.2993 97.2896 40.5142 94.2978 42.0836C92.8273 42.8429 91.3567 43.7542 89.9369 44.6148C89.0242 45.1716 89.8355 46.5385 90.7483 46.0322C96.0219 42.8936 102.208 39.2486 108.597 41.1217C109.967 41.5267 111.336 42.1848 112.198 43.3492C113.11 44.5641 113.516 46.1841 113.77 47.6522C114.378 50.8415 114.175 54.2333 113.465 57.4226C111.944 63.9025 108.547 69.8255 105.352 75.546C103.729 78.4822 102.005 81.3677 100.231 84.2027C98.608 86.7845 96.8839 89.3663 94.6527 91.5431C90.4947 95.593 84.2576 97.8711 78.984 94.5806C76.6008 93.1125 74.7246 90.9356 72.9498 88.7588C70.82 86.1264 68.6903 83.4939 66.5099 80.8615C64.4309 78.2797 62.3011 75.7485 60.2728 73.116C58.4473 70.7367 56.7233 68.3068 55.4556 65.5731C52.9202 60.2069 52.616 53.7777 55.557 48.4622C58.2445 43.5517 63.5181 40.2105 69.1467 40.2105C75.6373 40.2105 81.3166 44.0579 86.7423 47.0953C88.2636 47.9559 89.7848 48.7659 91.306 49.5759C91.9145 49.9809 92.4216 49.1203 91.8638 48.7659Z" fill="#181D23"/>
        <path d="M84.5112 51.1959C85.2718 50.8921 85.9818 50.3859 86.6917 49.9303C87.0466 49.6772 87.3509 49.4747 87.7058 49.2215C87.858 49.1203 88.0608 48.9684 88.2129 48.8672C88.4157 48.7153 88.6186 48.6141 88.7707 48.4116C88.9735 48.1078 88.6186 47.7028 88.2636 47.8041C88.0608 47.8547 87.9087 48.0066 87.7058 48.1584C87.5537 48.2597 87.4016 48.4116 87.1987 48.5128C86.8438 48.7659 86.5395 49.019 86.1846 49.2215C85.8296 49.4747 85.5254 49.6772 85.1704 49.9303C84.8155 50.1834 84.4605 50.4365 84.1563 50.7403C84.0548 50.9427 84.2069 51.3477 84.5112 51.1959Z" fill="#181D23"/>
        <path d="M83.3449 49.829C83.8012 49.4747 84.3083 49.1203 84.7647 48.7659C85.0182 48.614 85.2717 48.4622 85.5253 48.3103C85.6774 48.2597 85.7788 48.1584 85.931 48.1078C86.0831 48.0572 86.2351 47.9559 86.3873 47.9053C86.6915 47.7028 86.5394 47.146 86.1337 47.2472C85.8295 47.3484 85.5253 47.5509 85.2717 47.7028C85.0182 47.8547 84.714 48.0066 84.4604 48.2091C83.9027 48.5634 83.3956 48.9684 82.9392 49.424C82.8378 49.5253 82.8378 49.7278 82.9392 49.8796C83.0407 49.9809 83.1927 49.9303 83.3449 49.829Z" fill="#181D23"/>
        <path d="M88.9227 44.8679C91.8638 43.1467 94.6527 41.223 97.7459 39.9067C100.636 38.6918 103.729 38.0337 106.823 38.388C109.764 38.7424 112.654 40.0586 114.429 42.4379C116.457 45.1716 117.015 48.5634 116.863 51.854C116.66 55.2964 115.798 58.7388 114.682 61.9788C113.668 65.0668 112.35 68.003 110.829 70.8886C108.854 74.6698 106.569 78.2653 104.172 81.7805C103.886 82.2009 103.598 82.6202 103.308 83.0385C103.097 83.3433 102.885 83.6477 102.673 83.9515C102.462 84.2536 102.251 84.5553 102.039 84.8565C101.371 85.8059 100.699 86.7516 100.028 87.6957C95.1598 94.5299 90.2412 101.314 85.2718 108.047C84.7647 108.755 85.931 109.413 86.4381 108.755C91.1032 102.427 95.6669 96.0993 100.231 89.7207C104.287 84.0508 108.293 78.2796 111.538 72.1035C114.733 66.0287 117.471 59.2451 117.928 52.3602C118.131 49.019 117.573 45.4754 115.747 42.5898C114.125 40.0586 111.589 38.388 108.699 37.6793C101.346 35.9075 94.095 40.0586 88.5171 44.4123C88.3143 44.6654 88.6185 45.0704 88.9227 44.8679Z" fill="#181D23"/>
        <path d="M74.8767 97.1624C75.5866 97.9217 76.2965 98.6305 76.8036 99.5417C77.4121 100.504 77.9192 101.516 78.4769 102.529C79.0854 103.592 79.6432 104.604 80.2517 105.667C80.8602 106.73 81.4687 107.844 81.2659 109.16C81.1645 109.818 82.1786 110.122 82.3307 109.464C82.5843 108.198 82.0772 107.085 81.4687 106.022C80.8095 104.756 80.0489 103.541 79.339 102.326C78.6798 101.212 78.0713 100.048 77.3614 98.9342C76.8543 98.1242 76.0937 97.0611 75.0288 96.9092C74.8767 96.808 74.7246 97.0105 74.8767 97.1624Z" fill="#181D23"/>
        <path d="M81.6716 109.464C81.773 109.768 81.9251 110.021 82.1786 110.274C82.4322 110.476 82.6857 110.679 83.0406 110.78C83.5984 110.983 84.3083 111.033 84.8661 110.78C85.1197 110.679 85.2718 110.426 85.1704 110.173C85.069 109.92 84.7647 109.818 84.5112 109.97C84.5619 109.97 84.4098 110.021 84.5112 109.97C84.4605 109.97 84.4605 109.97 84.4098 110.021C84.3591 110.021 84.3084 110.071 84.207 110.071C84.1562 110.071 84.1562 110.071 84.1055 110.071C84.0548 110.071 84.0548 110.071 84.1055 110.071C84.0548 110.071 84.0041 110.071 83.9027 110.071C83.852 110.071 83.8013 110.071 83.6999 110.071C83.6492 110.071 83.6491 110.071 83.5984 110.071C83.5477 110.071 83.5477 110.071 83.5984 110.071C83.4463 110.071 83.3449 110.021 83.1928 109.97C83.1421 109.97 83.0914 109.92 82.99 109.92C82.9392 109.92 82.9393 109.92 82.8886 109.869C82.7871 109.818 82.6857 109.768 82.5843 109.666C82.3814 109.515 82.2293 109.413 82.0772 109.211C81.9758 109.008 81.5701 109.261 81.6716 109.464Z" fill="#181D23"/>
        <path d="M85.424 109.869C85.4747 109.818 85.4746 109.768 85.5253 109.717C85.576 109.666 85.576 109.565 85.6267 109.515C85.6774 109.413 85.6775 109.261 85.7282 109.16C85.7789 108.907 85.8295 108.603 85.7788 108.35C85.7788 108.148 85.6268 107.996 85.424 107.996C85.2719 107.996 85.069 108.148 85.069 108.35C85.069 108.603 85.069 108.856 85.069 109.059C85.069 109.16 85.069 109.312 85.069 109.413V109.464C85.069 109.515 85.069 109.515 85.069 109.464C85.069 109.515 85.069 109.515 85.069 109.565C85.069 109.616 85.069 109.666 85.069 109.768C85.0183 109.97 85.3226 110.021 85.424 109.869Z" fill="#181D23"/>
        <path d="M79.8461 98.5292C79.6939 98.2255 79.4404 97.9723 79.1362 97.8711C78.8319 97.7698 78.4263 97.7192 78.122 97.8205C77.8685 97.9217 77.7164 98.1748 77.8685 98.428C78.5784 99.4404 79.339 100.402 80.201 101.314C80.3531 101.465 80.6066 101.465 80.8094 101.314C80.9616 101.162 80.9616 100.909 80.8094 100.706C79.9981 99.896 79.2376 98.9848 78.5784 98.023C78.477 98.2255 78.4263 98.428 78.3249 98.6305C78.3756 98.6305 78.4262 98.5798 78.5276 98.5798H78.5784C78.5784 98.5798 78.6798 98.5798 78.6291 98.5798C78.5784 98.5798 78.6798 98.5798 78.6798 98.5798C78.7305 98.5798 78.7305 98.5798 78.7812 98.5798C78.7812 98.5798 78.8826 98.5798 78.8319 98.5798C78.7812 98.5798 78.8826 98.5798 78.8826 98.5798C79.0855 98.6305 79.2883 98.6811 79.4404 98.8836C79.6432 99.0354 79.9475 98.7823 79.8461 98.5292Z" fill="#181D23"/>
        <path d="M83.9027 99.0861C85.4747 99.6429 87.1987 99.3392 88.6185 98.6305C88.9228 98.4786 89.2777 98.1748 89.6834 98.1242C90.1398 98.0736 89.937 98.428 89.7848 98.6811C89.3285 99.4911 88.8721 100.25 88.3143 100.959C88.0608 101.314 88.6692 101.769 88.9228 101.415C89.582 100.605 90.1905 99.6936 90.5961 98.7823C90.799 98.3773 90.799 97.9724 90.4948 97.618C90.2412 97.3649 89.7848 97.2636 89.4298 97.3142C88.9735 97.4155 88.6186 97.7192 88.2129 97.9217C87.8072 98.1242 87.3508 98.3267 86.8438 98.428C85.8803 98.6811 84.8662 98.6811 83.9027 98.6305C83.7506 98.6305 83.6999 98.9848 83.9027 99.0861Z" fill="#181D23"/>
        <path d="M81.7729 105.465C81.9758 106.376 82.635 107.287 83.6492 107.388C84.5112 107.49 85.5254 106.832 85.424 105.92C85.424 105.515 84.7648 105.515 84.7648 105.92C84.7648 106.173 84.6127 106.427 84.4098 106.578C84.1563 106.73 83.852 106.832 83.5984 106.781C82.8885 106.68 82.4322 105.971 82.1786 105.363C82.1279 105.06 81.6715 105.161 81.7729 105.465Z" fill="#181D23"/>
        <path d="M66.0029 101.465C64.4816 99.7442 61.8955 99.1367 59.6644 99.3898C57.2304 99.6429 55.05 100.807 53.2752 102.377C50.0299 105.262 48.0015 110.122 49.4721 114.374C50.9426 118.576 55.2528 120.601 59.4108 121.006C64.1774 121.512 69.3496 120.146 72.0878 115.944C74.9782 111.489 74.0147 105.363 69.8059 102.073C69.2482 101.617 68.4368 102.377 68.9946 102.883C72.2399 105.566 73.609 110.173 71.8343 114.071C71.0229 115.893 69.6031 117.463 67.879 118.475C65.8507 119.639 63.4675 119.994 61.1349 119.994C57.4839 119.994 53.3259 118.779 51.2976 115.539C49.1678 112.096 50.3341 107.591 52.7681 104.655C54.2893 102.832 56.3683 101.364 58.6502 100.757C61.1349 100.099 63.5689 100.655 65.7493 101.972C65.9521 101.972 66.155 101.668 66.0029 101.465Z" fill="#181D23"/>
        <path d="M65.1916 105.11C64.2281 102.326 60.6786 102.68 58.5996 103.794C56.1149 105.11 53.7823 107.439 53.6301 110.375C53.5287 113.21 55.7092 115.033 58.1432 115.944C59.4616 116.399 60.9828 116.804 62.4026 116.399C63.7211 115.994 64.7859 114.982 65.5465 113.868C67.372 111.337 67.727 107.439 65.1409 105.262C64.6338 104.857 63.9239 105.515 64.431 105.971C66.2057 107.642 66.3579 110.223 65.2423 112.299C64.6845 113.362 63.9239 114.374 62.859 114.982C61.7435 115.64 60.4757 115.488 59.2587 115.184C57.3318 114.628 55.1514 113.514 54.7458 111.337C54.2387 108.907 55.9627 106.73 57.8389 105.414C59.9687 103.895 62.859 103.136 64.938 105.262C65.0395 105.313 65.1916 105.212 65.1916 105.11Z" fill="#181D23"/>
        <path d="M52.8189 106.629C53.7316 106.376 54.6443 106.173 55.5571 105.87C55.9627 105.768 55.7599 105.161 55.4049 105.262C54.4922 105.566 53.6302 105.87 52.7175 106.173C52.4132 106.275 52.5146 106.73 52.8189 106.629Z" fill="#181D23"/>
        <path d="M51.7033 108.654C52.7681 108.451 53.833 108.148 54.7964 107.692C54.9992 107.591 54.8471 107.287 54.5936 107.388C53.6301 107.844 52.6667 108.148 51.6018 108.35C51.399 108.401 51.5004 108.705 51.7033 108.654Z" fill="#181D23"/>
        <path d="M51.2469 110.578C51.9568 110.426 52.616 110.274 53.3259 110.122C53.6301 110.071 53.478 109.565 53.2245 109.666C52.5146 109.818 51.8553 110.021 51.1454 110.173C50.8412 110.274 50.9933 110.628 51.2469 110.578Z" fill="#181D23"/>
        <path d="M50.7905 112.653C51.4497 112.198 52.2104 111.843 52.971 111.54C53.2245 111.438 53.1231 111.033 52.8695 111.135C52.0582 111.388 51.2976 111.793 50.5877 112.248C50.3341 112.451 50.5877 112.805 50.7905 112.653Z" fill="#181D23"/>
        <path d="M51.5511 113.767C52.3117 113.615 53.0216 113.311 53.6808 112.957C53.8836 112.856 53.6808 112.501 53.478 112.653C52.8188 113.008 52.1596 113.261 51.4497 113.463C51.2469 113.463 51.2976 113.818 51.5511 113.767Z" fill="#181D23"/>
        <path d="M52.8189 115.286C53.7823 114.931 54.7457 114.577 55.7091 114.172C55.8612 114.121 55.912 114.02 55.912 113.868C55.8613 113.767 55.7091 113.666 55.6077 113.666C54.6443 114.02 53.6809 114.425 52.7175 114.779C52.6161 114.83 52.5146 114.931 52.5653 115.083C52.5653 115.235 52.7174 115.336 52.8189 115.286Z" fill="#181D23"/>
        <path d="M54.8471 115.994C55.5063 115.488 56.267 115.134 57.0783 115.083C57.3319 115.083 57.3319 114.628 57.0783 114.678C56.1656 114.779 55.2528 115.134 54.5429 115.741C54.4415 115.792 54.4922 115.944 54.5429 116.045C54.6443 116.045 54.7457 116.045 54.8471 115.994Z" fill="#181D23"/>
        <path d="M56.0642 117.108C57.3319 116.653 58.5995 116.197 59.8165 115.691C60.1715 115.539 59.9179 114.881 59.5122 115.033C58.2445 115.438 57.0783 115.994 55.8614 116.501C55.7092 116.551 55.6078 116.703 55.6585 116.906C55.7092 117.058 55.9121 117.159 56.0642 117.108Z" fill="#181D23"/>
        <path d="M57.6361 117.665C58.4981 117.311 59.3601 116.956 60.2221 116.602C60.3743 116.551 60.4757 116.399 60.425 116.197C60.3743 115.994 60.1714 115.994 60.0193 116.045C59.1573 116.399 58.346 116.804 57.484 117.209C57.1797 117.311 57.3826 117.766 57.6361 117.665Z" fill="#181D23"/>
        <path d="M59.1066 118.475C59.8165 117.817 60.5772 117.311 61.4392 116.804C61.5913 116.703 61.642 116.501 61.5406 116.298C61.4392 116.146 61.2364 116.096 61.0335 116.197C60.5771 116.45 60.1715 116.703 59.7658 117.007C59.3601 117.311 58.9545 117.665 58.5488 117.969C58.3967 118.121 58.3967 118.374 58.5488 118.475C58.701 118.627 58.9545 118.627 59.1066 118.475Z" fill="#181D23"/>
        <path d="M61.2363 106.629C62.4533 106.629 62.859 107.793 63.1126 108.806C63.4168 109.92 63.4675 111.084 63.3153 112.248C63.2139 112.805 64.0252 112.906 64.0759 112.35C64.2788 110.932 64.1267 109.515 63.6703 108.148C63.4675 107.591 63.2139 106.983 62.7069 106.578C62.3012 106.224 61.642 106.022 61.1349 106.325C60.9828 106.376 61.0842 106.629 61.2363 106.629Z" fill="#181D23"/>
        <path d="M76.0937 54.4358C76.6008 54.4358 77.1079 54.3346 77.6149 54.2333C78.122 54.1321 78.5784 54.0308 79.0855 53.9296C79.2883 53.8789 79.4404 53.6258 79.3897 53.4233C79.339 53.1702 79.0855 53.069 78.8826 53.1196C78.3756 53.2208 77.9192 53.3221 77.4121 53.4739C76.905 53.6258 76.4487 53.7271 75.9923 53.9296C75.688 54.0308 75.8402 54.4358 76.0937 54.4358Z" fill="#181D23"/>
        <path d="M75.2824 56.2076C75.7388 56.157 76.1951 56.0051 76.6515 55.9039C77.1079 55.8026 77.5135 55.7014 77.9699 55.5495C78.1727 55.4989 78.2741 55.2964 78.2234 55.0939C78.1727 54.8914 77.9699 54.7902 77.7671 54.8408C77.3107 54.942 76.905 55.0433 76.4487 55.1952C75.9923 55.2964 75.5359 55.3976 75.1303 55.6001C74.826 55.752 74.9782 56.2583 75.2824 56.2076Z" fill="#181D23"/>
        <path d="M74.7246 57.6757C75.1303 57.777 75.536 57.777 75.9416 57.7263C76.3473 57.6757 76.7023 57.5238 77.0573 57.372C77.2601 57.2707 77.3108 57.0176 77.2094 56.8657C77.1079 56.6632 76.9051 56.6632 76.7023 56.7139C76.6516 56.7139 76.6009 56.7645 76.5502 56.7645C76.4488 56.8151 76.6008 56.7645 76.4994 56.7645C76.398 56.8151 76.3473 56.8151 76.2459 56.8657C76.0938 56.9164 75.9416 56.967 75.7388 57.0176C75.6881 57.0176 75.6881 57.0176 75.6374 57.0176H75.5867C75.6374 57.0176 75.6374 57.0176 75.5867 57.0176C75.4853 57.0176 75.4346 57.0176 75.3332 57.0176C75.181 57.0176 74.9782 57.0176 74.8261 57.0176C74.4711 57.0682 74.3697 57.5745 74.7246 57.6757Z" fill="#181D23"/>
        <path d="M91.8132 51.9046C92.6752 51.7527 93.5372 51.4996 94.3485 51.2465C94.7541 51.0946 94.602 50.4871 94.1963 50.5884C93.3343 50.7909 92.523 51.044 91.661 51.3984C91.3568 51.5502 91.4582 52.0058 91.8132 51.9046Z" fill="#181D23"/>
        <path d="M93.3851 53.3221C93.7908 53.2714 94.1964 53.1702 94.6021 53.0183C95.0078 52.9171 95.4134 52.8158 95.8191 52.664C96.0219 52.6133 96.1233 52.4108 96.0726 52.259C96.0219 52.0565 95.8191 51.9552 95.6669 52.0058C95.2613 52.1071 94.8556 52.2083 94.45 52.3602C94.0443 52.4615 93.6386 52.6133 93.233 52.7652C93.0808 52.8158 93.0809 53.0183 93.1316 53.1196C93.1316 53.3221 93.233 53.3727 93.3851 53.3221Z" fill="#181D23"/>
        <path d="M94.4499 54.4358C94.8556 54.3852 95.2613 54.2333 95.6669 54.132C96.0726 53.9802 96.4783 53.8789 96.8839 53.7271C97.0361 53.6764 97.0868 53.5246 97.0868 53.4233C97.0361 53.2714 96.8839 53.1702 96.7825 53.2208C96.3768 53.3727 95.9712 53.5246 95.5655 53.6764C95.1599 53.8283 94.7542 53.9802 94.3992 54.1827C94.1964 54.2839 94.2978 54.4864 94.4499 54.4358Z" fill="#181D23"/>
        <path d="M96.6304 55.6001C97.0361 55.4483 97.391 55.2458 97.7966 55.0939C98.2023 54.942 98.5573 54.7395 98.9122 54.537C99.0643 54.4864 99.0643 54.2839 99.0136 54.1827C98.9122 54.0308 98.7601 54.0308 98.6587 54.0814C98.3037 54.2333 97.898 54.4358 97.5431 54.6383C97.1881 54.8408 96.8332 55.0433 96.4276 55.2458C96.3261 55.2964 96.2755 55.4483 96.3262 55.5495C96.3769 55.6508 96.529 55.6508 96.6304 55.6001Z" fill="#181D23"/>
        <path d="M98.3544 56.4101C99.0136 56.2076 99.6221 56.0051 100.281 55.8026C100.484 55.752 100.585 55.5495 100.535 55.347C100.484 55.1445 100.281 55.0433 100.078 55.0939C99.4192 55.2964 98.8108 55.5495 98.1516 55.752C97.9995 55.8026 97.8474 55.9545 97.8981 56.157C97.9995 56.3595 98.2023 56.4607 98.3544 56.4101Z" fill="#181D23"/>
        <path d="M99.5714 57.5239C100.231 57.5239 100.941 57.2201 101.498 56.8657C101.65 56.7645 101.701 56.562 101.6 56.4101C101.498 56.2583 101.295 56.157 101.143 56.3089C100.991 56.4101 100.89 56.5114 100.738 56.562C100.687 56.6126 100.636 56.6126 100.535 56.6632C100.484 56.6632 100.484 56.7139 100.433 56.7139C100.383 56.7139 100.383 56.7139 100.433 56.7139H100.383C100.079 56.8151 99.7742 56.9164 99.47 56.967C99.3179 57.0176 99.2672 57.1695 99.2672 57.2707C99.2672 57.372 99.4193 57.5239 99.5714 57.5239Z" fill="#181D23"/>
        <path d="M100.991 58.7894C101.397 58.587 101.853 58.3845 102.259 58.1313C102.411 58.0301 102.512 57.777 102.411 57.6251C102.31 57.4226 102.107 57.4226 101.904 57.4732C101.498 57.6757 101.042 57.8782 100.636 58.1313C100.484 58.2326 100.383 58.4857 100.484 58.6376C100.586 58.8401 100.839 58.8907 100.991 58.7894Z" fill="#181D23"/>
        <path d="M48.2044 106.022C49.1679 105.617 50.182 105.262 51.2469 105.009C51.5004 104.958 51.3989 104.553 51.1454 104.604C50.0806 104.908 49.0664 105.313 48.103 105.87C48.0016 105.92 48.103 106.072 48.2044 106.022Z" fill="#181D23"/>
        <path d="M46.8861 108.603C47.6467 108.3 48.4072 107.996 49.1171 107.692C49.3199 107.591 49.2185 107.287 49.0157 107.388C48.2551 107.692 47.5452 108.047 46.7846 108.35C46.6325 108.401 46.7339 108.654 46.8861 108.603Z" fill="#181D23"/>
        <path d="M45.7705 111.033C46.6832 110.73 47.596 110.375 48.5088 110.071C48.7116 110.021 48.6102 109.666 48.4074 109.768C47.4946 110.122 46.5818 110.426 45.7198 110.78C45.517 110.831 45.6184 111.135 45.7705 111.033Z" fill="#181D23"/>
        <path d="M46.4803 112.957C47.241 112.4 48.103 111.995 48.965 111.691C49.2185 111.59 49.1171 111.236 48.8635 111.337C47.9508 111.641 47.0381 112.096 46.2775 112.653C46.0747 112.755 46.2775 113.109 46.4803 112.957Z" fill="#181D23"/>
        <path d="M47.2916 115.033C48.0522 114.678 48.7621 114.273 49.5228 113.919C49.7256 113.818 49.5227 113.565 49.3706 113.666C48.61 114.02 47.9001 114.425 47.1395 114.779C46.886 114.83 47.0888 115.134 47.2916 115.033Z" fill="#181D23"/>
        <path d="M48.0016 116.804C48.6101 116.501 49.1678 116.197 49.7763 115.843C49.827 115.792 49.7763 115.691 49.7256 115.741C49.1172 116.045 48.5594 116.349 47.9509 116.703C47.8495 116.754 47.9509 116.855 48.0016 116.804Z" fill="#181D23"/>
        <path d="M48.0523 118.526C49.1678 117.868 50.3341 117.361 51.5511 116.956C51.8046 116.855 51.7032 116.501 51.4497 116.551C50.182 116.906 49.0157 117.463 47.9002 118.171C47.6466 118.323 47.8494 118.678 48.0523 118.526Z" fill="#181D23"/>
        <path d="M49.4722 119.538C50.4356 119.184 51.399 118.829 52.3625 118.424C52.4639 118.374 52.5653 118.273 52.5146 118.121C52.4639 118.019 52.3625 117.918 52.2104 117.969C51.247 118.374 50.2835 118.728 49.32 119.133C49.1172 119.234 49.2694 119.639 49.4722 119.538Z" fill="#181D23"/>
        <path d="M50.4864 121.411C51.5512 120.905 52.6161 120.399 53.6809 119.842C53.9852 119.69 53.7317 119.285 53.4274 119.437C52.3625 119.994 51.2977 120.5 50.2328 121.057C50.03 121.158 50.2328 121.512 50.4864 121.411Z" fill="#181D23"/>
        <path d="M54.3401 121.968C55.1514 121.361 56.0134 120.956 57.0276 120.753C57.1797 120.702 57.2811 120.551 57.2304 120.399C57.1797 120.247 57.0276 120.146 56.8754 120.196C55.8613 120.399 54.8979 120.905 54.0358 121.563C53.7823 121.715 54.0865 122.12 54.3401 121.968Z" fill="#181D23"/>
        <path d="M55.7599 122.778C56.9769 122.12 58.1938 121.462 59.4615 120.905C59.6136 120.854 59.6136 120.652 59.5629 120.5C59.4615 120.348 59.3094 120.348 59.1572 120.399C57.8896 121.006 56.6726 121.614 55.5063 122.322C55.2021 122.474 55.4556 122.93 55.7599 122.778Z" fill="#181D23"/>
        <path d="M59.4616 122.93C60.9828 122.221 62.4534 121.512 63.9746 120.753C64.431 120.551 64.0253 119.842 63.5689 120.095C62.0984 120.854 60.6279 121.614 59.1066 122.373C58.7517 122.576 59.1066 123.082 59.4616 122.93Z" fill="#181D23"/>
        <path fill-rule="evenodd" clip-rule="evenodd" d="M81.9251 110.021C81.1138 115.134 80.556 120.601 82.28 125.664C82.9899 127.79 84.207 129.764 86.2353 130.878C88.2636 131.992 90.7483 132.346 93.0808 132.346C102.918 132.295 111.234 125.005 115.24 116.399C116.254 114.172 117.015 111.793 117.319 109.363C117.674 106.68 117.37 103.997 116.913 101.314C116.102 96.7067 114.987 91.9481 112.248 88.1007C110.211 85.2452 107.386 83.1152 104.172 81.7805C103.886 82.2009 103.598 82.6202 103.308 83.0385C105.279 83.8046 107.123 84.8824 108.699 86.2782C111.995 89.2144 113.668 93.3656 114.733 97.5674C115.899 102.275 116.812 107.186 115.595 111.945C114.479 116.349 111.944 120.5 108.851 123.841C105.758 127.182 101.803 129.714 97.3403 130.827C95.0584 131.384 92.6244 131.536 90.2919 131.182C88.0607 130.827 85.8296 130.017 84.4605 128.094C83.1421 126.17 82.5843 123.74 82.28 121.462C81.9758 118.981 82.0772 116.501 82.2293 114.02C82.3307 112.755 82.3815 111.489 82.4322 110.223C82.5843 109.717 81.9758 109.616 81.9251 110.021ZM102.68 82.8064C102.937 82.3672 103.191 81.9291 103.443 81.4937C102.726 81.2274 101.992 80.9995 101.245 80.8108C96.4275 79.5959 91.4074 80.0009 86.6409 81.3677C82.0265 82.6839 77.5135 84.8101 73.5583 87.4932C72.859 87.972 72.1714 88.4763 71.5038 89.0077C71.821 89.3997 72.1406 89.7904 72.4646 90.1776C75.6713 87.62 79.4722 85.6886 83.0913 84.2533C87.5536 82.4814 92.3709 81.3171 97.1881 81.6715C99.0416 81.8068 100.905 82.1837 102.68 82.8064ZM64.8873 96.9599C66.2031 94.1906 68.1923 91.8446 70.4876 89.852L71.4385 91.0361C68.565 93.5608 66.287 96.6472 65.2422 100.402C64.9887 101.364 63.5182 100.959 63.7717 99.9973C64.0252 98.9342 64.4309 97.9217 64.8873 96.9599Z" fill="#181D23"/>
        <path fill-rule="evenodd" clip-rule="evenodd" d="M66.6113 101.668C68.2931 98.4581 70.3609 95.4891 73.05 93.0429L72.2935 92.1008C70.2227 94.0023 68.4453 96.1907 67.1184 98.6811C66.662 99.5417 66.3071 100.402 66.0029 101.314C65.8507 101.769 66.4085 102.022 66.6113 101.668ZM82.8378 86.7845C79.7009 88.1915 76.7679 89.924 74.1483 92.0915C73.8719 91.7958 73.6003 91.4951 73.3325 91.1907C77.0147 88.1121 81.4729 85.8582 85.931 84.3545C90.3933 82.8358 95.2612 82.0765 99.9263 83.0889C100.67 83.2603 101.407 83.4782 102.128 83.742C101.94 84.0578 101.75 84.3735 101.558 84.6885C95.5651 82.702 88.5186 84.2936 82.8378 86.7845ZM102.039 84.8565C103.785 85.4981 105.433 86.4555 106.924 87.797C110.068 90.6319 111.285 94.783 112.198 98.7823C113.161 103.085 113.82 107.439 112.857 111.793C111.995 115.792 110.169 119.437 107.279 122.373C104.591 125.157 101.093 127.132 97.2895 127.992C93.6893 128.802 88.9227 128.853 86.6409 125.461C84.5311 122.326 84.6527 118.006 84.7546 114.382L84.7647 114.02C84.8154 112.805 84.8662 111.59 84.9676 110.375C85.069 109.464 83.6491 109.464 83.5477 110.375C83.3449 112.957 83.2435 115.589 83.3449 118.171C83.3956 120.095 83.5984 122.069 84.2576 123.892C84.9168 125.714 86.0324 127.385 87.7058 128.397C89.4806 129.511 91.6609 129.865 93.74 129.815C97.898 129.714 102.005 128.195 105.352 125.714C108.749 123.183 111.234 119.791 112.755 115.843C114.429 111.641 114.733 107.085 114.023 102.63C113.668 100.301 113.161 97.9723 112.502 95.7449C111.893 93.6187 111.133 91.5431 109.916 89.67C108.172 87.0392 105.569 85.1179 102.673 83.9515C102.462 84.2536 102.251 84.5553 102.039 84.8565Z" fill="#181D23"/>
        <path d="M58.2203 99.9149C60.514 98.9079 63.9778 100.335 65.4231 101.174C68.7797 101.174 71.6468 104.39 73.0454 108.237C74.444 112.083 71.6468 115.719 69.4091 118.027C67.1713 120.335 63.8147 120.684 60.1084 120.544C56.4021 120.404 53.1154 118.516 51.437 116.768C49.7587 115.02 49.1294 111.803 50.458 107.328C51.7867 102.852 55.3531 101.174 58.2203 99.9149Z" fill="#181D23"/>
        <path d="M70.3182 90.894C67.5769 93.5233 65.1201 98.4697 64.2343 100.614L66.472 101.943C67.0082 100.941 68.2483 98.5023 68.9196 96.7681C69.5909 95.0338 72.7891 92.1294 74.3042 90.894C76.6818 89.5653 82.2902 86.5163 85.7028 84.9499C89.9685 82.9919 95.493 82.6422 100.528 83.7611C105.563 84.88 107.941 87.887 108.5 88.3065C109.059 88.7261 113.815 95.7891 114.024 105.719C114.234 115.649 110.178 120.754 105.143 125.09C100.108 129.425 95.2133 128.936 90.528 128.726C85.8427 128.516 84.7238 123.551 83.8147 120.754C83.0874 118.516 83.5117 112.922 83.8147 110.404L82.6958 109.985C82.2529 111.383 81.3811 114.558 81.4371 116.069C81.507 117.957 81.507 121.314 82.6958 125.579C83.8846 129.845 86.6818 131.383 91.9266 131.733C97.1713 132.083 100.948 131.104 107.451 126.069C113.955 121.034 117.101 112.432 116.752 103.132C116.402 93.831 111.227 88.0968 109.199 86.1387C107.171 84.1807 103.465 82.4324 101.787 81.6632C100.108 80.894 93.8846 80.6842 88.0105 81.6632C82.1364 82.6422 73.7448 87.6072 70.3182 90.894Z" fill="#181D23"/>
        <path d="M92.2762 51.3835C91.2133 49.6492 92.7191 48.6096 93.6049 48.3065C95.6329 47.2576 98.9196 49.845 101.787 51.9429C104.654 54.0408 104.584 55.859 103.465 57.7471C102.346 59.6352 100.528 58.5863 98.9196 57.7471C97.3112 56.9079 93.6049 53.5513 92.2762 51.3835Z" fill="#181D23"/>
        <path d="M79.6189 50.9639C82.2762 49.0059 82.2762 48.9359 83.8147 49.9849C85.8427 51.2436 83.8147 53.6912 82.6958 54.7401C81.5769 55.7891 78.0105 57.7471 75.7727 58.6562C73.535 59.5653 74.3042 57.7471 74.3042 55.3695C74.3042 52.9919 76.9616 52.9219 79.6189 50.9639Z" fill="#181D23"/>
        <path d="M54.7937 108.167C55.2832 105.439 60.1783 102.642 63.1853 103.621C65.2133 104.111 67.3112 107.677 65.9825 112.083C64.6538 116.488 61.1574 116.069 57.6609 114.88C54.1644 113.691 54.3042 110.894 54.7937 108.167Z" fill="#181D23"/>
        <path fill-rule="evenodd" clip-rule="evenodd" d="M64.0245 37.3975C68.6119 34.9919 76.1457 37.8403 79.3392 39.5653L88.0643 44.8612C89.4683 43.8884 92.7238 41.7891 94.514 41.1737C95.2534 40.9195 95.9699 40.5508 96.7619 40.1433C98.3668 39.3174 100.282 38.3321 103.325 37.817C107.349 37.136 108.907 37.9897 112.026 39.6986C112.43 39.92 112.86 40.1558 113.325 40.4045C117.381 42.5723 117.661 46.7681 117.381 53.6212C117.157 59.1038 111.88 70.3578 109.269 75.2996C101.973 85.7424 87.2972 106.684 86.9615 106.908C86.8184 107.003 86.594 107.408 86.3105 107.919C85.7625 108.906 84.9938 110.292 84.1643 110.614C83.1573 111.006 82.2063 110.031 81.8566 109.495V107.397C81.8566 107.022 81.4532 106.364 80.9497 105.543C80.5157 104.835 80.0073 104.006 79.6189 103.132C78.9475 101.621 75.9825 97.6539 74.5839 95.859C73.43 94.3748 72.0867 92.6374 70.64 90.7542C62.9979 80.8061 52.4694 66.7882 51.7168 64.5303C50.5979 61.1737 49.2693 54.9499 51.7168 49.0758C54.1644 43.2017 58.2902 40.4045 64.0245 37.3975ZM89.9806 46.0243L93.3951 48.0968L92.0664 49.6352L88.9895 48.0968L84.6538 51.1038L83.3951 49.6352L87.0315 46.0243C84.3508 44.9202 78.3182 42.3345 75.6329 40.824C72.3206 38.9609 68.9402 39.5491 64.2151 40.3713L64.0245 40.4045C59.1994 41.2436 54.6538 47.6073 53.3252 53.2716C51.9965 58.9359 54.0944 64.5303 55.7028 68.0968C56.9895 70.9499 67.4743 83.5047 72.5559 89.4254C74.5373 92.2693 79.7308 97.7471 84.6538 96.9079C90.8077 95.859 96.9615 91.873 98.0804 89.4254C98.9755 87.4674 101.297 83.4348 102.346 81.6632L104.304 78.866C107.311 72.479 113.619 58.3345 114.794 52.852C116.016 47.149 114.187 45.1264 112.37 43.1171C112.003 42.7119 111.638 42.3072 111.297 41.873C109.269 39.2856 104.724 39.5653 100.948 40.4045C97.9266 41.0758 92.3775 44.4307 89.9806 46.0243Z" fill="#181D23"/>
    </g>
    <path d="M60.4581 98.7961C62.7518 97.7891 66.2157 99.2156 67.6609 100.055C71.0175 100.055 73.8847 103.272 75.2833 107.118C76.6819 110.964 73.8847 114.6 71.6469 116.908C69.4091 119.216 66.0525 119.565 62.3462 119.425C58.6399 119.286 55.3532 117.397 53.6749 115.649C51.9965 113.901 51.3672 110.684 52.6958 106.209C54.0245 101.733 57.5909 100.055 60.4581 98.7961Z" fill="#EFFAFE"/>
    <path d="M60.458 98.7961C62.7517 97.7891 66.2155 99.2156 67.6608 100.055C71.0174 100.055 73.8845 103.272 75.2831 107.118C76.6817 110.964 73.8845 114.6 71.6468 116.908C69.409 119.216 66.0524 119.565 62.3461 119.425C58.6398 119.286 55.3531 117.397 53.6747 115.649C51.9964 113.901 51.367 110.684 52.6957 106.209C54.0244 101.733 57.5908 100.055 60.458 98.7961Z" fill="#EFFAFE"/>
    <path opacity="0.2" d="M59.2208 103.361C60.7362 102.695 63.0247 103.638 63.9796 104.192C66.1973 104.192 68.0916 106.317 69.0156 108.859C69.9397 111.4 68.0916 113.802 66.6131 115.327C65.1346 116.852 62.9169 117.083 60.4682 116.99C58.0195 116.898 55.848 115.65 54.7391 114.495C53.6303 113.34 53.2145 111.215 54.0923 108.258C54.9701 105.301 57.3265 104.192 59.2208 103.361Z" fill="#181D23"/>
    <path d="M72.556 89.7751C69.8147 92.4045 67.3578 97.3508 66.472 99.4954L68.7098 100.824C69.2459 99.8217 70.486 97.3835 71.1574 95.6492C71.8287 93.9149 75.0268 91.0105 76.542 89.7751C78.9196 88.4464 84.528 85.3975 87.9406 83.831C92.2063 81.873 97.7308 81.5233 102.766 82.6422C107.801 83.7611 110.178 86.7681 110.738 87.1877C111.297 87.6073 116.052 94.6702 116.262 104.6C116.472 114.53 112.416 119.635 107.381 123.971C102.346 128.307 97.4511 127.817 92.7657 127.607C88.0804 127.397 86.9615 122.432 86.0525 119.635C85.3252 117.397 85.7494 111.803 86.0525 109.286L84.9336 108.866C84.4907 110.265 83.6189 113.439 83.6748 114.95C83.7448 116.838 83.7448 120.195 84.9336 124.46C86.1224 128.726 88.9196 130.265 94.1643 130.614C99.4091 130.964 103.185 129.985 109.689 124.95C116.192 119.915 119.339 111.314 118.99 102.013C118.64 92.7121 113.465 86.9779 111.437 85.0198C109.409 83.0618 105.703 81.3136 104.024 80.5443C102.346 79.7751 96.1224 79.5653 90.2483 80.5443C84.3741 81.5233 75.9825 86.4884 72.556 89.7751Z" fill="#555A60"/>
    <path d="M94.514 50.2646C93.4511 48.5303 94.9569 47.4907 95.8427 47.1877C97.8706 46.1387 101.157 48.7261 104.024 50.824C106.892 52.9219 106.822 54.7401 105.703 56.6282C104.584 58.5163 102.766 57.4674 101.157 56.6282C99.549 55.7891 95.8427 52.4324 94.514 50.2646Z" fill="#555A60"/>
    <path d="M81.8567 49.845C84.514 47.887 84.514 47.8171 86.0525 48.866C88.0804 50.1247 86.0525 52.5723 84.9336 53.6213C83.8147 54.6702 80.2483 56.6282 78.0105 57.5373C75.7727 58.4464 76.542 56.6282 76.542 54.2506C76.542 51.873 79.1993 51.8031 81.8567 49.845Z" fill="#555A60"/>
    <path d="M57.0315 107.048C57.521 104.321 62.4161 101.523 65.4231 102.502C67.4511 102.992 69.5489 106.558 68.2203 110.964C66.8916 115.369 63.3951 114.95 59.8986 113.761C56.4021 112.572 56.542 109.775 57.0315 107.048Z" fill="#555A60"/>
    <g opacity="0.2">
        <path d="M72.556 89.7751C69.8147 92.4045 67.3578 97.3508 66.472 99.4954L68.7098 100.824C69.2459 99.8217 70.486 97.3835 71.1574 95.6492C71.8287 93.9149 75.0268 91.0105 76.542 89.7751C78.9196 88.4464 84.528 85.3975 87.9406 83.831C92.2063 81.873 97.7308 81.5233 102.766 82.6422C107.801 83.7611 110.178 86.7681 110.738 87.1877C111.297 87.6073 116.052 94.6702 116.262 104.6C116.472 114.53 112.416 119.635 107.381 123.971C102.346 128.307 97.4511 127.817 92.7657 127.607C88.0804 127.397 86.9615 122.432 86.0525 119.635C85.3252 117.397 85.7494 111.803 86.0525 109.286L84.9336 108.866C84.4907 110.265 83.6189 113.439 83.6748 114.95C83.7448 116.838 83.7448 120.195 84.9336 124.46C86.1224 128.726 88.9196 130.265 94.1643 130.614C99.4091 130.964 103.185 129.985 109.689 124.95C116.192 119.915 119.339 111.314 118.99 102.013C118.64 92.7121 113.465 86.9779 111.437 85.0198C109.409 83.0618 105.703 81.3136 104.024 80.5443C102.346 79.7751 96.1224 79.5653 90.2483 80.5443C84.3741 81.5233 75.9825 86.4884 72.556 89.7751Z" fill="#181D23"/>
        <path d="M57.0315 107.048C57.521 104.321 62.4161 101.523 65.4231 102.502C67.4511 102.992 69.5489 106.558 68.2203 110.964C66.8916 115.369 63.3951 114.95 59.8986 113.761C56.4021 112.572 56.542 109.775 57.0315 107.048Z" fill="#181D23"/>
        <path fill-rule="evenodd" clip-rule="evenodd" d="M81.8567 49.845C80.9455 50.5164 80.0343 50.9658 79.2302 51.3624C77.6894 52.1224 76.542 52.6883 76.542 54.2506C76.542 54.7856 76.503 55.2923 76.4681 55.746C76.348 57.3084 76.2763 58.2419 78.0105 57.5373C78.8833 57.1828 79.9581 56.6686 81.0111 56.1111C79.4955 54.0751 80.9433 51.0854 81.8567 49.845Z" fill="#181D23"/>
        <path fill-rule="evenodd" clip-rule="evenodd" d="M95.8427 47.1877C94.9569 47.4907 93.4511 48.5303 94.514 50.2646C95.8427 52.4324 99.549 55.7891 101.157 56.6282C101.217 56.6596 101.278 56.6913 101.339 56.7231C102.901 57.5417 104.626 58.4458 105.703 56.6282C105.849 56.3823 105.977 56.1375 106.083 55.8931L95.8427 47.1877Z" fill="#181D23"/>
    </g>
    <path fill-rule="evenodd" clip-rule="evenodd" d="M66.2622 36.2786C70.8496 33.873 78.3834 36.7215 81.5769 38.4465L90.302 43.7423C91.706 42.7696 94.9615 40.6702 96.7517 40.0549C97.4911 39.8007 98.2076 39.432 98.9995 39.0245C100.604 38.1986 102.519 37.2133 105.563 36.6982C109.587 36.0172 111.145 36.8708 114.263 38.5797C114.667 38.8012 115.098 39.037 115.563 39.2856C119.619 41.4535 119.899 45.6493 119.619 52.5024C119.395 57.9849 114.118 69.239 111.507 74.1807C104.211 84.6236 89.5349 105.565 89.1992 105.789C89.0561 105.885 88.8317 106.289 88.5482 106.8C88.0002 107.787 87.2315 109.173 86.402 109.495C85.395 109.887 84.444 108.913 84.0943 108.377V106.279C84.0943 105.903 83.6909 105.245 83.1873 104.424C82.7534 103.716 82.245 102.887 81.8566 102.013C81.1852 100.502 78.2202 96.535 76.8216 94.7402C75.6677 93.256 74.3244 91.5186 72.8777 89.6353C65.2356 79.6873 54.7071 65.6694 53.9545 63.4115C52.8356 60.0548 51.507 53.8311 53.9545 47.9569C56.4021 42.0828 60.5279 39.2856 66.2622 36.2786ZM92.2183 44.9054L95.6328 46.9779L94.3041 48.5164L91.2272 46.9779L86.8915 49.9849L85.6328 48.5164L89.2691 44.9054C86.5885 43.8014 80.5559 41.2157 77.8705 39.7052C74.5583 37.8421 71.1779 38.4303 66.4528 39.2525L66.2622 39.2856C61.4371 40.1248 56.8915 46.4884 55.5629 52.1528C54.2342 57.8171 56.3321 63.4115 57.9405 66.9779C59.2272 69.8311 69.712 82.3859 74.7936 88.3066C76.775 91.1504 81.9684 96.6283 86.8915 95.7891C93.0454 94.7402 99.1992 90.7542 100.318 88.3066C101.213 86.3486 103.535 82.3159 104.584 80.5444L106.542 77.7472C109.549 71.3602 115.857 57.2157 117.031 51.7332C118.253 46.0301 116.425 44.0076 114.608 41.9983C114.241 41.593 113.875 41.1884 113.535 40.7542C111.507 38.1667 106.961 38.4465 103.185 39.2856C100.164 39.9569 94.6152 43.3119 92.2183 44.9054Z" fill="#7FA2F6"/>
    <path opacity="0.2" fill-rule="evenodd" clip-rule="evenodd" d="M92.4638 97.5746C93.4358 96.4303 94.1301 95.6129 91.9964 96.3486C90.5661 96.8417 90.0813 97.3228 89.7395 97.662C89.2572 98.1407 89.0592 98.3372 86.8915 97.887C85.2793 97.5522 83.9494 96.5501 82.9132 95.7692C81.5686 94.756 80.7186 94.1155 80.388 95.7891C79.9198 98.1599 83.4563 103.444 85.2831 105.789C86.5186 106.022 89.381 105.146 90.9475 99.7751C91.1607 99.1086 91.865 98.2796 92.4638 97.5746Z" fill="#181D23"/>
    <path d="M98.4118 47.4445C98.1075 46.4827 96.9413 46.2296 96.0285 46.5333C94.9637 46.8877 94.0509 47.8495 93.8481 49.0139C93.6452 50.2795 94.3044 51.4438 95.1665 52.3551C96.1299 53.3675 97.2962 54.2788 98.4118 55.1394C100.339 56.6581 103.026 58.8349 105.612 57.6199C106.576 57.1643 107.387 56.2531 107.438 55.19C107.539 53.975 106.627 52.9625 105.917 52.1019C103.939 49.8239 101.758 47.5458 99.0203 46.1789C98.2089 45.7739 97.4991 46.9889 98.3104 47.3939C100.136 48.3051 101.657 49.5707 103.077 51.0388C103.787 51.7476 104.446 52.4563 105.105 53.2157C105.663 53.8231 106.525 54.6331 106.069 55.595C105.714 56.3543 104.801 56.81 104.04 56.81C102.975 56.81 102.012 56.2531 101.15 55.6962C99.3752 54.5319 97.5498 53.1144 96.0792 51.5451C95.3186 50.7351 94.6594 49.4695 95.4707 48.5076C95.9271 47.9002 97.0933 47.2927 97.7526 47.9508C98.0061 48.1533 98.5132 47.8495 98.4118 47.4445Z" fill="#181D23"/>
    <path d="M85.7855 53.5194C85.8362 53.165 86.1912 53.0132 86.4448 52.8107C86.6983 52.6082 86.9518 52.4057 87.1039 52.1019C87.4589 51.5451 87.611 50.9376 87.5096 50.2795C87.3068 48.9126 86.0898 47.9508 84.7207 47.9508C83.1487 48.0014 81.9317 48.9633 80.7654 49.8745C79.5991 50.7857 78.3821 51.5957 77.4187 52.76C76.9116 53.3675 76.506 53.975 76.2524 54.7344C76.151 55.0887 76.0496 55.4937 76.151 55.8481C76.2017 56 76.3031 56.2025 76.4045 56.3543C76.4552 56.405 76.4553 56.4556 76.506 56.5062C76.5567 56.6581 76.506 56.6075 76.5567 56.5568C76.4046 56.7593 76.4552 57.1137 76.6581 57.2656C77.9258 58.3793 79.5992 58.0249 80.9176 57.2149C82.4895 56.3037 84.0108 55.19 85.4813 54.0763C85.9884 53.6713 85.3292 52.8107 84.7714 53.165C83.5037 54.0256 82.2867 54.9369 80.9683 55.7469C80.0555 56.3543 78.5343 57.3162 77.4694 56.405C77.5201 56.6581 77.5201 56.9112 77.5708 57.1137C77.7737 56.8606 77.7736 56.5568 77.7229 56.2531C77.6215 55.9493 77.4187 55.6962 77.3173 55.4431C77.1652 54.8356 77.9258 53.9244 78.3315 53.4688C79.3963 52.2538 80.8162 51.292 82.1346 50.3301C83.2502 49.5201 85.2277 48.3558 86.2926 49.8745C86.749 50.5326 86.6983 51.3932 86.1405 52.0007C85.7349 52.4563 85.177 52.76 85.3291 53.4182C85.3799 53.7219 85.7348 53.7219 85.7855 53.5194Z" fill="#181D23"/>
    <path d="M95.9778 46.4321C94.6087 45.1665 93.0875 44.2046 91.5156 43.1921C89.9436 42.1796 88.321 41.2178 86.6983 40.3572C83.5544 38.636 80.2077 37.016 76.7596 35.9023C73.1594 34.7379 69.4069 34.6873 65.756 35.8517C63.0178 36.7123 60.4824 38.231 58.4033 40.2053C53.8396 44.4577 51.5071 50.5326 52.0142 56.7087C52.6734 63.9985 56.5272 70.4278 60.8373 76.0977C63.4234 79.4895 66.1109 82.7294 68.7477 86.0706C71.5874 89.5636 74.3763 93.1073 77.2159 96.6003C77.8244 97.3091 78.8386 96.2966 78.2301 95.5879C77.2493 94.3666 76.2686 93.1453 75.2878 91.924C75.0356 91.61 74.7835 91.2959 74.5313 90.9819C74.2463 90.627 73.9613 90.2721 73.6763 89.9172C73.3593 89.5225 73.0424 89.1278 72.7254 88.7331C69.8445 85.1457 66.9636 81.5582 64.0827 77.9707C59.8232 72.6046 55.6144 66.8841 53.9918 60.1005C53.2312 56.9112 53.0791 53.4688 53.9411 50.2795C54.651 47.5964 55.9694 45.1158 57.7442 42.9896C61.6994 38.3322 67.9364 35.5479 74.0214 36.8135C77.8752 37.5729 81.5261 39.446 84.9743 41.2684C86.6983 42.1796 88.3717 43.0909 90.045 44.1034C91.7691 45.1665 93.3917 46.3308 95.1665 47.2927C95.8257 47.5458 96.4342 46.837 95.9778 46.4321Z" fill="#181D23"/>
    <path d="M94.1016 47.647C90.9577 45.7739 87.8139 43.9515 84.6193 42.1796C81.6782 40.5597 78.585 39.0916 75.289 38.3322C72.2973 37.6741 69.204 37.7247 66.3137 38.6866C63.5755 39.5978 61.0401 41.2684 59.1132 43.3946C54.9552 47.9001 53.5861 54.4813 54.9552 60.4043C56.4257 66.6816 60.6852 71.8453 64.6911 76.7051C67.0743 79.6413 69.4069 82.5269 71.7902 85.4631C72.4407 86.2624 73.0858 87.0782 73.7416 87.8888C74.0587 88.2808 74.3784 88.6716 74.7024 89.0587C74.9879 89.3998 75.2768 89.738 75.5703 90.0718C75.8381 90.3762 76.1097 90.6769 76.3861 90.9726C76.9134 91.5366 77.4583 92.0824 78.0273 92.601C80.2077 94.5754 82.7938 96.0941 85.7855 96.3472C88.7266 96.6003 91.7184 95.6891 94.2538 94.1704C98.3582 91.7191 101.271 87.7077 103.796 83.5696C103.988 83.2546 104.178 82.9389 104.366 82.6231C104.551 82.3111 104.735 81.9991 104.918 81.6875C105.175 81.2483 105.429 80.8102 105.681 80.3748C105.982 79.8555 106.279 79.34 106.576 78.8313C108.401 75.7433 110.125 72.6046 111.799 69.4153C113.421 66.3272 114.993 63.1379 116.058 59.7968C117.123 56.6075 117.833 53.2157 117.731 49.8239C117.681 48.052 117.478 46.3308 117.022 44.6096C116.616 43.1415 116.058 41.6734 114.943 40.5597C112.711 38.3322 109.111 37.7247 106.069 37.9272C102.671 38.1804 99.5274 39.3953 96.5356 40.9647C95.0651 41.724 93.5945 42.6353 92.1747 43.4959C91.2619 44.0527 92.0733 45.4196 92.9861 44.9133C98.2597 41.7747 104.446 38.1297 110.835 40.0028C112.204 40.4078 113.573 41.0659 114.435 42.2303C115.348 43.4452 115.754 45.0652 116.007 46.5333C116.616 49.7226 116.413 53.1144 115.703 56.3037C114.182 62.7836 110.784 68.7066 107.59 74.4271C105.967 77.3633 104.243 80.2488 102.468 83.0838C100.846 85.6656 99.1217 88.2474 96.8905 90.4242C92.7325 94.4741 86.4954 96.7522 81.2218 93.4617C78.8385 91.9936 76.9623 89.8167 75.1876 87.6399C73.0578 85.0075 70.9281 82.375 68.7477 79.7426C66.6687 77.1608 64.5389 74.6296 62.5106 71.9971C60.6851 69.6178 58.9611 67.1879 57.6934 64.4542C55.158 59.088 54.8538 52.6588 57.7948 47.3433C60.4823 42.4328 65.7559 39.0916 71.3845 39.0916C77.8751 39.0916 83.5544 42.939 88.9801 45.9764C90.5014 46.837 92.0226 47.647 93.5438 48.457C94.1523 48.862 94.6594 48.0014 94.1016 47.647Z" fill="#181D23"/>
    <path d="M86.749 50.077C87.5096 49.7732 88.2196 49.267 88.9295 48.8114C89.2844 48.5583 89.5887 48.3558 89.9436 48.1026C90.0958 48.0014 90.2986 47.8495 90.4507 47.7483C90.6535 47.5964 90.8564 47.4952 91.0085 47.2927C91.2113 46.9889 90.8564 46.5839 90.5014 46.6852C90.2986 46.7358 90.1465 46.8877 89.9436 47.0395C89.7915 47.1408 89.6394 47.2927 89.4365 47.3939C89.0816 47.647 88.7773 47.9001 88.4224 48.1026C88.0674 48.3558 87.7632 48.5583 87.4082 48.8114C87.0533 49.0645 86.6983 49.3176 86.3941 49.6214C86.2926 49.8239 86.4447 50.2288 86.749 50.077Z" fill="#181D23"/>
    <path d="M85.5826 48.7101C86.039 48.3558 86.5461 48.0014 87.0025 47.647C87.256 47.4951 87.5095 47.3433 87.7631 47.1914C87.9152 47.1408 88.0166 47.0395 88.1687 46.9889C88.3209 46.9383 88.4729 46.837 88.6251 46.7864C88.9293 46.5839 88.7772 46.0271 88.3715 46.1283C88.0673 46.2295 87.7631 46.432 87.5095 46.5839C87.256 46.7358 86.9518 46.8877 86.6982 47.0902C86.1405 47.4445 85.6334 47.8495 85.177 48.3051C85.0756 48.4064 85.0756 48.6089 85.177 48.7607C85.2784 48.862 85.4305 48.8114 85.5826 48.7101Z" fill="#181D23"/>
    <path d="M91.1605 43.749C94.1016 42.0278 96.8905 40.1041 99.9837 38.7879C102.874 37.5729 105.967 36.9148 109.06 37.2691C112.001 37.6235 114.892 38.9397 116.667 41.319C118.695 44.0527 119.253 47.4445 119.101 50.7351C118.898 54.1775 118.036 57.6199 116.92 60.8599C115.906 63.9479 114.588 66.8841 113.066 69.7697C111.092 73.5509 108.807 77.1464 106.41 80.6616C106.124 81.082 105.835 81.5013 105.546 81.9196C105.335 82.2244 105.123 82.5288 104.911 82.8326C104.7 83.1347 104.489 83.4364 104.277 83.7376C103.609 84.687 102.937 85.6327 102.266 86.5768C97.3976 93.411 92.479 100.195 87.5096 106.928C87.0025 107.636 88.1688 108.294 88.6759 107.636C93.341 101.308 97.9047 94.9804 102.468 88.6018C106.525 82.9319 110.531 77.1608 113.776 70.9846C116.971 64.9098 119.709 58.1262 120.165 51.2413C120.368 47.9002 119.81 44.3565 117.985 41.4709C116.362 38.9397 113.827 37.2691 110.937 36.5604C103.584 34.7886 96.3328 38.9397 90.7549 43.2934C90.5521 43.5465 90.8563 43.9515 91.1605 43.749Z" fill="#181D23"/>
    <path d="M77.1145 96.0435C77.8244 96.8028 78.5343 97.5116 79.0414 98.4228C79.6499 99.3846 80.1569 100.397 80.7147 101.41C81.3232 102.473 81.881 103.485 82.4895 104.548C83.098 105.611 83.7065 106.725 83.5037 108.041C83.4023 108.699 84.4164 109.003 84.5685 108.345C84.8221 107.079 84.315 105.966 83.7065 104.903C83.0473 103.637 82.2867 102.422 81.5768 101.207C80.9176 100.093 80.3091 98.929 79.5992 97.8153C79.0921 97.0053 78.3315 95.9422 77.2666 95.7904C77.1145 95.6891 76.9624 95.8916 77.1145 96.0435Z" fill="#181D23"/>
    <path d="M83.9094 108.345C84.0108 108.649 84.1629 108.902 84.4164 109.155C84.67 109.358 84.9235 109.56 85.2784 109.661C85.8362 109.864 86.5461 109.914 87.1039 109.661C87.3575 109.56 87.5096 109.307 87.4082 109.054C87.3068 108.801 87.0025 108.699 86.749 108.851C86.7997 108.851 86.6476 108.902 86.749 108.851C86.6983 108.851 86.6983 108.851 86.6476 108.902C86.5969 108.902 86.5462 108.953 86.4447 108.953C86.394 108.953 86.394 108.953 86.3433 108.953C86.2926 108.953 86.2926 108.953 86.3433 108.953C86.2926 108.953 86.2419 108.953 86.1405 108.953C86.0898 108.953 86.0391 108.953 85.9377 108.953C85.887 108.953 85.8869 108.953 85.8362 108.953C85.7855 108.953 85.7855 108.953 85.8362 108.953C85.6841 108.953 85.5827 108.902 85.4306 108.851C85.3799 108.851 85.3292 108.801 85.2277 108.801C85.177 108.801 85.1771 108.801 85.1264 108.75C85.0249 108.699 84.9235 108.649 84.8221 108.548C84.6192 108.396 84.4671 108.294 84.315 108.092C84.2136 107.889 83.8079 108.143 83.9094 108.345Z" fill="#181D23"/>
    <path d="M87.6618 108.75C87.7125 108.699 87.7124 108.649 87.7631 108.598C87.8138 108.548 87.8138 108.446 87.8645 108.396C87.9152 108.294 87.9152 108.143 87.966 108.041C88.0167 107.788 88.0673 107.484 88.0166 107.231C88.0166 107.029 87.8646 106.877 87.6618 106.877C87.5097 106.877 87.3068 107.029 87.3068 107.231C87.3068 107.484 87.3068 107.738 87.3068 107.94C87.3068 108.041 87.3068 108.193 87.3068 108.294V108.345C87.3068 108.396 87.3068 108.396 87.3068 108.345C87.3068 108.396 87.3068 108.396 87.3068 108.446C87.3068 108.497 87.3068 108.548 87.3068 108.649C87.2561 108.851 87.5604 108.902 87.6618 108.75Z" fill="#181D23"/>
    <path d="M82.0839 97.4103C81.9317 97.1066 81.6782 96.8534 81.374 96.7522C81.0697 96.6509 80.6641 96.6003 80.3598 96.7016C80.1063 96.8028 79.9542 97.0559 80.1063 97.3091C80.8162 98.3215 81.5768 99.2834 82.4388 100.195C82.5909 100.346 82.8444 100.346 83.0472 100.195C83.1994 100.043 83.1994 99.7896 83.0472 99.5871C82.2359 98.7771 81.4754 97.8659 80.8162 96.9041C80.7148 97.1066 80.6641 97.3091 80.5627 97.5116C80.6134 97.5116 80.664 97.4609 80.7654 97.4609H80.8162C80.8162 97.4609 80.9176 97.4609 80.8669 97.4609C80.8162 97.4609 80.9176 97.4609 80.9176 97.4609C80.9683 97.4609 80.9683 97.4609 81.019 97.4609C81.019 97.4609 81.1204 97.4609 81.0697 97.4609C81.019 97.4609 81.1204 97.4609 81.1204 97.4609C81.3233 97.5116 81.5261 97.5622 81.6782 97.7647C81.881 97.9165 82.1853 97.6634 82.0839 97.4103Z" fill="#181D23"/>
    <path d="M86.1405 97.9672C87.7125 98.524 89.4365 98.2203 90.8563 97.5116C91.1606 97.3597 91.5155 97.056 91.9212 97.0053C92.3775 96.9547 92.1748 97.3091 92.0226 97.5622C91.5663 98.3722 91.1099 99.1315 90.5521 99.8402C90.2985 100.195 90.907 100.65 91.1606 100.296C91.8198 99.4859 92.4283 98.5747 92.8339 97.6634C93.0368 97.2584 93.0368 96.8535 92.7326 96.4991C92.479 96.246 92.0226 96.1447 91.6676 96.1953C91.2113 96.2966 90.8564 96.6003 90.4507 96.8028C90.045 97.0053 89.5886 97.2078 89.0816 97.3091C88.1181 97.5622 87.104 97.5622 86.1405 97.5116C85.9884 97.5116 85.9377 97.8659 86.1405 97.9672Z" fill="#181D23"/>
    <path d="M84.0107 104.346C84.2136 105.257 84.8728 106.168 85.887 106.269C86.749 106.371 87.7632 105.713 87.6618 104.801C87.6618 104.396 87.0026 104.396 87.0026 104.801C87.0026 105.055 86.8505 105.308 86.6476 105.46C86.3941 105.611 86.0898 105.713 85.8362 105.662C85.1263 105.561 84.67 104.852 84.4164 104.245C84.3657 103.941 83.9093 104.042 84.0107 104.346Z" fill="#181D23"/>
    <path d="M68.2406 100.346C66.7194 98.6253 64.1333 98.0178 61.9022 98.2709C59.4682 98.524 57.2877 99.6884 55.513 101.258C52.2677 104.143 50.2393 109.003 51.7099 113.256C53.1804 117.457 57.4906 119.482 61.6486 119.887C66.4152 120.394 71.5874 119.027 74.3256 114.825C77.2159 110.37 76.2525 104.245 72.0437 100.954C71.486 100.498 70.6746 101.258 71.2324 101.764C74.4777 104.447 75.8468 109.054 74.0721 112.952C73.2607 114.774 71.8409 116.344 70.1168 117.356C68.0885 118.52 65.7053 118.875 63.3727 118.875C59.7217 118.875 55.5637 117.66 53.5353 114.42C51.4056 110.978 52.5719 106.472 55.0059 103.536C56.5271 101.713 58.6061 100.245 60.888 99.6378C63.3727 98.9797 65.8067 99.5365 67.9871 100.853C68.1899 100.853 68.3928 100.549 68.2406 100.346Z" fill="#181D23"/>
    <path d="M67.4294 103.991C66.4659 101.207 62.9164 101.561 60.8373 102.675C58.3527 103.991 56.0201 106.32 55.8679 109.256C55.7665 112.091 57.947 113.914 60.381 114.825C61.6994 115.281 63.2206 115.686 64.6404 115.281C65.9588 114.876 67.0237 113.863 67.7843 112.749C69.6098 110.218 69.9648 106.32 67.3787 104.143C66.8716 103.738 66.1617 104.396 66.6688 104.852C68.4435 106.523 68.5956 109.104 67.4801 111.18C66.9223 112.243 66.1617 113.256 65.0968 113.863C63.9813 114.521 62.7135 114.369 61.4965 114.066C59.5696 113.509 57.3892 112.395 56.9836 110.218C56.4765 107.788 58.2005 105.611 60.0767 104.295C62.2065 102.776 65.0968 102.017 67.1758 104.143C67.2773 104.194 67.4294 104.093 67.4294 103.991Z" fill="#181D23"/>
    <path d="M55.0567 105.51C55.9694 105.257 56.8821 105.055 57.7949 104.751C58.2005 104.65 57.9977 104.042 57.6427 104.143C56.73 104.447 55.868 104.751 54.9553 105.055C54.651 105.156 54.7524 105.611 55.0567 105.51Z" fill="#181D23"/>
    <path d="M53.9411 107.535C55.0059 107.333 56.0708 107.029 57.0342 106.573C57.237 106.472 57.0849 106.168 56.8314 106.269C55.8679 106.725 54.9045 107.029 53.8396 107.231C53.6368 107.282 53.7382 107.586 53.9411 107.535Z" fill="#181D23"/>
    <path d="M53.4847 109.459C54.1946 109.307 54.8538 109.155 55.5637 109.003C55.8679 108.953 55.7158 108.446 55.4623 108.548C54.7524 108.699 54.0931 108.902 53.3832 109.054C53.079 109.155 53.2311 109.509 53.4847 109.459Z" fill="#181D23"/>
    <path d="M53.0283 111.534C53.6875 111.079 54.4482 110.724 55.2088 110.421C55.4623 110.319 55.3609 109.914 55.1073 110.016C54.296 110.269 53.5354 110.674 52.8255 111.129C52.5719 111.332 52.8255 111.686 53.0283 111.534Z" fill="#181D23"/>
    <path d="M53.7889 112.648C54.5495 112.496 55.2594 112.192 55.9186 111.838C56.1214 111.737 55.9186 111.383 55.7158 111.534C55.0566 111.889 54.3974 112.142 53.6875 112.344C53.4847 112.344 53.5354 112.699 53.7889 112.648Z" fill="#181D23"/>
    <path d="M55.0566 114.167C56.0201 113.812 56.9835 113.458 57.9469 113.053C58.099 113.002 58.1498 112.901 58.1498 112.749C58.099 112.648 57.9469 112.547 57.8455 112.547C56.8821 112.901 55.9187 113.306 54.9553 113.661C54.8538 113.711 54.7524 113.812 54.8031 113.964C54.8031 114.116 54.9552 114.217 55.0566 114.167Z" fill="#181D23"/>
    <path d="M57.0849 114.876C57.7441 114.369 58.5048 114.015 59.3161 113.964C59.5696 113.964 59.5696 113.509 59.3161 113.559C58.4034 113.661 57.4906 114.015 56.7807 114.622C56.6793 114.673 56.73 114.825 56.7807 114.926C56.8821 114.926 56.9835 114.926 57.0849 114.876Z" fill="#181D23"/>
    <path d="M58.302 115.989C59.5697 115.534 60.8373 115.078 62.0543 114.572C62.4092 114.42 62.1557 113.762 61.75 113.914C60.4823 114.319 59.3161 114.876 58.0991 115.382C57.947 115.432 57.8456 115.584 57.8963 115.787C57.947 115.939 58.1499 116.04 58.302 115.989Z" fill="#181D23"/>
    <path d="M59.8739 116.546C60.7359 116.192 61.5979 115.837 62.4599 115.483C62.612 115.432 62.7135 115.281 62.6628 115.078C62.6121 114.876 62.4092 114.876 62.2571 114.926C61.3951 115.281 60.5838 115.686 59.7218 116.091C59.4175 116.192 59.6204 116.647 59.8739 116.546Z" fill="#181D23"/>
    <path d="M61.3444 117.356C62.0543 116.698 62.815 116.192 63.677 115.686C63.8291 115.584 63.8798 115.382 63.7784 115.179C63.677 115.027 63.4741 114.977 63.2713 115.078C62.8149 115.331 62.4093 115.584 62.0036 115.888C61.5979 116.192 61.1923 116.546 60.7866 116.85C60.6345 117.002 60.6345 117.255 60.7866 117.356C60.9388 117.508 61.1923 117.508 61.3444 117.356Z" fill="#181D23"/>
    <path d="M63.4741 105.51C64.6911 105.51 65.0968 106.674 65.3503 107.687C65.6546 108.801 65.7052 109.965 65.5531 111.129C65.4517 111.686 66.263 111.787 66.3137 111.231C66.5166 109.813 66.3645 108.396 65.9081 107.029C65.7053 106.472 65.4517 105.865 64.9447 105.46C64.539 105.105 63.8798 104.903 63.3727 105.206C63.2206 105.257 63.322 105.51 63.4741 105.51Z" fill="#181D23"/>
    <path d="M78.3315 53.3169C78.8386 53.3169 79.3457 53.2157 79.8527 53.1144C80.3598 53.0132 80.8162 52.9119 81.3233 52.8107C81.5261 52.76 81.6782 52.5069 81.6275 52.3044C81.5768 52.0513 81.3232 51.9501 81.1204 52.0007C80.6133 52.1019 80.157 52.2032 79.6499 52.355C79.1428 52.5069 78.6864 52.6082 78.2301 52.8107C77.9258 52.9119 78.078 53.3169 78.3315 53.3169Z" fill="#181D23"/>
    <path d="M77.5202 55.0887C77.9766 55.0381 78.4329 54.8862 78.8893 54.785C79.3457 54.6837 79.7513 54.5825 80.2077 54.4306C80.4105 54.38 80.5119 54.1775 80.4612 53.975C80.4105 53.7725 80.2077 53.6713 80.0048 53.7219C79.5485 53.8231 79.1428 53.9244 78.6865 54.0763C78.2301 54.1775 77.7737 54.2787 77.3681 54.4812C77.0638 54.6331 77.216 55.1394 77.5202 55.0887Z" fill="#181D23"/>
    <path d="M76.9624 56.5568C77.3681 56.6581 77.7738 56.6581 78.1794 56.6075C78.5851 56.5568 78.9401 56.405 79.2951 56.2531C79.4979 56.1518 79.5486 55.8987 79.4472 55.7468C79.3457 55.5443 79.1429 55.5444 78.9401 55.595C78.8894 55.595 78.8387 55.6456 78.788 55.6456C78.6866 55.6962 78.8386 55.6456 78.7372 55.6456C78.6358 55.6962 78.5851 55.6962 78.4837 55.7468C78.3316 55.7975 78.1794 55.8481 77.9766 55.8987C77.9259 55.8987 77.9259 55.8987 77.8752 55.8987H77.8245C77.8752 55.8987 77.8752 55.8987 77.8245 55.8987C77.7231 55.8987 77.6724 55.8987 77.571 55.8987C77.4188 55.8987 77.216 55.8987 77.0639 55.8987C76.7089 55.9493 76.6075 56.4556 76.9624 56.5568Z" fill="#181D23"/>
    <path d="M94.051 50.7857C94.913 50.6338 95.775 50.3807 96.5863 50.1276C96.9919 49.9757 96.8398 49.3682 96.4341 49.4695C95.5721 49.672 94.7608 49.9251 93.8988 50.2795C93.5946 50.4313 93.696 50.887 94.051 50.7857Z" fill="#181D23"/>
    <path d="M95.6229 52.2032C96.0286 52.1525 96.4342 52.0513 96.8399 51.8994C97.2456 51.7982 97.6512 51.6969 98.0569 51.5451C98.2597 51.4944 98.3611 51.2919 98.3104 51.1401C98.2597 50.9376 98.0569 50.8363 97.9047 50.887C97.4991 50.9882 97.0934 51.0894 96.6877 51.2413C96.2821 51.3426 95.8764 51.4944 95.4708 51.6463C95.3186 51.6969 95.3187 51.8994 95.3694 52.0007C95.3694 52.2032 95.4708 52.2538 95.6229 52.2032Z" fill="#181D23"/>
    <path d="M96.6877 53.3169C97.0934 53.2663 97.4991 53.1144 97.9047 53.0131C98.3104 52.8613 98.7161 52.76 99.1217 52.6082C99.2739 52.5575 99.3246 52.4057 99.3246 52.3044C99.2739 52.1525 99.1217 52.0513 99.0203 52.1019C98.6146 52.2538 98.209 52.4057 97.8033 52.5575C97.3977 52.7094 96.992 52.8613 96.637 53.0638C96.4342 53.165 96.5356 53.3675 96.6877 53.3169Z" fill="#181D23"/>
    <path d="M98.8682 54.4812C99.2739 54.3294 99.6288 54.1269 100.034 53.975C100.44 53.8231 100.795 53.6206 101.15 53.4181C101.302 53.3675 101.302 53.165 101.251 53.0638C101.15 52.9119 100.998 52.9119 100.896 52.9625C100.542 53.1144 100.136 53.3169 99.7809 53.5194C99.4259 53.7219 99.071 53.9244 98.6654 54.1269C98.5639 54.1775 98.5133 54.3294 98.564 54.4306C98.6147 54.5319 98.7668 54.5319 98.8682 54.4812Z" fill="#181D23"/>
    <path d="M100.592 55.2912C101.251 55.0887 101.86 54.8862 102.519 54.6837C102.722 54.6331 102.823 54.4306 102.773 54.2281C102.722 54.0256 102.519 53.9244 102.316 53.975C101.657 54.1775 101.049 54.4306 100.389 54.6331C100.237 54.6837 100.085 54.8356 100.136 55.0381C100.237 55.2406 100.44 55.3419 100.592 55.2912Z" fill="#181D23"/>
    <path d="M101.809 56.405C102.468 56.405 103.178 56.1012 103.736 55.7468C103.888 55.6456 103.939 55.4431 103.837 55.2912C103.736 55.1394 103.533 55.0381 103.381 55.19C103.229 55.2912 103.128 55.3925 102.975 55.4431C102.925 55.4937 102.874 55.4937 102.773 55.5444C102.722 55.5444 102.722 55.595 102.671 55.595C102.621 55.595 102.621 55.595 102.671 55.595H102.621C102.316 55.6962 102.012 55.7975 101.708 55.8481C101.556 55.8987 101.505 56.0506 101.505 56.1518C101.505 56.2531 101.657 56.405 101.809 56.405Z" fill="#181D23"/>
    <path d="M103.229 57.6706C103.635 57.4681 104.091 57.2656 104.497 57.0124C104.649 56.9112 104.75 56.6581 104.649 56.5062C104.547 56.3037 104.345 56.3037 104.142 56.3543C103.736 56.5568 103.28 56.7593 102.874 57.0124C102.722 57.1137 102.621 57.3668 102.722 57.5187C102.823 57.7212 103.077 57.7718 103.229 57.6706Z" fill="#181D23"/>
    <path d="M50.4422 104.903C51.4057 104.498 52.4198 104.143 53.4846 103.89C53.7382 103.84 53.6367 103.435 53.3832 103.485C52.3183 103.789 51.3042 104.194 50.3408 104.751C50.2393 104.801 50.3408 104.953 50.4422 104.903Z" fill="#181D23"/>
    <path d="M49.1239 107.484C49.8845 107.181 50.645 106.877 51.3549 106.573C51.5577 106.472 51.4563 106.168 51.2535 106.269C50.4929 106.573 49.783 106.928 49.0224 107.231C48.8703 107.282 48.9717 107.535 49.1239 107.484Z" fill="#181D23"/>
    <path d="M48.0083 109.914C48.921 109.611 49.8338 109.256 50.7465 108.953C50.9494 108.902 50.848 108.548 50.6452 108.649C49.7324 109.003 48.8196 109.307 47.9576 109.661C47.7548 109.712 47.8562 110.016 48.0083 109.914Z" fill="#181D23"/>
    <path d="M48.7181 111.838C49.4787 111.281 50.3408 110.876 51.2028 110.573C51.4563 110.471 51.3549 110.117 51.1013 110.218C50.1886 110.522 49.2759 110.978 48.5153 111.534C48.3125 111.636 48.5153 111.99 48.7181 111.838Z" fill="#181D23"/>
    <path d="M49.5294 113.914C50.29 113.559 50.9999 113.154 51.7605 112.8C51.9634 112.699 51.7605 112.446 51.6084 112.547C50.8478 112.901 50.1379 113.306 49.3773 113.661C49.1238 113.711 49.3266 114.015 49.5294 113.914Z" fill="#181D23"/>
    <path d="M50.2394 115.686C50.8479 115.382 51.4056 115.078 52.0141 114.724C52.0648 114.673 52.0141 114.572 51.9634 114.622C51.3549 114.926 50.7972 115.23 50.1887 115.584C50.0873 115.635 50.1887 115.736 50.2394 115.686Z" fill="#181D23"/>
    <path d="M50.2901 117.407C51.4056 116.749 52.5719 116.242 53.7889 115.837C54.0424 115.736 53.941 115.382 53.6875 115.432C52.4198 115.787 51.2535 116.344 50.138 117.052C49.8844 117.204 50.0872 117.559 50.2901 117.407Z" fill="#181D23"/>
    <path d="M51.71 118.419C52.6734 118.065 53.6368 117.71 54.6003 117.305C54.7017 117.255 54.8031 117.154 54.7524 117.002C54.7017 116.901 54.6003 116.799 54.4482 116.85C53.4847 117.255 52.5213 117.609 51.5578 118.014C51.355 118.115 51.5071 118.52 51.71 118.419Z" fill="#181D23"/>
    <path d="M52.7242 120.292C53.789 119.786 54.8539 119.28 55.9187 118.723C56.223 118.571 55.9694 118.166 55.6652 118.318C54.6003 118.875 53.5355 119.381 52.4706 119.938C52.2678 120.039 52.4706 120.394 52.7242 120.292Z" fill="#181D23"/>
    <path d="M56.5779 120.849C57.3892 120.242 58.2512 119.837 59.2654 119.634C59.4175 119.584 59.5189 119.432 59.4682 119.28C59.4175 119.128 59.2654 119.027 59.1132 119.077C58.0991 119.28 57.1357 119.786 56.2736 120.444C56.0201 120.596 56.3243 121.001 56.5779 120.849Z" fill="#181D23"/>
    <path d="M57.9977 121.659C59.2147 121.001 60.4316 120.343 61.6993 119.786C61.8514 119.735 61.8514 119.533 61.8007 119.381C61.6993 119.229 61.5472 119.229 61.395 119.28C60.1274 119.887 58.9104 120.495 57.7441 121.204C57.4399 121.355 57.6934 121.811 57.9977 121.659Z" fill="#181D23"/>
    <path d="M61.6994 121.811C63.2206 121.102 64.6911 120.394 66.2124 119.634C66.6688 119.432 66.2631 118.723 65.8067 118.976C64.3362 119.735 62.8657 120.495 61.3444 121.254C60.9895 121.457 61.3444 121.963 61.6994 121.811Z" fill="#181D23"/>
    <path fill-rule="evenodd" clip-rule="evenodd" d="M84.1629 108.902C83.3516 114.015 82.7938 119.482 84.5178 124.545C85.2277 126.671 86.4447 128.645 88.4731 129.759C90.5014 130.873 92.986 131.227 95.3186 131.227C105.156 131.176 113.472 123.887 117.478 115.281C118.492 113.053 119.253 110.674 119.557 108.244C119.912 105.561 119.608 102.878 119.151 100.195C118.34 95.5878 117.224 90.8292 114.486 86.9818C112.449 84.1263 109.624 81.9963 106.41 80.6616C106.124 81.082 105.835 81.5013 105.546 81.9196C107.517 82.6857 109.36 83.7635 110.937 85.1593C114.233 88.0955 115.906 92.2467 116.971 96.4485C118.137 101.156 119.05 106.067 117.833 110.826C116.717 115.23 114.182 119.381 111.089 122.722C107.996 126.063 104.04 128.595 99.5781 129.708C97.2962 130.265 94.8622 130.417 92.5297 130.063C90.2985 129.708 88.0674 128.898 86.6983 126.975C85.3799 125.051 84.8221 122.621 84.5178 120.343C84.2136 117.862 84.315 115.382 84.4671 112.901C84.5685 111.636 84.6193 110.37 84.67 109.104C84.8221 108.598 84.2136 108.497 84.1629 108.902ZM104.918 81.6875C105.175 81.2483 105.429 80.8102 105.681 80.3748C104.964 80.1085 104.23 79.8806 103.483 79.692C98.6653 78.477 93.6452 78.882 88.8787 80.2488C84.2643 81.565 79.7513 83.6912 75.7961 86.3743C75.0968 86.8531 74.4092 87.3574 73.7416 87.8888C74.0587 88.2808 74.3784 88.6716 74.7024 89.0587C77.9091 86.5011 81.71 84.5697 85.3291 83.1344C89.7914 81.3625 94.6087 80.1982 99.4259 80.5526C101.279 80.688 103.143 81.0648 104.918 81.6875ZM67.1251 95.841C68.4409 93.0717 70.4301 90.7257 72.7254 88.7331L73.6763 89.9172C70.8028 92.4419 68.5248 95.5283 67.48 99.2834C67.2265 100.245 65.756 99.8403 66.0095 98.8784C66.263 97.8153 66.6687 96.8028 67.1251 95.841Z" fill="#181D23"/>
    <path fill-rule="evenodd" clip-rule="evenodd" d="M68.8491 100.549C70.5309 97.3392 72.5987 94.3702 75.2878 91.924L74.5313 90.9819C72.4605 92.8834 70.6831 95.0718 69.3562 97.5622C68.8998 98.4228 68.5449 99.2834 68.2407 100.195C68.0885 100.65 68.6463 100.903 68.8491 100.549ZM85.0756 85.6656C81.9387 87.0726 79.0057 88.8051 76.3861 90.9726C76.1097 90.6769 75.8381 90.3762 75.5703 90.0718C79.2525 86.9932 83.7107 84.7393 88.1688 83.2356C92.6311 81.7169 97.499 80.9576 102.164 81.97C102.908 82.1414 103.645 82.3593 104.366 82.6231C104.178 82.9389 103.988 83.2546 103.796 83.5696C97.8029 81.5831 90.7564 83.1747 85.0756 85.6656ZM104.277 83.7376C106.022 84.3792 107.671 85.3366 109.162 86.6781C112.306 89.513 113.523 93.6641 114.435 97.6634C115.399 101.966 116.058 106.32 115.095 110.674C114.233 114.673 112.407 118.318 109.517 121.254C106.829 124.038 103.33 126.013 99.5273 126.873C95.9271 127.683 91.1605 127.734 88.8787 124.342C86.7689 121.207 86.8905 116.888 86.9924 113.263L87.0025 112.901C87.0532 111.686 87.1039 110.471 87.2054 109.256C87.3068 108.345 85.8869 108.345 85.7855 109.256C85.5827 111.838 85.4813 114.471 85.5827 117.052C85.6334 118.976 85.8362 120.95 86.4954 122.773C87.1546 124.595 88.2702 126.266 89.9436 127.278C91.7184 128.392 93.8987 128.747 95.9778 128.696C100.136 128.595 104.243 127.076 107.59 124.595C110.987 122.064 113.472 118.672 114.993 114.724C116.667 110.522 116.971 105.966 116.261 101.511C115.906 99.1822 115.399 96.8535 114.74 94.626C114.131 92.4998 113.371 90.4242 112.154 88.5511C110.41 85.9203 107.807 83.999 104.911 82.8326C104.7 83.1347 104.489 83.4364 104.277 83.7376Z" fill="#181D23"/>
    <defs>
        <filter id="filter0_d" x="0.421631" y="0.827393" width="176.157" height="180.338" filterUnits="userSpaceOnUse" color-interpolation-filters="sRGB">
            <feFlood flood-opacity="0" result="BackgroundImageFix"/>
            <feColorMatrix in="SourceAlpha" type="matrix" values="0 0 0 0 0 0 0 0 0 0 0 0 0 0 0 0 0 0 127 0"/>
            <feOffset dy="9"/>
            <feGaussianBlur stdDeviation="8.5"/>
            <feColorMatrix type="matrix" values="0 0 0 0 0 0 0 0 0 0 0 0 0 0 0 0 0 0 0.1 0"/>
            <feBlend mode="normal" in2="BackgroundImageFix" result="effect1_dropShadow"/>
            <feBlend mode="normal" in="SourceGraphic" in2="effect1_dropShadow" result="shape"/>
        </filter>
    </defs>
</svg>
