<?xml version="1.0" encoding="UTF-8"?> <svg xmlns="http://www.w3.org/2000/svg" width="128" height="44" viewBox="0 0 128 44" fill="none"><g clip-path="url(#clip0)"><path d="M57.3165 12.3481H44.741C43.3936 12.3481 42.3456 13.446 42.3456 14.7435V34.2057H41.1978C39.8505 34.2057 38.8025 35.3035 38.8025 36.601V39.5952C38.8025 40.9426 39.9004 41.9905 41.1978 41.9905H48.9827C50.3301 41.9905 51.3781 40.8927 51.3781 39.5952V19.7837H55.7196C57.2167 19.7837 57.8155 20.2827 58.1649 20.682C58.3645 20.9315 59.0631 21.9794 59.0631 25.7222V39.8447C59.0631 41.1921 60.161 42.2401 61.4585 42.2401H65.6503C66.9977 42.2401 68.0457 41.1422 68.0457 39.8447V24.4247C68.0457 20.0831 67.0975 17.039 65.1014 15.1427C63.2051 13.2464 60.5602 12.3481 57.3165 12.3481Z" fill="white"></path><path d="M80.4714 12.2485H72.7364C71.389 12.2485 70.3411 13.3464 70.3411 14.6439V17.4385C70.3411 18.7858 71.4389 19.8338 72.7364 19.8338H73.8842V39.7451C73.8842 41.0925 74.9821 42.1405 76.2795 42.1405H80.4215C81.7689 42.1405 82.8168 41.0426 82.8168 39.7451V14.6938C82.8667 13.3464 81.7689 12.2485 80.4714 12.2485Z" fill="white"></path><path d="M93.9455 12.6973H89.8035C88.4562 12.6973 87.4082 13.7951 87.4082 15.0926V28.0175C87.4082 29.3649 88.5061 30.4128 89.8035 30.4128H93.9455C95.2929 30.4128 96.3408 29.315 96.3408 28.0175V15.0926C96.3408 13.7452 95.2929 12.6973 93.9455 12.6973Z" fill="white"></path><path d="M124.386 15.0929C122.64 13.2465 119.995 12.2983 116.452 12.2983H103.926C102.579 12.2983 101.531 13.3962 101.531 14.6937V39.7949C101.531 41.1423 102.629 42.1903 103.926 42.1903H108.118C109.465 42.1903 110.513 41.0924 110.513 39.7949V19.7339H114.855C116.053 19.7339 116.851 19.9834 117.2 20.4824C117.5 20.8817 118.198 22.1292 118.198 25.7223V39.8448C118.198 41.1922 119.296 42.2402 120.594 42.2402H124.786C126.133 42.2402 127.181 41.1423 127.181 39.8448V24.4248C127.231 20.1331 126.333 17.089 124.386 15.0929Z" fill="white"></path><path d="M13.8011 13.1967C13.352 12.5979 12.6533 12.2485 11.9048 12.2485H8.61117C7.26378 12.2485 6.21582 13.3464 6.21582 14.6439V39.795C6.21582 40.4438 6.46534 41.0426 6.91446 41.4917C7.36359 41.9408 7.96243 42.1904 8.61117 42.1904C8.61117 42.1904 8.61117 42.1904 8.66107 42.1904L12.5535 42.1405C13.851 42.1405 14.9489 41.0426 14.9489 39.7451L14.8989 27.7684L25.1291 41.2422C25.5782 41.841 26.2768 42.1904 27.0254 42.1904H31.367C32.2652 42.1904 33.1136 41.6913 33.5128 40.843C33.912 39.9946 33.8122 39.0465 33.2633 38.2979L13.8011 13.1967ZM32.0157 26.3711C32.1654 26.6206 32.1155 26.8701 31.9658 27.1695C32.0656 26.8701 32.0656 26.6206 32.0157 26.3711Z" fill="white"></path><path fill-rule="evenodd" clip-rule="evenodd" d="M25.0793 28.9155C26.0274 27.0691 26.5265 24.9732 26.5265 22.9271C27.0338 23.4345 27.2001 24.2829 27.3406 24.9995L27.3406 24.9996L27.3407 24.9996L27.3407 24.9997L27.3407 24.9997C27.3522 25.0584 27.3635 25.1162 27.3748 25.1728C28.3703 23.9782 28.2239 22.7339 28.0251 21.0439L28.0236 21.0308C27.8739 20.0827 27.3748 17.8869 26.6263 15.0924C26.9367 15.2356 27.19 15.5618 27.4792 15.934C27.7942 16.3397 28.1519 16.8001 28.6723 17.1384C28.4228 15.3419 27.275 12.2479 25.5783 10.2518L25.6833 10.2844C26.4425 10.5203 27.1582 10.7426 27.8739 11.649C27.1752 9.50322 26.5265 7.65681 22.3845 4.96204C24.2309 4.81233 28.2731 5.26146 31.0177 9.2038C30.9678 7.80652 30.4688 6.45913 29.5706 5.36127C29.9627 5.75345 30.3447 6.11143 30.7127 6.45641L30.7127 6.45641C32.7799 8.39407 34.4094 9.92141 34.9601 14.7929C35.5589 13.8448 35.6587 12.4974 35.6088 11.649C36.9562 16.1902 35.8084 22.0289 32.8642 25.0231C34.0618 24.3244 34.9601 23.4761 35.4591 22.8772C35.1232 23.4652 34.8338 24.0178 34.5567 24.5471L34.5567 24.5472C33.1871 27.1631 32.1142 29.2124 27.1752 32.1592L25.0793 28.9155ZM30.3189 25.972C30.6682 25.6726 30.9676 25.3233 31.267 24.9241C31.5665 24.5249 31.8659 24.0757 32.0655 23.6266C32.1154 23.4769 32.1154 23.3272 31.9657 23.2773C31.816 23.2274 31.6663 23.2773 31.6164 23.427C31.3497 24.1127 30.9377 24.682 30.5134 25.2683L30.5134 25.2683L30.5134 25.2683L30.5134 25.2683L30.5134 25.2683L30.5133 25.2684L30.5133 25.2684C30.3818 25.4501 30.2492 25.6334 30.1193 25.8223C30.0195 25.9221 30.2191 26.0718 30.3189 25.972ZM33.3879 18.4118C33.4004 18.3868 33.4129 18.3619 33.4129 18.3369C33.4628 18.1872 33.6624 18.2371 33.6624 18.3868C33.6624 18.4118 33.6749 18.4367 33.6873 18.4617C33.6998 18.4866 33.7123 18.5116 33.7123 18.5365V18.7361V19.1853V19.1853C33.7123 19.4348 33.7123 19.7342 33.6624 20.0336C33.6125 20.6324 33.4628 21.2313 33.2632 21.7802C33.1634 22.0796 32.6643 21.9299 32.7641 21.6305C32.9638 21.0816 33.1135 20.5326 33.2133 19.9837L33.2322 19.8718C33.275 19.6201 33.3131 19.3967 33.3131 19.1354C33.363 18.9856 33.363 18.8359 33.363 18.6862V18.4866C33.363 18.4617 33.3755 18.4367 33.3879 18.4118ZM32.864 12.8477C32.9319 12.9837 32.9536 13.1428 32.9763 13.3093L32.9763 13.3094L32.9763 13.3095C32.9869 13.3874 32.9978 13.4669 33.0137 13.5464L33.0326 13.6583C33.0755 13.91 33.1135 14.1333 33.1135 14.3947C33.1634 14.8937 33.1634 15.4427 32.9638 15.8918C32.9139 16.0415 33.0137 16.1912 33.1634 16.1912C33.3131 16.2411 33.4129 16.1413 33.4628 15.9916C33.6624 15.4926 33.6624 14.8438 33.6125 14.2949C33.5626 13.6961 33.4628 13.1471 33.1135 12.6481C33.0137 12.4984 32.7642 12.6481 32.864 12.8477ZM31.317 14.3946C31.0176 12.099 29.7202 10.0031 28.273 8.25649C28.1233 8.05688 28.3728 7.80737 28.5724 8.00698C29.5205 8.75552 30.2691 9.90329 30.818 11.0012C31.367 12.0491 31.7662 13.1969 31.9159 14.3946C31.9658 14.7938 31.367 14.7439 31.317 14.3946ZM29.0214 13.6462C29.6202 15.4926 30.1193 17.3889 30.0195 19.3352C30.0195 19.6346 30.4686 19.6346 30.5185 19.3352C30.5684 18.3371 30.4187 17.339 30.2191 16.341C30.0195 15.3928 29.77 14.3449 29.3208 13.4965C29.221 13.3468 28.9715 13.4466 29.0214 13.6462ZM30.9352 23.0625C30.8633 23.2153 30.7908 23.3695 30.7182 23.5268C30.6184 23.7264 30.319 23.5767 30.3689 23.3771C30.4715 23.0921 30.5793 22.8072 30.6875 22.521C31.0532 21.5544 31.4239 20.5742 31.6165 19.5345C31.7163 19.1353 32.3151 19.285 32.2153 19.6842C32.084 20.2972 31.8758 20.8333 31.6582 21.3937C31.6278 21.472 31.5972 21.5509 31.5666 21.6305C31.3775 22.122 31.1598 22.5848 30.9352 23.0625Z" fill="white"></path><path d="M19.7395 5.76093C19.8892 4.91258 20.0389 4.11413 20.3383 3.31568C20.6378 2.56713 21.0869 1.81859 21.6358 1.21975C21.7855 1.02014 21.7855 0.770624 21.6358 0.620915C21.4861 0.471206 21.1867 0.421303 21.037 0.620915C20.4381 1.31956 19.9391 2.11801 19.6397 3.01626C19.3403 3.86461 19.0908 4.81277 19.1906 5.71103C19.1906 5.96054 19.6896 6.11025 19.7395 5.76093Z" fill="white"></path><path d="M17.7435 5.3614C17.3941 4.26353 17.5439 3.01596 18.0928 2.0678C18.3423 1.61867 17.6437 1.21945 17.3941 1.66857C17.0448 2.26741 16.8452 2.91615 16.8452 3.61479C16.8452 4.31344 16.9949 4.96218 17.2444 5.61092C17.3941 5.86043 17.8433 5.66082 17.7435 5.3614Z" fill="white"></path></g><defs><clipPath id="clip0"><path d="M0.791504 0.0551758H127.777V43.0552H0.791504V0.0551758Z" fill="white"></path></clipPath></defs></svg> 